<svg width="149" height="40" viewBox="0 0 149 40" fill="none" xmlns="http://www.w3.org/2000/svg">
<g id="Logo container">
<g id="Group">
<path id="Vector" d="M96.3467 40C87.8904 40 84.2259 36.125 82.7955 33.8164C81.1591 31.1437 80.9474 27.5256 80.9474 24.6695V5.98883C80.9474 5.80824 80.9502 5.62759 80.9531 5.44135C80.9837 3.49397 81.0144 1.65385 78.0316 1.55789H77.0825V0H92.3734L92.3842 1.56918L92.1118 1.56636C90.9709 1.55507 90.1024 1.8627 89.4849 2.48076C88.7532 3.21741 88.3803 4.39711 88.3803 5.98883V26.5378C88.3803 33.4947 91.3631 37.0225 97.2458 37.0225C100.574 37.0225 103.373 36.0262 105.124 34.2171C107.953 31.251 108.179 27.407 108.179 22.6882V5.93241C108.179 3.45448 107.937 1.56071 104.876 1.56071H104.08V0H115.358V1.56071H114.882C112.623 1.56071 111.315 2.27475 111.315 5.93241V22.9733C111.317 34.4317 106.42 40 96.3467 40Z" fill="#E61E28"/>
<path id="Vector_2" d="M134.206 39.1703H118.901V37.618L119.16 37.6095C122.747 37.5051 122.93 36.3424 122.93 33.0008V5.96627C122.93 2.48922 122.797 1.66514 119.31 1.56071L119.051 1.55225V0H134.665C143.889 0 148.715 5.48366 148.715 10.8996C148.715 17.0973 143.266 21.9516 136.312 21.9516L132.867 21.9008V19.1575C132.867 19.1575 134.172 19.1434 134.648 19.1434C138.928 19.1434 141.129 15.8611 141.129 10.9758C141.129 5.88722 137.912 2.46665 133.126 2.46665L130.049 2.45819V33.6301C130.049 36.9039 130.633 37.4966 133.95 37.6067L134.209 37.6152V39.1703H134.206Z" fill="#E61E28"/>
<path id="Vector_3" d="M78.0673 39.1703H67.0397L55.2411 20.9723V18.7512L55.4805 18.7258C59.6182 18.2827 63.5029 15.8668 63.5029 10.4113C63.5029 5.83363 60.2556 2.63884 55.6057 2.63884H52.4223V33.6301C52.4223 37.0056 53.95 37.3414 56.1094 37.443L56.3624 37.4543V39.1674H41.4001V37.5926L41.6534 37.5785C44.8979 37.3951 45.3571 36.5709 45.3571 33.6273V5.53726C45.2374 2.06026 45.0259 1.61433 41.6645 1.56071L41.4029 1.55789V0H57.5203C63.667 0 70.8461 2.74039 70.8461 10.4678C70.8461 15.0737 68.0943 18.3786 62.6623 20.2949L68.7846 29.4617C69.4521 30.5002 71.9064 33.5201 73.0059 34.7506C75.1009 37.0366 76.6091 37.3527 77.6081 37.5616L78.0673 37.6603V39.1703Z" fill="#E61E28"/>
<path id="Vector_4" d="M38.746 39.1703H24.1453V37.6406L24.404 37.6321C26.1878 37.57 27.2925 37.1749 27.2925 35.4082C27.2925 34.6179 26.6831 33.0714 26.3547 32.2387L23.9811 26.4813H10.794L8.3703 32.0807C7.5661 33.9293 7.33236 34.5982 7.33236 35.4646C7.33236 36.7375 7.33236 37.5785 10.2681 37.6321L10.5297 37.6378V39.1731H0V37.6406L0.261573 37.635C2.34858 37.5869 3.43382 36.5117 4.90864 33.0318L19.1921 0H20.6586L20.7281 0.163691L35.0534 34.3752C36.0857 36.9238 36.3306 37.5277 38.4927 37.618L38.7487 37.6293V39.1703H38.746ZM11.8764 23.8312H22.9125L17.5169 10.5553L11.8764 23.8312Z" fill="#E61E28"/>
</g>
</g>
</svg>
