<svg version="1.2" xmlns="http://www.w3.org/2000/svg" viewBox="0 0 275 335" width="275" height="335">
	<style>
		.s0 { fill: none } 
		.s1 { fill: #000000 } 
	</style>
	<g>
		<g>
			<path class="s0" d="m191.8 119.6c-3.9 7.8-9.4 16.3-16.2 24.9-5.9-8.3-13.1-16.7-21.1-24.7-3-2.9-6-5.8-9.1-8.5 18 0.8 34.1 3.9 46.4 8.3z"/>
			<path class="s0" d="m129.2 109.9c2.2-1.8 4.3-3.5 6.4-5.2 2.2 1.6 4.3 3.4 6.4 5.2-2.2-0.1-4.3-0.1-6.4-0.1-2.1 0-4.2 0.1-6.4 0.1z"/>
			<path class="s0" d="m84.1 163.3c-17.3-5.4-28.4-13.5-28.4-22.6 0-8 8.6-15.3 22.6-20.6 4.1 8.2 9.8 16.9 16.6 25.5-4.3 6-7.9 12-10.8 17.7z"/>
			<path class="s0" d="m153.9 154.5c-1.5-0.6-2.5-1.6-2.9-3.1-0.8-2.9 0.9-7 2.2-9.3-0.1 2.9 0.7 4.9 1.3 6.3 1.4 3.1 1 4.9 0.3 5.9-0.3 0.3-0.6 0.4-0.9 0.2z"/>
			<path class="s0" d="m134.8 182.5h1.6c-0.3 0.2-0.5 0.4-0.8 0.6-0.2-0.2-0.5-0.4-0.8-0.6z"/>
			<path class="s0" d="m131.5 182.6h1.2q0.6 0.4 1.2 0.9h-2.5c-0.1 0.9-0.1 1.8-0.2 2.7-21.6 14.7-41.1 20.1-49.2 12-3.1-3.2-4.2-8.1-3.5-14.2 2.1 0.2 4.4-2.3 5.4-5.9 0.9-3.5 0.2-6.8-1.6-7.8 0.7-1.8 1.6-3.6 2.5-5.5 9.9 3 21.4 5.1 33.8 6.1 4.3 3.9 8.7 7.5 13 10.8-0.1 0.2-0.1 0.5-0.1 0.8z"/>
			<path class="s0" d="m154.4 169.4c0 0 0-0.1 0-0.2q3-2.7 6-5.7c5.5-5.5 10.6-11.2 15.2-16.9 4.1 5.9 7.6 11.7 10.3 17.1-9.1 2.7-19.7 4.7-31.5 5.7z"/>
			<path class="s0" d="m154 167.9h-36.6c-1.8-1.7-3.7-3.5-5.5-5.3-5.6-5.6-10.7-11.3-15.3-17 5.9-8.2 13-16.6 21.2-24.8 3.3-3.3 6.7-6.5 10.1-9.5 2.5-0.1 5.2-0.1 7.8-0.1 2.6 0 5.2 0 7.8 0.1 3.4 3 6.7 6.1 10.1 9.5 8.2 8.2 15.3 16.6 21.2 24.8-4.6 5.6-9.7 11.4-15.3 17-1.8 1.8-3.7 3.6-5.5 5.3zm-19-37c0.2-0.2 0.4-0.3 0.7-0.4 0.2 0.1 0.5 0.3 0.7 0.4 1.4 1.1 2 3.1 2.3 4.5h-5.9c0.2-1.4 0.8-3.4 2.2-4.5zm-2.4 5.4h6.1c0.1 0.5 0.1 0.8 0.1 0.8-0.3 0.7-0.5 1.3-0.7 1.9h-4.9c-0.2-0.6-0.4-1.2-0.7-1.9 0 0.1 0-0.3 0.1-0.8zm-15.9 22.2c0 0-0.1-0.1-0.2-0.2-0.4-0.4-1-1.3-0.1-2.7-0.3-0.1-0.5-0.3-0.7-0.6-0.7-1-1.5-3.2 0.2-7.1 0.7-1.6 1.6-4.1 1-7.9q0-0.4 0.3-0.6c0.2-0.1 0.4 0 0.6 0.2 0.2 0.3 4.6 7.3 3.3 12.2-0.4 1.6-1.3 2.8-2.8 3.5h34.6c-1.5-0.8-2.5-1.9-2.9-3.5-1.3-4.9 3.3-11.9 3.5-12.2 0.1-0.2 0.4-0.3 0.6-0.2 0.2 0.1 0.3 0.4 0.3 0.6-0.6 3.7 0.3 6.3 1 7.9 1.8 3.8 0.9 6.1 0.2 7.1-0.2 0.3-0.4 0.5-0.7 0.6 0.9 1.4 0.2 2.3-0.1 2.7-0.1 0.1-0.2 0.2-0.2 0.2zm15.8-12.8c0 0 0.7-0.6 1-2.1h4.3c0.3 1.4 1 2.1 1 2.1q0.2 0.3 0.3 0.6h-6.8c0-0.2 0.1-0.4 0.2-0.6zm-0.8 2.1h7.9c0.5 1.4 0.6 2.2 0.5 2.7h-9c0-0.5 0.1-1.3 0.6-2.7zm-0.2 3.7h8.3c-0.1 1.5 0.1 2.4 0.4 2.9h-9c0.2-0.5 0.4-1.4 0.3-2.9zm6.1-8.8h-4c0.1-0.7 0-1.6-0.2-2.7h4.5c-0.3 1-0.3 2-0.3 2.7zm11.3 20.9h-26.5c0.1-0.7 0.2-1.8 0-2.9-0.1-0.4-0.2-0.8-0.3-1.1h-0.3 27.6-0.3c-0.2 0.4-0.3 0.7-0.3 1.1-0.1 1 0 2.2 0.1 2.9zm-31.5 3.8c0.3-0.7 0.9-1.3 1.7-1.9l1-0.4h31.1l1 0.4c0.8 0.6 1.3 1.3 1.7 1.9z"/>
			<path class="s0" d="m117.2 154.7c-0.3 0.1-0.7 0-0.9-0.3-0.6-1-1.1-2.8 0.3-5.9 0.6-1.4 1.4-3.5 1.3-6.3 1.3 2.3 3 6.3 2.2 9.3-0.3 1.4-1.3 2.4-2.9 3.2z"/>
			<path class="s0" d="m85.3 163.8c2.7-5.5 6.2-11.2 10.3-17.1 4.6 5.7 9.7 11.4 15.2 16.9q3 2.8 6 5.7c0 0 0 0.1 0 0.2-11.7-1.1-22.4-3.1-31.5-5.7z"/>
			<path class="s0" d="m186.5 164.7c7.2 15 8.7 27.4 2.7 33.4-8.1 8.1-27.6 2.7-49.2-12-0.1-0.8-0.1-1.8-0.2-2.7h-2.5q0.6-0.4 1.2-0.9h1.2c-0.1-0.2-0.1-0.5-0.1-0.8 4.4-3.3 8.7-6.9 13-10.8 12.4-1 23.9-3.1 33.9-6.2z"/>
			<path class="s0" d="m116.7 119.9c-8 8-15.1 16.4-21.1 24.7-6.8-8.6-12.3-17.1-16.2-24.9 12.3-4.5 28.4-7.6 46.4-8.4-3 2.7-6.1 5.6-9.1 8.6z"/>
			<path class="s0" d="m78.8 118.6c-7.2-14.9-8.7-27.4-2.7-33.4 5.3-5.3 15.5-4.9 27.9 0.2-0.5 2 1.5 4.8 4.8 6.4 3.2 1.6 6.6 1.5 7.9-0.1 5.8 3.4 11.8 7.5 17.9 12.2-2.4 1.9-4.9 4-7.3 6.1-18.2 0.7-35.2 3.7-48.5 8.6z"/>
			<path class="s0" d="m215.4 140.7c0 4.5-2.7 8.7-7.5 12.5-1.4-1.6-4.8-1.4-8 0.4-3.1 1.8-4.9 4.6-4.3 6.6-2.7 1.1-5.5 2.1-8.6 3.1-2.8-5.7-6.5-11.7-10.7-17.7 6.9-8.6 12.5-17.3 16.6-25.5 14 5.3 22.6 12.6 22.5 20.6z"/>
			<path class="s0" d="m143.9 110c-2.4-2.1-4.9-4.2-7.3-6.1 25.1-19.6 49.2-27.9 58.4-18.7 6.1 6.1 4.6 18.5-2.7 33.4-13.2-4.9-30.1-7.9-48.4-8.6z"/>
			<path class="s0" d="m132.3 171.5c0 0.4-0.1 0.8-0.1 1.2h6.6c0-0.4-0.1-0.8-0.1-1.2 4-0.1 7.9-0.2 11.8-0.5-3.7 3.3-7.5 6.4-11.2 9.3h-7.5c-3.7-2.9-7.5-6-11.2-9.3 3.9 0.3 7.8 0.5 11.7 0.5zm7.2 7.6h-7.7c0.1-0.7 0.1-1.5 0.2-2.2h7.3c0 0.7 0.1 1.4 0.2 2.2zm-0.5-6c0.1 0.8 0.1 1.6 0.2 2.4h-7.1c0.1-0.8 0.1-1.6 0.2-2.4z"/>
			<path class="s0" d="m219 149.5c-2 17.3-9.1 32.9-19.8 45.4-0.9 1.1-1.8 2.1-2.8 3.1-2.3 2.4-4.8 4.7-7.4 6.9-0.9 0.7-1.9 1.5-2.8 2.2-6.5 5-13.8 9.1-21.6 12-1.9 0.6-3.7 1.2-5.3 1.8-0.5 0.1-0.9 0.3-1.4 0.4-6.3 1.8-12.9 2.8-19.7 3.1-1 0.1-2 0.1-3.1 0.1h-0.3c-7.2 0-14.1-0.9-20.8-2.6-0.2 0-0.5-0.1-0.8-0.2-17-4.5-32-14.1-43-27.2-11.3-13.4-18.6-30.4-19.8-49-0.1-1.9-0.2-3.8-0.2-5.7 0-1 0.1-1.9 0.1-2.9 0.2-5.2 0.8-10.3 1.9-15.3 8.4-38 42.2-66.4 82.7-66.4 10.5 0 20.7 1.9 30 5.5 9.8 3.7 18.8 9.3 26.5 16.2 0.9 0.9 1.9 1.8 2.8 2.7 2.5 2.5 4.9 5.1 7.1 7.9 0.8 1 1.6 2.1 2.3 3.1 8.2 11.3 13.6 24.8 15.3 39.4 0.1 1 0.2 2.1 0.3 3.2 0.2 2.2 0.3 4.5 0.3 6.7 0 1.9-0.1 3.7-0.2 5.6-0.1 1.3-0.2 2.7-0.3 4zm-63.6 68.1v0.1h-0.1-39.4-0.1v-0.1c-0.1-0.2-0.4-0.8 0-1.5 0.2-0.3 0.5-0.7 0.9-1.1h37.7c0.5 0.4 0.8 0.8 0.9 1.1 0.5 0.7 0.3 1.3 0.1 1.5zm53.1-63.3c0.4 2-1.4 4.6-4.4 6.4-3.1 1.8-6.4 2-7.8 0.6-1.1 0.5-2.3 1-3.5 1.4-1.7 0.6-3.4 1.2-5.2 1.8 0.3 0.7 0.7 1.4 1 2.1 6.8 15 7.3 26.6 1.4 32.5-5.9 5.9-17.4 5.4-32.5-1.4-6.3-2.9-12.9-6.7-19.7-11.4h-4.6c-6.7 4.6-13.3 8.5-19.7 11.4-15 6.8-26.6 7.3-32.5 1.4-3.4-3.4-4.7-8.7-3.8-15.5-1.7-1.1-2.3-4.3-1.4-7.6 0.9-3.4 3.1-5.9 5.1-5.9 0.5-1.1 0.9-2.3 1.5-3.5 0.3-0.7 0.7-1.4 1-2.1-1.8-0.6-3.5-1.1-5.2-1.8-15.5-5.8-24-13.6-24-22 0-8.2 8.3-15.9 23.3-21.7-0.4-0.7-0.7-1.5-1-2.2-6.8-15-7.3-26.6-1.4-32.5 5.5-5.5 15.8-5.4 29.3 0.1 1.4-1.4 4.6-1.5 7.8 0.1 3.2 1.6 5.1 4.2 4.8 6.1 6 3.5 12.2 7.7 18.4 12.5 9.5-7.4 19-13.3 27.8-17.4 15-6.8 26.6-7.3 32.5-1.4 5.9 5.9 5.4 17.4-1.4 32.5-0.3 0.7-0.7 1.5-1 2.2 15 5.8 23.3 13.5 23.3 21.7 0.2 4.8-2.7 9.5-8.1 13.6zm-77.5 36.4c0.1-0.9 0.1-1.9 0.2-2.8h8.9c0.1 1 0.1 1.9 0.2 2.8zm9.5 3.9c0 0.9 0.1 1.7 0.1 2.5h-10c0-0.8 0.1-1.6 0.1-2.5zm0.2 3.8c0 0.9 0.1 1.8 0.1 2.5h-10.3c0-0.8 0.1-1.6 0.1-2.5zm0.1 3.2c0 1 0.1 1.9 0.1 2.5h-10.6c0-0.6 0-1.5 0.1-2.5zm14.6 4.1v0.8l-0.3 1.3c-0.1 0.1-0.3 0.3-0.4 0.4h-38.2c-0.1-0.1-0.3-0.2-0.4-0.4l-0.3-1.3v-0.8zm-3.3 7.8h-32.9c0-0.3 0.2-1.4 0-3.7h32.9c-0.2 2.3-0.1 3.4 0 3.7zm-11.8-21.6c0 0.7 0.1 1.4 0.1 2.1h-9.7c0-0.7 0.1-1.3 0.1-2.1z"/>
			<path class="s1" d="m149 160.6c-0.2 1.1-0.1 2.2 0 2.9h-26.5c0.1-0.6 0.2-1.8 0-2.9 0-0.4-0.1-0.7-0.3-1.1h-0.3 27.6-0.3c-0.2 0.4-0.3 0.7-0.2 1.1z"/>
			<path class="s1" d="m155.5 216.1c0.4 0.7 0.1 1.3 0 1.5v0.1h-0.1-39.4-0.1v-0.1c-0.1-0.2-0.4-0.8 0-1.5 0.1-0.3 0.4-0.7 0.9-1.1h37.7c0.4 0.4 0.7 0.8 1 1.1z"/>
			<path class="s1" d="m152.1 209.8c-0.2 2.3-0.1 3.4 0 3.7h-32.9c0.1-0.3 0.2-1.4 0-3.7z"/>
			<path class="s1" d="m115.8 205.7h39.6v0.8l-0.3 1.3c-0.1 0.2-0.3 0.3-0.4 0.4h-38.2c-0.1-0.1-0.3-0.3-0.4-0.4l-0.3-1.3z"/>
			<path class="s1" d="m130.4 201.6h10.4c0.1 1 0.1 1.9 0.1 2.5h-10.6c0.1-0.6 0.1-1.5 0.1-2.5z"/>
			<path class="s1" d="m130.8 194.6h9.7c0 0.9 0.1 1.7 0.1 2.5h-10c0.1-0.7 0.1-1.6 0.2-2.5z"/>
			<path class="s1" d="m130.6 198.4h10.1c0 0.9 0.1 1.7 0.1 2.5h-10.3c0-0.8 0-1.6 0.1-2.5z"/>
			<path class="s1" d="m131 191.8h9.4c0 0.8 0.1 1.4 0.1 2.1h-9.7c0-0.6 0.1-1.3 0.2-2.1z"/>
			<path class="s1" d="m140.1 187.9c0.1 0.9 0.1 1.9 0.2 2.8h-9.3c0.1-0.9 0.1-1.8 0.2-2.8z"/>
			<path class="s1" d="m132 176.9h7.3c0.1 0.7 0.1 1.5 0.2 2.2h-7.7c0-0.8 0.1-1.5 0.2-2.2z"/>
			<path class="s1" d="m132.3 173.1h6.7c0.1 0.8 0.1 1.6 0.2 2.4h-7.1c0-0.8 0.1-1.6 0.2-2.4z"/>
			<path class="s1" d="m153.8 167.4h-36.4c0.4-0.6 0.9-1.3 1.7-1.9l1-0.4h31.1l1 0.4c0.8 0.6 1.3 1.3 1.6 1.9z"/>
			<path class="s1" d="m131 154.4c0.3-0.5 0.5-1.4 0.4-2.9h8.3c-0.1 1.5 0.1 2.4 0.4 2.9z"/>
			<path class="s1" d="m131.2 150.5c-0.1-0.5 0-1.3 0.5-2.7h7.9c0.4 1.4 0.5 2.2 0.5 2.7z"/>
			<path class="s1" d="m139 146.3h-6.8q0.2-0.3 0.3-0.6c0 0 0.7-0.7 1-2.1h4.3c0.3 1.5 1 2.1 1 2.1 0 0.2 0.1 0.4 0.2 0.6z"/>
			<path class="s1" d="m137.8 140c-0.2 1.1-0.3 2-0.2 2.7h-4c0.1-0.7 0-1.6-0.2-2.7z"/>
			<path class="s1" d="m133.2 139c-0.2-0.6-0.4-1.2-0.7-1.9 0 0 0-0.3 0.1-0.8h6.1c0.1 0.5 0.1 0.8 0.1 0.8-0.3 0.7-0.5 1.3-0.7 1.9z"/>
			<path class="s1" d="m138.5 135.4h-5.9c0.3-1.4 0.9-3.4 2.3-4.5 0.2-0.1 0.5-0.3 0.7-0.4 0.3 0.1 0.5 0.2 0.7 0.4 1.4 1.1 2 3.1 2.2 4.5z"/>
			<path fill-rule="evenodd" class="s1" d="m216.9 140.7c0 4.8-2.8 9.4-8.2 13.6 0.4 2-1.4 4.7-4.4 6.4-3.1 1.8-6.3 2-7.8 0.6-1.1 0.5-2.3 0.9-3.5 1.4-1.7 0.7-3.4 1.2-5.2 1.8 0.3 0.7 0.7 1.4 1 2.1 6.8 15.1 7.3 26.6 1.4 32.5-5.9 5.9-17.5 5.4-32.5-1.4-6.4-2.9-13-6.8-19.7-11.4h-4.6c-6.8 4.7-13.4 8.5-19.7 11.4-15.1 6.8-26.6 7.3-32.5 1.4-3.4-3.5-4.6-8.7-3.8-15.5-1.7-1.1-2.3-4.2-1.4-7.6 0.9-3.4 3.1-5.9 5.1-5.9 0.5-1.1 1-2.3 1.5-3.5 0.3-0.7 0.7-1.4 1-2.1-1.8-0.6-3.5-1.2-5.2-1.8-15.5-5.8-24-13.6-24-22 0-8.2 8.3-15.9 23.3-21.7-0.3-0.7-0.7-1.5-1-2.2-6.8-15.1-7.3-26.6-1.4-32.5 5.4-5.5 15.8-5.4 29.3 0.1 1.4-1.4 4.7-1.5 7.8 0.1 3.1 1.5 5.1 4.1 4.8 6.1 6 3.5 12.2 7.7 18.4 12.5 9.4-7.4 18.9-13.4 27.8-17.4 15.1-6.8 26.6-7.3 32.5-1.4 5.9 5.9 5.4 17.5-1.4 32.5-0.3 0.7-0.6 1.5-1 2.2 15 5.8 23.3 13.5 23.4 21.7zm-80.2-36.8c2.4 1.9 4.9 4 7.3 6.1 18.2 0.7 35.2 3.7 48.4 8.6 7.2-14.9 8.7-27.4 2.7-33.4-9.3-9.2-33.3-0.9-58.4 18.7zm-4.3 68.8c0-0.4 0.1-0.8 0.1-1.2-4-0.1-7.9-0.2-11.8-0.5 3.7 3.3 7.5 6.4 11.2 9.3h7.5c3.7-2.9 7.5-6 11.2-9.3-3.9 0.3-7.8 0.4-11.8 0.5 0 0.4 0.1 0.8 0.1 1.2zm21.5-4.8c1.8-1.7 3.7-3.5 5.5-5.3 5.6-5.6 10.7-11.3 15.3-17-5.9-8.2-13-16.6-21.2-24.8-3.3-3.3-6.7-6.5-10.1-9.5-2.5-0.1-5.2-0.1-7.8-0.1-2.6 0-5.2 0-7.8 0.1-3.4 3-6.7 6.1-10.1 9.5-8.2 8.2-15.3 16.6-21.2 24.8 4.6 5.6 9.7 11.4 15.3 17 1.8 1.8 3.7 3.6 5.5 5.3zm-68.4-4.3c9 2.7 19.7 4.7 31.4 5.8 0 0 0-0.1 0-0.2q-3-2.7-6-5.7c-5.5-5.5-10.6-11.2-15.2-16.9-4.1 5.9-7.6 11.7-10.2 17zm31.2-43.8c3-2.9 6-5.8 9.1-8.5-18 0.9-34.2 3.9-46.4 8.4 3.9 7.8 9.4 16.3 16.2 24.9 6-8.4 13.1-16.7 21.1-24.8zm37.8 49.5c0 0 0 0.1 0 0.2 11.7-1.1 22.3-3.1 31.4-5.8-2.7-5.5-6.2-11.2-10.3-17.1-4.6 5.7-9.7 11.4-15.2 16.9-2 2-4 3.9-5.9 5.8zm21.1-24.6c6.8-8.6 12.3-17.1 16.2-24.9-12.3-4.5-28.4-7.6-46.4-8.4 3.1 2.7 6.1 5.5 9.1 8.5 8 8 15.1 16.3 21.1 24.8zm-40-40c-2.2 1.6-4.3 3.4-6.4 5.2 2.2-0.1 4.2-0.1 6.4-0.1 2.2 0 4.3 0 6.4 0.1-2.1-1.8-4.3-3.5-6.4-5.2zm-56.6 13.9c13.2-4.9 30.2-7.9 48.4-8.6 2.4-2.1 4.9-4.2 7.3-6.1-6.1-4.8-12.1-8.9-17.9-12.2-1.2 1.6-4.6 1.7-7.9 0.1-3.3-1.6-5.3-4.4-4.8-6.4-12.5-5-22.6-5.5-27.9-0.2-6.1 6-4.6 18.4 2.8 33.4zm5.2 44.7c2.8-5.7 6.5-11.7 10.7-17.7-6.9-8.6-12.5-17.3-16.6-25.5-14 5.3-22.6 12.6-22.6 20.6 0 9.1 11.1 17.2 28.5 22.6zm47.3 20h2.5q-0.6-0.4-1.2-0.9h-1.2c0.1-0.2 0.1-0.5 0.1-0.8-4.4-3.3-8.7-6.9-13-10.8-12.3-1-23.9-3.1-33.8-6.1-0.9 1.8-1.8 3.7-2.5 5.5 1.8 1 2.5 4.3 1.6 7.8-1 3.6-3.3 6.1-5.4 5.9-0.8 6.1 0.3 11 3.5 14.2 8.1 8.1 27.6 2.7 49.2-12 0.1-0.8 0.1-1.8 0.2-2.7zm4.9-0.8h-1.6c0.3 0.2 0.5 0.4 0.8 0.6 0.3-0.2 0.6-0.4 0.8-0.6zm50-17.6c-9.9 3-21.4 5.1-33.8 6.1-4.3 3.9-8.7 7.5-13 10.8 0.1 0.2 0.1 0.5 0.1 0.8h-1.2q-0.6 0.4-1.2 0.9h2.5c0.1 0.9 0.1 1.8 0.2 2.7 21.6 14.7 41.1 20.1 49.2 12 6-6.1 4.5-18.5-2.8-33.3zm29.2-24.2c0-8-8.6-15.3-22.6-20.6-4.1 8.2-9.8 16.9-16.6 25.5 4.2 6 7.8 12 10.7 17.7 3.1-0.9 5.9-2 8.6-3.1-0.6-2 1.2-4.8 4.3-6.6 3.2-1.9 6.6-2 8-0.4 4.8-3.8 7.5-8 7.6-12.5z"/>
			<path fill-rule="evenodd" class="s1" d="m154.4 158.5h-37.8c0 0-0.1-0.1-0.2-0.2-0.3-0.4-1-1.3-0.1-2.7-0.3-0.1-0.5-0.3-0.7-0.6-0.6-1-1.5-3.3 0.2-7.1 0.7-1.6 1.6-4.2 1-7.9 0-0.2 0.1-0.5 0.3-0.6 0.2-0.1 0.5 0 0.6 0.2 0.1 0.3 4.6 7.3 3.3 12.2-0.4 1.6-1.4 2.7-2.8 3.5h34.6c-1.5-0.7-2.5-1.9-2.9-3.5-1.3-4.9 3.3-11.9 3.5-12.2 0.1-0.2 0.4-0.3 0.6-0.2q0.3 0.2 0.3 0.6c-0.6 3.8 0.3 6.3 1 7.9 1.8 3.9 0.9 6.1 0.2 7.1-0.2 0.3-0.4 0.5-0.7 0.6 0.9 1.4 0.3 2.3-0.1 2.7-0.1 0.1-0.2 0.2-0.3 0.2zm-37-4c1.5-0.6 2.4-1.6 2.8-3.1 0.7-2.9-1-7-2.2-9.3 0 2.9-0.7 4.9-1.3 6.3-1.4 3.1-0.9 4.9-0.3 5.9 0.2 0.3 0.6 0.4 1 0.2zm37.3-0.1c0.6-1 1.1-2.8-0.3-5.9-0.6-1.4-1.4-3.5-1.3-6.3-1.2 2.3-3 6.3-2.2 9.3 0.4 1.5 1.3 2.5 2.9 3.1 0.4 0.1 0.7 0 0.9-0.2z"/>
			<path class="s1" d="m109.9 237.7l-2.7-0.9 0.6-1c0.9-1.3 1.9-3 2.7-4.4h0.1c-0.1 1.6-0.4 3.5-0.5 5.1z"/>
			<path class="s1" d="m168.9 46.2c1.2-2.9 2.9-4 4.8-3.3 1.9 0.7 2.4 2.8 1.3 5.6-1.1 2.8-2.9 4.1-4.8 3.4-1.9-0.7-2.3-2.9-1.3-5.7z"/>
			<path class="s1" d="m240.1 143.3c-0.1 2-1.9 3.2-4.9 3.1-3-0.1-4.9-1.4-4.8-3.4 0-2 2-3.2 5-3.1 3 0.1 4.7 1.4 4.7 3.4z"/>
			<path fill-rule="evenodd" class="s1" d="m271.5 130c-0.3 7.1-0.1 14.2-0.1 21.4-4.2 0.3-8.1 0.9-12.1 1-2.9 0-4.3 0.6-4.5 4.1-0.3 4.5-1.6 8.9-2.7 13.3-0.4 1.7-0.9 2.7 1.6 3.5 3.2 1 6.1 3.1 9.3 4.5 2.2 0.9 2.7 2.3 1.8 4.3-2.5 5.7-4.9 11.4-7.6 16.9-0.5 0.9-2.3 2-3.2 1.8-4.4-1-8.6-2.4-12.9-3.7-3.5 4.8-7.1 9.7-10.6 14.7-0.4 0.6 0.2 2.2 0.8 2.9 2.4 2.9 5.1 5.5 7.5 8.5 0.6 0.7 0.6 2.8 0 3.4-5 5.4-10.3 10.6-15.9 16.3-2.7-2.3-5.3-4.4-7.8-6.6-4.6-4.1-5.1-4.1-10.4-0.4-3.3 2.3-6.7 4.5-10.3 7 1.3 4.4 2.7 8.8 3.8 13.3 0.2 0.7-0.6 2.3-1.3 2.6-6.3 2.8-12.5 5.5-18.9 8-0.8 0.3-2.6-0.5-3.1-1.3-1.8-3-3.3-6.2-4.9-9.3-0.9-1.7-1.7-2.5-4.1-1.9-5.3 1.4-10.8 2-16.6 3-0.2 3.4-0.7 7.3-0.7 11.1 0 2.9 0.1 4.9-4 4.8-5.7-0.2-11.3 0.3-17 0.6-3.5 0.2-4.5-2-4.8-4.8-0.3-3.2-0.7-6.3-0.7-9.5 0-2.2-1-2.7-3-2.9-5.3-0.6-10.5-1.6-16.3-2.5-2.2 4.1-4.6 8.5-7.2 13.5-8.1-1.6-15.7-5.4-23.2-9 1.4-4.6 2.9-9 4-13.5 0.2-0.9-0.4-2.6-1.2-3.2-3.8-2.7-7.8-5-11.5-7.7-1.6-1.1-2.4-1.2-3.9 0.1-3.7 3.1-7.4 6-12 9.7-5.8-5.9-11.4-11.6-17-17.2 3.7-4.4 6.7-7.9 9.5-11.6 0.5-0.8 0.5-2.6-0.1-3.5-2.8-4.5-5.9-8.7-9.1-13.5-4.9 1.6-9.9 3.1-15.7 4.9-1.9-4.3-4.1-8.9-6.1-13.5-0.9-2.2-2-4.5-2.6-6.8-0.2-0.8 0.5-2.5 1.3-3 3.4-1.9 7-3.4 10.4-5.3 0.8-0.4 1.7-1.8 1.6-2.6-1.1-5.9-2.5-11.8-3.8-17.9-3.9 0-7.7-0.2-11.5 0.1-3.4 0.3-4.5-1.6-4.6-4.3-0.2-7-0.1-14.1-0.1-20.9 6-0.7 11-1.4 16.2-2.1 1.2-5.7 2.5-11.3 3.5-17 0.1-0.8-0.7-2.2-1.5-2.6-3.1-1.6-6.2-3.3-9.5-4.3-2.3-0.7-2.6-1.8-1.9-3.6 2.5-6.3 5.1-12.5 7.9-18.6 0.3-0.7 2.1-1.4 2.9-1.2 4.3 1.1 8.4 2.5 12.8 3.9 3.6-5.4 7.3-10.9 11.1-16.4-2.8-3.2-5.7-6.3-8.6-9.5-1.1-1.2-1.5-2.4-0.1-3.8 4.8-4.6 9.6-9.2 14.3-13.9 1.6-1.5 2.9-1.5 4.6 0 2.5 2.2 5 4.4 7.8 6.3 1 0.6 3 0.8 3.9 0.2 4.7-3 9.3-6.2 14.3-9.6-1.5-4.6-3.1-9.6-4.8-15.1 7.9-3.1 15.7-6.2 23.5-9.3 2.3 4.7 4.1 8.6 6 12.4 0.8 1.5 1.9 1.7 3 1.5 3.8-1 7.6-1.8 11.5-2.4 2-0.5 4-1 6-1.4 0.3-4.2 0.4-8.8 1-13.2 0.1-1 1.9-2.6 3-2.6 7.1-0.2 14.3-0.1 21.6-0.1 0.7 5.4 1.4 10.7 2.1 16.2 5.9 1.1 12.1 2.3 18.8 3.6 2.3-4.3 4.7-8.9 7.6-14.4 7.6 3 15.5 6.2 23.3 9.3-1.9 5.9-3.6 11-5.1 15.8 4.7 3.3 9.3 6.4 13.9 9.5 0.5 0.3 1.7 0.5 2.1 0.2 3.4-2.8 6.8-5.6 10.1-8.5 1.2-1.1 1.7-1.6 3.3 0 4.6 4.7 9.7 9 14.4 13.6 0.9 0.9 2.1 2.2 0.1 4-3 2.6-5.3 6-7.8 9.1-1.1 1.3-1.4 2.2 0.2 3.9 2.5 2.8 4.5 6.2 6.3 9.6 1.9 3.5 4.4 3.8 7.7 2.6 2.9-1.1 5.7-2.1 8.6-2.8 1-0.2 2.9 0.5 3.2 1.2 2.8 6.3 5.3 12.7 7.7 19.1 0.3 0.7-0.5 2.4-1.2 2.8-4 2.3-8.2 4.3-12.3 6.4 1.2 5.8 2.5 11.6 3.9 18.2 3.6 0.1 7.7 0.4 11.7 0.3 3-0.1 4.3 0.7 4.4 3.8zm-30-13.1l-16.5 2.4 0.6 4.2 4.8-0.7c2-0.3 4.4-1 6.2-1.5v0.1l-3.5 2.1-6.9 4.7 0.6 4.5 16.5-2.4-0.6-4.2-4.8 0.7c-2 0.3-4.5 1-6.2 1.5v-0.1l3.5-2.1 6.8-4.7zm-6.3-19.1l-15.7 5.5 1.5 4.2 6.2-2.2 1.6 4.7-6.2 2.2 1.5 4.2 15.7-5.5-1.5-4.2-5.9 2.1-1.6-4.7 5.9-2.1zm-16.2-12.2c-5 2.8-5.6 7.4-3.5 11.1 1 1.9 2.7 3.2 4.8 3.6l1.3-3.4c-1-0.2-2.1-0.8-2.7-1.9-1-1.9-0.2-4 2.5-5.5 2.6-1.5 5-0.9 6 0.8 0.6 1 0.5 1.9 0.3 3l3.6 0.6c0.5-1.6 0.5-3.7-0.6-5.6-2.1-3.6-6.7-5.4-11.7-2.7zm-2-16.5l-12.9 10.3 6.8 8.6 2.9-2.3-4.1-5.2 2.3-1.8 3.4 4.3 2.9-2.3-3.4-4.3 2-1.6 3.9 5 2.9-2.3zm1.9 80.4c0.2-1.3 0.3-2.6 0.4-4 0.1-1.9 0.2-3.7 0.2-5.6 0-2.3-0.1-4.5-0.3-6.7-0.1-1.1-0.2-2.1-0.3-3.2-1.7-14.6-7.1-28-15.3-39.4-0.7-1.1-1.5-2.1-2.3-3.1-2.2-2.8-4.6-5.4-7.1-7.9-0.9-1-1.8-1.8-2.8-2.7-7.7-6.9-16.6-12.5-26.5-16.2-9.3-3.6-19.4-5.5-30-5.5-40.5 0-74.4 28.4-82.7 66.4-1.1 4.9-1.7 10-1.9 15.3-0.1 1-0.1 1.9-0.1 2.9 0 2 0.1 3.8 0.2 5.7 1.2 18.6 8.4 35.6 19.8 49 11 13.1 26 22.7 43 27.2 0.2 0.1 0.5 0.1 0.8 0.2 6.7 1.7 13.6 2.6 20.8 2.6h0.3c1 0 2.1-0.1 3.1-0.1 6.8-0.2 13.4-1.3 19.7-3.1 0.5-0.1 0.9-0.2 1.4-0.4 1.7-0.6 3.5-1.2 5.3-1.8 7.8-2.9 15.1-7 21.6-12 1-0.7 1.9-1.4 2.8-2.2 2.6-2.1 5.1-4.4 7.4-6.9 1-1 1.9-2.1 2.8-3.1 10.7-12.5 17.8-28.2 19.7-45.4zm-32-104.5l-8.6 14.3 3.8 2.3 3.1-5.2 4.7 2.8 1.9-3.2-4.7-2.8 1.6-2.7 5.5 3.3 1.9-3.2zm-18.1 10.5c4.3 1.7 8.4-0.2 10.4-5.3 2-5.1 0.2-9.1-4.1-10.8-4.3-1.7-8.3 0-10.3 5.1-2 5.1-0.3 9.3 4 11zm-25.9-6.5l11 1.6 0.5-3.7-6.6-0.9 0.4-2.9 5.4 0.7 0.5-3.7-5.4-0.7 0.4-2.6 6.3 0.9 0.5-3.7-10.7-1.5zm-15.4-16.6l0.1 3.7 4.4-0.1 0.2 13 4.4-0.1-0.2-13 4.4-0.1-0.1-3.7zm-18.1 2.8l1.6 8.5c1 5.6 3.7 7.8 8.3 7 4.6-0.9 6.2-3.9 5.2-9.5l-1.6-8.5-4.2 0.8 1.6 9c0.5 2.9-0.1 4.1-1.8 4.4-1.7 0.3-2.7-0.6-3.2-3.5l-1.6-9zm-16.9 5.8l1.4 3.5 4.1-1.5 4.4 12.2 4.1-1.5-4.4-12.2 4.1-1.5-1.3-3.5zm-6.6 3.2l7.4 15 4-1.9-7.4-15zm-14.8 9.1l2 3.1 3.7-2.4 7.1 10.9 3.7-2.4-7.1-10.9 3.7-2.4-2-3.1zm-8.1 13.5c1.6 1.8 3.8 1.9 5.6 1.2l2-0.6c1.5-0.5 2.3-0.9 2.8-0.3 0.5 0.5 0.4 1.2-0.6 2.1-0.9 0.8-2.5 1.3-4 1.4l0.1 3.9c2.4 0 4.7-1 6.3-2.4 3.1-2.7 3.2-6.2 1.3-8.3-1.6-1.8-3.4-2.1-5.5-1.3l-2 0.7c-1.5 0.6-2.4 1-2.9 0.4-0.5-0.6-0.2-1.3 0.6-2 0.9-0.8 1.9-1.1 3.3-1.3l-0.2-3.5c-2.1-0.1-4.2 0.7-5.6 2-2.7 2.4-3.1 5.9-1.2 8zm-15.6 10.8l13 10.5 2.6-3.3-3.8-3c-1.6-1.2-3.7-2.5-5.3-3.5l0.1-0.1 3.9 1.1 8.1 1.8 2.8-3.4-13-10.5-2.6 3.3 3.8 3c1.6 1.2 3.8 2.5 5.3 3.5l-0.1 0.1-3.9-1.1-8.1-1.8zm-4.7 7.5l14.2 8.8 2.3-3.7-14.2-8.8zm-9.2 19.6l15.5 6.2 4-9.9-3.5-1.5-2.3 5.9-12-4.8zm-3.5 12.9l15 8.8 1-4.4-3.2-1.6 1.1-4.5h3.6l1.1-4.5-17.4 1.1zm-2.6 22.5l16.6 1 0.3-4.2-4.8-0.3c-2.1-0.1-4.5 0.1-6.4 0.2v-0.1l3.8-1.4 7.7-3.2 0.3-4.5-16.6-1-0.3 4.2 4.8 0.3c2.1 0.1 4.6-0.1 6.4-0.2v0.1l-3.8 1.4-7.7 3.2zm10.3 19.8c5.4-0.6 8.3-4.1 7.7-8.7-0.6-4.6-4.2-7.3-9.6-6.6-5.5 0.6-8.2 4.1-7.6 8.7 0.5 4.6 4 7.3 9.5 6.6zm-6.2 8.8l16.2-4.1-1.1-4.3-16.2 4.1zm5.8 16.3l3.4-1.3-1.6-4.1 12.1-4.6-1.6-4.1-12.1 4.6-1.6-4.1-3.4 1.3zm5.3 9.8l17-3.6-2.2-3.9-3.5 1-2.3-4.1 2.7-2.4-2.3-4.1-12.1 12.5zm26.2 7.9l-2.6-3.3-3.8 3c-1.6 1.3-3.3 3-4.6 4.4l-0.1-0.1 1.9-3.6 3.5-7.6-2.8-3.5-13 10.5 2.6 3.3 3.8-3c1.6-1.3 3.3-3.1 4.6-4.4l0.1 0.1-1.9 3.6-3.5 7.5 2.8 3.5zm6.3 10c-1.7-1.4-4.1-1.1-5.6 0.6-1.4 1.8-1.3 4.2 0.4 5.6 1.7 1.4 4.1 1.1 5.6-0.6 1.4-1.7 1.3-4.1-0.4-5.6zm25.5 16.2l3.2-1.3c-0.5-1.5-1.5-3.2-3.3-4.2-3.5-1.9-8.1-1-10.7 3.6-2.6 4.7-0.8 8.7 2.7 10.7 1.8 1 3.8 1.2 5.7 0.5l-0.6-3.4c-1 0.3-2.1 0.4-3.2-0.2-1.8-1-2.1-3.1-0.7-5.7 1.4-2.5 3.6-3.2 5.2-2.3 0.9 0.5 1.4 1.3 1.7 2.3zm13.4 0.3l-4.8-1.6-9.6 13.5 4.1 1.4 1.8-2.9 4.2 1.4-0.3 3.4 4.2 1.4zm13 15.4l-5.9-1 2-12.2-4.1-0.7-2.5 15.6 10 1.6zm7.8-12.2l-4.2-0.2-0.6 15.8 4.2 0.2zm15.3 12.9l-2.4-2.4c-0.6 0.8-1.5 1.5-2.7 1.6-2 0.2-3.5-1.3-3.8-4.3-0.3-2.9 1.2-4.7 3-4.9 1-0.1 1.9 0.3 2.7 0.9l1.9-2.9c-1.2-1.1-3-1.9-5.1-1.7-4 0.4-7.4 3.7-6.9 9 0.5 5.4 4.2 7.8 8.2 7.4 2-0.2 3.8-1.1 5.1-2.7zm14.9-9.9l-2.2-7.9-3.9 1.1 2.4 8.3c0.8 2.7 0.3 3.9-1.3 4.4-1.5 0.5-2.5-0.3-3.3-3l-2.4-8.3-4 1.2 2.2 7.9c1.5 5.2 4.2 7 8.5 5.8 4.2-1.3 5.5-4.3 4-9.5zm13.7 2l-5.5-11 3.7-1.9-1.6-3.1-11.2 5.7 1.6 3.1 3.7-1.9 5.5 11zm23.6-24.6c-1.5-1.8-3.9-2-5.6-0.6-1.7 1.4-1.8 3.9-0.3 5.6 1.5 1.8 3.9 2 5.6 0.6 1.7-1.4 1.8-3.9 0.3-5.6zm2.8-150.4l-8.8 9.5 3.2 3 8.8-9.5 3.2 3 2.5-2.7-9.7-9-2.5 2.7zm18.2 141.1l-11.6-3.1-4.4-3.7-2.8 3.4 4.4 3.7 5.2 10.8 2.9-3.6-1.9-3.2c-0.7-1.2-1.3-2.2-2-3.4l0.1-0.1c1.3 0.5 2.5 0.9 3.7 1.4l3.5 1.3zm1.6-18.9c-4.9-2.9-9.2-1.1-11.6 2.9-1.2 2-1.5 4.3-1.1 5.9l6.9 4 3.2-5.5-3.1-1.8-1.2 2.1-2-1.2c0-0.4 0.2-0.9 0.4-1.3 1.5-2.6 3.7-2.9 6.4-1.3 2.6 1.5 3.3 3.9 2.2 5.8-0.7 1.1-1.6 1.6-2.6 1.9l1.3 3.4c1.7-0.4 3.5-1.5 4.7-3.6 2.3-3.9 1.5-8.8-3.5-11.3zm7.1-17.7c-5.1-1.9-9.2 0-10.8 4.3-1.6 4.4 0.3 8.4 5.5 10.3 5.1 1.9 9.1 0 10.7-4.3 1.5-4.3-0.3-8.3-5.4-10.3zm10.5-10.6l-16.3-3.2-2.1 10.5 3.6 0.7 1.2-6.2 12.7 2.5zm-7.1-20.9c-5.4-0.1-8.8 2.9-8.9 7.5-0.1 4.6 3 7.8 8.5 8 5.5 0.2 8.7-2.9 8.8-7.5 0.2-4.6-2.8-7.8-8.4-8z"/>
			<path class="s1" d="m49 186.6l1.5 2.7-1.1 0.3c-1.6 0.4-3.5 1-5.2 1.5l-0.1-0.1c1.2-1.1 2.8-2.5 4-3.6z"/>
			<path class="s1" d="m233.8 175.8c-0.7 1.9-2.8 2.4-5.6 1.4-2.8-1-4.2-2.8-3.5-4.7 0.7-1.8 2.9-2.3 5.7-1.3 2.9 1.1 4.1 2.8 3.4 4.6z"/>
			<path class="s1" d="m37 155.4c-3 0.4-4.9-0.6-5.1-2.6-0.3-2 1.3-3.4 4.3-3.8 3-0.4 5.1 0.6 5.3 2.6 0.3 2-1.4 3.5-4.5 3.8z"/>
			<path class="s1" d="m40.5 115.9l-0.7 3-1.1-0.5c-1.5-0.8-3.3-1.7-4.9-2.4v-0.1c1.7 0 3.8 0 5.4 0z"/>
			<path class="s1" d="m0 322.1h271.1v6.5h-271.1z"/>
			<path class="s1" d="m218.6 299.2h5.1v4.6h-5.1z"/>
			<path class="s1" d="m149.1 304.6c1.8-0.6 2.7-1.6 2.7-3.1 0-0.4-0.1-0.8-0.2-1.2-0.1-0.4-0.3-0.7-0.5-1.1h4.7v5.6c-0.5 0.5-1.1 0.9-1.7 1.2-0.6 0.3-1.3 0.4-2.1 0.4-0.7 0-1.3-0.2-1.8-0.5-0.5-0.3-0.9-0.7-1.1-1.3z"/>
			<path class="s1" d="m175.1 296.1c-0.1-0.3-0.2-0.6-0.2-1 0-0.7 0.3-1.2 0.9-1.6 0.6-0.4 1.4-0.6 2.6-0.6 1.6 0 3.1 0.4 4.5 1.1q2.1 1 3.9 3h-7.7-0.9-2.7c-0.1-0.2-0.3-0.5-0.4-0.9z"/>
			<path class="s1" d="m234.2 304.6c1.8-0.6 2.7-1.6 2.7-3.1 0-0.4-0.1-0.8-0.2-1.2-0.1-0.4-0.3-0.7-0.5-1.1h4.7v5.6c-0.5 0.5-1.1 0.9-1.7 1.2-0.6 0.3-1.3 0.4-2.1 0.4-0.7 0-1.3-0.2-1.8-0.5-0.4-0.3-0.8-0.7-1.1-1.3z"/>
			<path class="s1" d="m48.2 299.2h5.1v4.6h-5.1z"/>
			<path class="s1" d="m67.8 302.3c0.1-0.4 0.2-0.9 0.2-1.4 0-0.4 0-0.8-0.1-1.1 0-0.3-0.1-0.6-0.2-0.8h5.3v4.2c-0.5 0.2-1.1 0.2-1.6 0.3-0.5 0.1-1.1 0.1-1.7 0.1q-0.6 0-1.2 0c-0.4 0-0.7 0-1.1-0.1 0.3-0.3 0.4-0.6 0.4-1.2z"/>
			<path fill-rule="evenodd" class="s1" d="m0 286.7h271.1v29h-271.1zm130.1 12.8h18.8c0.2 0.2 0.4 0.5 0.5 0.8 0.1 0.2 0.2 0.6 0.2 0.9 0 0.6-0.2 1.1-0.7 1.5-0.5 0.4-1.3 0.6-2.3 0.8 0.1 1.1 0.5 2 1 2.8 0.5 0.8 1.2 1.4 2 1.9 0.8 0.5 1.8 0.7 2.9 0.7 0.8 0 1.5-0.1 2.2-0.3 0.6-0.2 1.2-0.4 1.8-0.7v3.6h2.9v-12.1h5.5v12.1h2.9v-12.1h5.5v12.1h2.9v-12.1h13.9v2.8h-3.3q-2 0-3 0.3c-0.8 0.2-1.4 0.5-1.9 0.9-0.4 0.3-0.7 0.7-0.9 1.1q-0.3 0.8-0.3 1.5 0 1.1 0.6 2.1c0.4 0.7 0.9 1.4 1.6 2 0.7 0.6 1.4 1.2 2.2 1.8l1.9-1.7c-1.1-0.7-1.9-1.4-2.5-2q-0.9-0.9-0.9-1.8c0-0.6 0.2-1 0.6-1.3 0.3-0.3 0.7-0.4 1.2-0.5 0.5-0.1 1.2-0.1 2.2-0.1h2.5v7.1h2.9v-12.1h6.4v3.8h-0.4c-0.7 0-1.2 0.1-1.4 0.4-0.2 0.3-0.3 0.6-0.3 1 0 0.4 0.1 0.7 0.3 1.1 0.2 0.3 0.5 0.7 0.9 1 0.3 0.3 0.7 0.6 1.1 0.8q0.6 0.3 1.2 0.3c1 0 1.5-0.6 1.5-1.6v-6.8h4.2v12.1h2.9v-12.1h6.4v4.6h-0.4c-0.7 0-1.2 0.2-1.4 0.4-0.3 0.3-0.4 0.5-0.4 0.9 0 0.4 0.1 0.7 0.3 1.1 0.2 0.3 0.5 0.7 0.9 1 0.3 0.3 0.7 0.6 1.1 0.8 0.4 0.2 0.7 0.3 1.1 0.3 0.4 0 0.8-0.1 1.1-0.4 0.3-0.3 0.4-0.7 0.4-1.3v-0.6h5.1v5.3h3v-12.1h6.5c0.2 0.2 0.4 0.5 0.5 0.8 0.1 0.2 0.2 0.6 0.2 0.9 0 0.6-0.2 1.1-0.7 1.5-0.5 0.4-1.3 0.6-2.3 0.8 0.1 1.1 0.5 2 1 2.8 0.5 0.8 1.2 1.4 2 1.9 0.8 0.5 1.8 0.7 2.9 0.7 0.8 0 1.5-0.1 2.2-0.3 0.6-0.2 1.2-0.4 1.8-0.7v3.6h2.9v-12.1h2.5v-2.2h-37.8c-0.3-0.4-0.5-0.8-0.7-1.2-0.2-0.5-0.3-0.9-0.3-1.3 0-0.6 0.2-1 0.5-1.3 0.3-0.3 0.8-0.5 1.5-0.5q0.9 0 1.8 0.3l0.6-1.9c-0.4-0.1-0.8-0.2-1.3-0.3-0.5-0.1-1-0.1-1.6-0.1-1.2 0-2.3 0.3-3.1 0.8-0.9 0.5-1.3 1.3-1.3 2.4 0 0.5 0.1 1 0.3 1.6 0.2 0.5 0.5 1 0.8 1.5h-15.4c-1-1.1-2-2.2-3.2-3.1-1.2-1-2.6-1.7-4.1-2.3-1.5-0.6-3.1-0.9-4.9-0.9-2 0-3.4 0.4-4.5 1.1-1.1 0.7-1.6 1.7-1.6 2.9 0 0.4 0.1 0.8 0.2 1.2 0.1 0.3 0.3 0.7 0.5 1.1h-5.6c-0.4-1.3-0.8-2.3-1.2-3.1-0.5-0.9-0.9-1.5-1.4-2-0.5-0.5-1-0.8-1.6-1-0.6-0.2-1.2-0.3-1.9-0.3-0.5 0-1 0-1.4 0.1q-0.6 0.1-1.2 0.3l0.8 2.1c0.2-0.1 0.5-0.1 0.8-0.2 0.3-0.1 0.7-0.1 1-0.1 0.6 0 1.1 0.1 1.5 0.4 0.4 0.2 0.8 0.7 1.1 1.3 0.3 0.6 0.6 1.4 0.9 2.3h-34.2zm15.1 3.8v-2.2h-7.1l-1 1.9c0.8 0.4 1.4 0.9 1.9 1.4 0.5 0.5 0.7 1.1 0.7 1.7 0 0.4-0.1 0.8-0.4 1-0.3 0.2-0.7 0.3-1.1 0.3q-1.5 0-2.7-1.5c-0.9-1-1.6-2.4-2.4-4.4l-2.5 0.8q1.2 2.8 2.4 4.5c0.8 1.1 1.7 1.9 2.6 2.3 0.9 0.5 1.9 0.7 2.9 0.7 0.8 0 1.5-0.2 2.1-0.4 0.6-0.2 1.1-0.6 1.5-1.1q0.6-0.7 0.6-1.8c0-0.6-0.1-1.2-0.4-1.7q-0.4-0.9-1.2-1.5c0.3 0 3.4 0 4.1 0zm-48.9-6.3v2.2h3v4.6h-0.4c-0.7 0-1.2 0.2-1.4 0.4-0.3 0.3-0.4 0.5-0.4 0.9 0 0.4 0.1 0.7 0.3 1.1 0.2 0.3 0.5 0.7 0.9 1 0.3 0.3 0.7 0.6 1.1 0.8 0.4 0.2 0.7 0.3 1.1 0.3 0.4 0 0.8-0.1 1.1-0.4 0.3-0.3 0.4-0.7 0.4-1.3v-0.6h5.3v5.3h3v-12.1h5.5v12.1h2.9v-12.1h2.5v-2.2zm-70.9 2.6h10.7v2.8h-3.3q-2 0-3 0.3c-0.8 0.2-1.4 0.5-1.9 0.9-0.4 0.3-0.7 0.6-0.9 1.1q-0.3 0.7-0.3 1.5 0 1.1 0.6 2.1c0.4 0.7 0.9 1.4 1.6 2 0.7 0.6 1.4 1.2 2.2 1.8l1.9-1.7c-1.1-0.7-1.9-1.4-2.5-2q-0.9-0.9-0.9-1.8c0-0.6 0.2-1 0.6-1.3 0.3-0.3 0.7-0.4 1.2-0.5 0.5-0.1 1.2-0.1 2.2-0.1h2.5v7.1h2.9v-12.1h6.5v4.6h-0.4c-0.7 0-1.2 0.2-1.4 0.4-0.3 0.3-0.4 0.5-0.4 0.9 0 0.4 0.1 0.7 0.3 1.1 0.2 0.3 0.5 0.7 0.9 1 0.3 0.3 0.7 0.6 1.1 0.8 0.4 0.2 0.7 0.3 1.1 0.3 0.4 0 0.8-0.1 1.1-0.4 0.3-0.3 0.4-0.7 0.4-1.3v-0.6h5.1v5.3h3v-12.1h8.6c0.1 0.2 0.1 0.4 0.2 0.7 0.1 0.2 0.1 0.5 0.1 0.8 0 0.3 0 0.7-0.1 1.1-0.1 0.4-0.3 0.7-0.5 1-0.5-0.5-1.2-0.8-2-0.8-0.7 0-1.2 0.2-1.5 0.5-0.3 0.3-0.4 0.6-0.4 1 0 0.2 0.1 0.5 0.2 0.8 0.1 0.3 0.3 0.6 0.7 1.1 0.6 0.8 1.5 1.6 2.6 2.7 1.1 1.1 2.4 2.2 3.8 3.3l1.9-1.7c-1-0.7-1.9-1.5-2.8-2.2-0.9-0.8-1.6-1.5-2.3-2.2 0.3-0.1 0.6-0.2 0.8-0.3 0.5 0.2 1.2 0.4 2 0.5 0.8 0.1 1.7 0.2 2.6 0.2 0.6 0 1.1-0.1 1.6-0.1 0.5 0 1-0.1 1.5-0.2v5.6h2.9v-12.1h5.5v12.1h2.9v-12.1h2.5v-2.2h-2.7c-0.4-1.3-0.8-2.3-1.2-3.1-0.5-0.9-0.9-1.5-1.4-2-0.5-0.5-1-0.8-1.6-1-0.6-0.2-1.2-0.3-1.9-0.3-0.5 0-1 0-1.4 0.1q-0.6 0.1-1.2 0.3l0.8 2.1c0.2-0.1 0.5-0.1 0.8-0.2 0.3-0.1 0.7-0.1 1-0.1 0.6 0 1.1 0.1 1.5 0.4 0.4 0.2 0.8 0.7 1.1 1.3 0.3 0.6 0.6 1.4 0.9 2.3h-56.4z"/>
			<path class="s1" d="m102 299.2h5.1v4.6h-5.1z"/>
		</g>
		<g>
			<g>
				<path class="s1" d="m364.1 79.8v5.1h-5.9c0.5 0.5 0.7 1.2 0.7 2.3v15q0 6.9-6.9 6.9h-8.5v17c0 1.2 0.2 1.9 0.5 2.2 0.3 0.3 1.1 0.5 2.2 0.5h3.8c1.1 0 1.8-0.2 2.2-0.5 0.3-0.3 0.5-1.1 0.5-2.2v-10.5h6v11.4q0 6.9-6.9 6.9h-7.5q-6.9 0-6.9-6.9v-31.9h6v8.9h6.7c1.1 0 1.8-0.2 2.2-0.5 0.3-0.3 0.5-1.1 0.5-2.2v-13.7c0-1.2-0.2-1.9-0.5-2.2-0.3-0.3-1.1-0.5-2.2-0.5h-18.4v-5.1z"/>
				<path class="s1" d="m379.6 79.8v5.1h-6.5v49h-5.9v-49h-6.5v-5.1z"/>
				<path fill-rule="evenodd" class="s1" d="m407.3 112h-15.8c-1.1 0-1.8 0.2-2.2 0.5-0.3 0.3-0.5 1.1-0.5 2.2v11.3c0 1.2 0.2 1.9 0.5 2.2 0.3 0.3 1.1 0.5 2.2 0.5h7.1c1.1 0 1.8-0.2 2.2-0.5 0.3-0.3 0.5-1.1 0.5-2.2v-5.1h6v6.1q0 6.6-6.3 6.9l6.3 12.2h-6.3l-5.5-11.3-5.5 11.2h-6.3l6.4-12.2h-0.5q-6.9 0-6.9-6.9v-13.3c0-2.5 1.1-3.8 3.2-4v-0.2c-2.1-0.2-3.2-1.5-3.2-4.1v-20.4h-6.5v-5.1h37.6v5.1h-6.5zm-18.5-16v8.2c0 1.1 0.2 1.8 0.5 2.2 0.3 0.4 1.1 0.5 2.2 0.5h8.4c-6-9.6-9.3-15-10-16.2-0.7-1.2-1.3-2.6-2-4q0.9 5.6 0.9 9.3zm12.5-11.1h-10.3c5.3 8.3 8.2 13.1 8.9 14.3 0.7 1.2 1.4 2.6 2.1 4.3-0.5-2.1-0.7-4.6-0.7-7.7z"/>
				<path class="s1" d="m429.4 79.8v5.1h-6.5v49h-6v-49h-6.5v-5.1h6.5v-8.8c0-1.1-0.2-1.8-0.5-2.2-0.3-0.3-1.1-0.5-2.2-0.5h-4.2c-1.2 0-2 0.2-2.3 0.5-0.3 0.3-0.4 1.1-0.4 2.2v4.9h-6v-5.9q0-6.9 6.9-6.9h7.8q6.9 0 6.9 6.9v9.7h6.5z"/>
				<path fill-rule="evenodd" class="s1" d="m466.6 79.8v5.1h-6.5v49h-6v-7.6c-0.6 0.5-1.5 0.8-2.8 0.8h-13.7q-6.9 0-6.9-6.9v-18.9h7c1.1 0 1.8-0.2 2.2-0.5 0.4-0.3 0.5-1.1 0.5-2.2v-11c0-1.3-0.2-2.1-0.6-2.3-0.4-0.3-1.5-0.4-3.4-0.4h-12.2v-5.1zm-12.5 39.2v-34.1h-8.4c0.5 0.5 0.7 1.2 0.7 2.3v12.3q0 6.9-6.9 6.9h-2.8v12.8c0 1.2 0.2 1.9 0.5 2.2 0.3 0.3 1.1 0.5 2.2 0.5h11.7c1.2 0 1.9-0.2 2.3-0.7 0.5-0.3 0.7-1.1 0.7-2.2z"/>
				<path fill-rule="evenodd" class="s1" d="m508.6 79.8v5.1h-6.5v49h-6v-10.2l-9.7 14.5h-6.6l9.4-13.7h-1.4q-6.9 0-6.9-6.9v-32.7h-6.5v-5.1zm-12.5 36.6v-31.5h-9.1v31.7c0 1.2 0.2 1.9 0.5 2.2 0.3 0.3 1.1 0.5 2.2 0.5h3.5c1.1 0 1.9-0.2 2.3-0.7 0.4-0.3 0.6-1.1 0.6-2.2z"/>
				<path class="s1" d="m524.2 79.8v5.1h-6.5v49h-5.9v-49h-6.5v-5.1h5.4c-1.6-1.3-3.6-3-5.9-5.1l-12.2-11.5h7.9l3.7 4c4.3 4.8 7.6 9 9.8 12.6h0.3c-1.2-2.4-2.3-4.7-3.2-7-0.4-1-1.7-4.2-4-9.6h6.4l3.9 16.6z"/>
				<path fill-rule="evenodd" class="s1" d="m562.8 79.8v5.1h-6.5v49h-6v-7.6c-0.6 0.5-1.6 0.8-2.8 0.8h-13.7q-6.9 0-6.9-6.9v-7c0-2.5 1.1-3.8 3.2-4v-0.2c-2.1-0.2-3.2-1.5-3.2-4.1v-6.3q0-6.9 6.9-6.9h2.8v-6.8h-15.7v-5.1zm-12.5 39.2v-34.1h-7.7v11.9h-7c-1.2 0-1.9 0.2-2.2 0.5-0.3 0.3-0.5 1.1-0.5 2.2v4.2c0 1.1 0.2 1.8 0.5 2.2 0.3 0.3 1.1 0.5 2.2 0.5h4.9v5.1h-4.9c-1.2 0-1.9 0.2-2.2 0.5-0.3 0.3-0.5 1.1-0.5 2.2v5c0 1.2 0.2 1.9 0.5 2.2 0.3 0.3 1.1 0.5 2.2 0.5h11.7c1.1 0 1.9-0.2 2.3-0.7 0.4-0.3 0.7-1.1 0.7-2.2z"/>
				<path class="s1" d="m578.4 79.8v5.1h-6.5v49h-5.9v-49h-6.5v-5.1h5.2c-2-2.1-4.2-4.8-6.6-8.3l-5.9-8.3h7.2l11.6 16.6z"/>
				<path class="s1" d="m625 63.2q6.9 0 6.9 6.9v5.8h-6v-4.9c0-1.1-0.2-1.8-0.5-2.2-0.3-0.3-1.1-0.5-2.2-0.5h-33c-1.1 0-1.8 0.2-2.2 0.5-0.4 0.3-0.5 1.1-0.5 2.2v8.8h6.5v5.1h-6.5v49h-6v-49h-6.5v-5.1h6.5v-9.8q0-6.9 6.9-6.9h36.6z"/>
				<path fill-rule="evenodd" class="s1" d="m638.5 79.8v5.1h-6.5v49h-6v-49h-9v35.3q0 6.9-6.9 6.9h-7.9q-6.9 0-6.9-6.9v-16.5q0-6.9 6.9-6.9h8.8v-11.9h-20.4v-5.1zm-34.5 42.2h4.3c1.2 0 1.9-0.2 2.2-0.5 0.3-0.3 0.5-1.1 0.5-2.2v-17.3h-7c-1.1 0-1.8 0.2-2.2 0.5-0.3 0.3-0.5 1.1-0.5 2.2v14.6c0 1.2 0.2 1.9 0.5 2.2 0.4 0.3 1.1 0.5 2.2 0.5z"/>
				<path class="s1" d="m682.6 84.9h-20.8v7.6c0.6-0.5 1.5-0.8 2.8-0.8h5.5q6.9 0 6.9 6.9v21.7q0 6.9-6.9 6.9h-4.8v-5.2h3c1.2 0 1.9-0.2 2.2-0.5 0.3-0.3 0.5-1.1 0.5-2.2v-19.8c0-1.1-0.2-1.8-0.5-2.2-0.3-0.3-1.1-0.5-2.2-0.5h-3.5c-1.2 0-1.9 0.2-2.3 0.6-0.4 0.4-0.6 1.2-0.6 2.3v34.1h-6v-7.6c-0.6 0.5-1.6 0.8-2.8 0.8h-5.5q-6.9 0-6.9-6.9v-21.5q0-6.9 6.9-6.9h4.8v5.1h-3c-1.1 0-1.8 0.2-2.2 0.5-0.3 0.3-0.5 1.1-0.5 2.2v19.7c0 1.2 0.2 1.9 0.5 2.2 0.3 0.3 1.1 0.5 2.2 0.5h3.5c1.1 0 1.9-0.2 2.3-0.7 0.4-0.4 0.7-1.2 0.7-2.3v-34h-20.8v-5.1h47.6v5.1z"/>
				<path class="s1" d="m698.2 79.8v5.1h-6.5v49h-6v-49h-6.5v-5.1h6.5v-8.8c0-1.1-0.2-1.8-0.5-2.2-0.3-0.3-1.1-0.5-2.2-0.5h-18.3c-1.2 0-2 0.2-2.3 0.5-0.3 0.3-0.4 1.1-0.4 2.2v4.9h-6v-5.9q0-6.9 6.9-6.9h21.9q6.9 0 6.9 6.9v9.7h6.5z"/>
				<path fill-rule="evenodd" class="s1" d="m753.7 79.8v5.1h-6.5v49h-5.9v-24.8h-23.6v17c0 1.2 0.2 1.9 0.5 2.2 0.3 0.3 1.1 0.5 2.2 0.5h3.8c1.1 0 1.8-0.2 2.2-0.5 0.3-0.3 0.5-1.1 0.5-2.2v-10.5h6v11.4q0 6.9-6.9 6.9h-7.5q-6.9 0-6.9-6.9v-31.9h6v8.9h6.7c1.1 0 1.8-0.2 2.2-0.5 0.3-0.3 0.5-1.1 0.5-2.2v-13.7c0-1.2-0.2-1.9-0.5-2.2-0.3-0.3-1.1-0.5-2.2-0.5h-18.3v-5.1zm-12.5 5.2h-8.9c0.5 0.5 0.7 1.2 0.7 2.3v11.6c0 2.7-0.3 4.4-1 5.2h9.2z"/>
				<path class="s1" d="m740.6 63.2h6.3v7.5h-6.3z"/>
				<path class="s1" d="m821.1 79.8v5.1h-6.5v49h-6v-7.6c-0.6 0.5-1.6 0.8-2.8 0.8h-13q-6.9 0-6.9-6.9v-11.1h-24.1v17c0 1.2 0.2 1.9 0.5 2.2 0.3 0.3 1.1 0.5 2.2 0.5h3.8c1.1 0 1.8-0.2 2.2-0.5 0.3-0.3 0.5-1.1 0.5-2.2v-10.5h6v11.4q0 6.9-6.9 6.9h-7.5q-6.9 0-6.9-6.9v-31.9h6v8.9h6.7c1.1 0 1.8-0.2 2.2-0.5 0.3-0.3 0.5-1.1 0.5-2.2v-13.7c0-1.2-0.2-1.9-0.5-2.2-0.3-0.3-1.1-0.5-2.2-0.5h-18.4v-5.1h32.6v5.1h-6.3c0.5 0.5 0.7 1.2 0.7 2.3v11.6c0 2.7-0.3 4.4-1 5.2h18c1.2 0 1.9-0.2 2.2-0.5 0.3-0.3 0.5-1.1 0.5-2.2v-14.1c0-1.1-0.2-1.8-0.5-2.2-0.3-0.3-1.1-0.5-2.2-0.5h-0.4c-1.1 0-1.8 0.2-2.2 0.5-0.4 0.3-0.5 1.1-0.5 2.2v3.9h-4.5v-4.9q0-6.9 6.6-6.9h2.9q6.9 0 6.9 6.9v16q0 6.9-6.9 6.9h-4.1v10.2c0 1.2 0.2 1.9 0.5 2.2 0.3 0.3 1.1 0.5 2.2 0.5h11c1.1 0 1.9-0.2 2.3-0.7 0.4-0.4 0.7-1.2 0.7-2.3v-39.2z"/>
				<path class="s1" d="m836.6 79.8v5.1h-6.5v49h-5.9v-49h-6.5v-5.1z"/>
				<path fill-rule="evenodd" class="s1" d="m878.1 79.8v5.1h-6.5v49h-6v-37h-7.7v23.4q0 6.9-6.9 6.9h-6.2q-6.9 0-6.9-6.9v-21.7q0-6.9 6.9-6.9h20.7v-6.8h-32.4v-5.1zm-26.2 39.5v-22.5h-5.2c-1.1 0-1.8 0.2-2.2 0.5-0.3 0.3-0.5 1.1-0.5 2.2v19.7c0 1.2 0.2 1.9 0.5 2.2 0.3 0.3 1.1 0.5 2.2 0.5h2.5c1.2 0 1.9-0.2 2.2-0.5 0.4-0.2 0.5-1 0.5-2.1z"/>
				<path class="s1" d="m933.5 84.9h-20.8v7.6c0.6-0.5 1.5-0.8 2.8-0.8h5.5q6.9 0 6.9 6.9v21.7q0 6.9-6.9 6.9h-4.8v-5.2h3c1.2 0 1.9-0.2 2.2-0.5 0.3-0.3 0.5-1.1 0.5-2.2v-19.8c0-1.1-0.2-1.8-0.5-2.2-0.3-0.3-1.1-0.5-2.2-0.5h-3.5c-1.2 0-1.9 0.2-2.3 0.6-0.4 0.4-0.6 1.2-0.6 2.3v34.1h-6v-7.6c-0.6 0.5-1.6 0.8-2.8 0.8h-5.5q-6.9 0-6.9-6.9v-21.5q0-6.9 6.9-6.9h4.8v5.1h-3c-1.1 0-1.8 0.2-2.2 0.5-0.3 0.3-0.5 1.1-0.5 2.2v19.7c0 1.2 0.2 1.9 0.5 2.2 0.3 0.3 1.1 0.5 2.2 0.5h3.5c1.1 0 1.9-0.2 2.3-0.7 0.4-0.4 0.7-1.2 0.7-2.3v-34h-20.8v-5.1h47.6v5.1z"/>
				<path class="s1" d="m949.1 79.8v5.1h-6.5v49h-5.9v-49h-6.5v-5.1z"/>
				<path class="s1" d="m991.6 79.8v5.1h-5.9v49h-6v-37h-5.5c-1.2 0-1.9 0.2-2.2 0.5-0.3 0.3-0.5 1.1-0.5 2.2v17.9h-6v-18c0-1.1-0.2-1.8-0.5-2.2-0.3-0.3-1.1-0.5-2.2-0.5h-2.8c-1.1 0-1.8 0.2-2.2 0.5-0.3 0.3-0.5 1.1-0.5 2.2v26.3c0 1.1 0.2 1.8 0.5 2.2 0.3 0.4 1.1 0.5 2.2 0.5h5.3v5.4h-7.1q-6.9 0-6.9-6.9v-28.4q0-6.9 6.9-6.9h6.3c2.6 0 3.9 1.1 4.1 3.2h0.2c0.2-2.1 1.5-3.2 4-3.2h7v-6.8h-34v-5.1z"/>
				<path class="s1" d="m1007.2 79.8v5.1h-6.5v49h-6v-49h-6.5v-5.1h6.5v-8.8c0-1.1-0.2-1.8-0.5-2.2-0.3-0.3-1.1-0.5-2.2-0.5h-4.2c-1.2 0-2 0.2-2.3 0.5-0.3 0.3-0.4 1.1-0.4 2.2v4.9h-6v-5.9q0-6.9 6.9-6.9h7.8q6.9 0 6.9 6.9v9.7h6.5z"/>
				<path class="s1" d="m1051.3 84.9h-20.8v7.6c0.6-0.5 1.5-0.8 2.8-0.8h5.5q6.9 0 6.9 6.9v21.7q0 6.9-6.9 6.9h-4.8v-5.2h3c1.2 0 1.9-0.2 2.2-0.5 0.3-0.3 0.5-1.1 0.5-2.2v-19.8c0-1.1-0.2-1.8-0.5-2.2-0.3-0.3-1.1-0.5-2.2-0.5h-3.5c-1.2 0-1.9 0.2-2.3 0.6-0.4 0.4-0.6 1.2-0.6 2.3v34.1h-6v-7.6c-0.6 0.5-1.6 0.8-2.8 0.8h-5.5q-6.9 0-6.9-6.9v-21.5q0-6.9 6.9-6.9h4.8v5.1h-3c-1.1 0-1.8 0.2-2.2 0.5-0.3 0.3-0.5 1.1-0.5 2.2v19.7c0 1.2 0.2 1.9 0.5 2.2 0.3 0.3 1.1 0.5 2.2 0.5h3.5c1.1 0 1.9-0.2 2.3-0.7 0.4-0.4 0.7-1.2 0.7-2.3v-34h-20.8v-5.1h47.6v5.1z"/>
				<path class="s1" d="m1074 96.8h-11c-1.1 0-1.8 0.2-2.2 0.5-0.3 0.3-0.5 1.1-0.5 2.2v26.5c0 1.2 0.2 1.9 0.5 2.2 0.3 0.3 1.1 0.5 2.2 0.5h3c1.1 0 1.8-0.2 2.2-0.5 0.3-0.3 0.5-1.1 0.5-2.2v-9h6v10q0 6.9-6.9 6.9h-6.6q-6.9 0-6.9-6.9v-28.4q0-6.9 6.9-6.9h6.9v-6.8h-20.3v-5.1h32.5v5.1h-6.3z"/>
			</g>
			<g>
				<g>
					<path class="s1" d="m352.2 275.8h8.8v52.8h-9l-11.3-35v35h-8.9v-52.8h9.3l11.1 34.5z"/>
					<path fill-rule="evenodd" class="s1" d="m391.2 328.6l-2-11h-11.5l-1.8 11h-9.6l10.6-52.8h13l11.1 52.8zm-12.3-18.3h9l-4.6-25.3z"/>
					<path class="s1" d="m430.5 275.8v7.4h-9.3v45.4h-9.6v-45.4h-9.2v-7.4z"/>
					<path class="s1" d="m435.9 275.8h9.6v52.8h-9.6z"/>
					<path fill-rule="evenodd" class="s1" d="m463.2 275.8h10.2c6.1 0 9.1 2.8 9.1 8.3v36.2c0 5.5-3 8.3-9.1 8.3h-10.2c-6.1 0-9.1-2.8-9.1-8.3v-36.3c0-5.5 3-8.2 9.1-8.2zm9.7 43.1v-33.5c0-0.9-0.2-1.5-0.5-1.8-0.3-0.3-0.9-0.5-1.8-0.5h-4.4c-0.9 0-1.6 0.2-1.9 0.5-0.3 0.3-0.5 0.9-0.5 1.8v33.5c0 0.9 0.2 1.5 0.5 1.8 0.3 0.3 1 0.5 1.9 0.5h4.4c0.9 0 1.5-0.2 1.8-0.5 0.4-0.3 0.5-0.9 0.5-1.8z"/>
					<path class="s1" d="m511.2 275.8h8.8v52.8h-9l-11.3-35v35h-8.9v-52.8h9.3l11.1 34.5z"/>
					<path fill-rule="evenodd" class="s1" d="m550.1 328.6l-2-11h-11.5l-1.8 11h-9.6l10.6-52.8h13l11.1 52.8zm-12.3-18.3h9l-4.6-25.3z"/>
					<path class="s1" d="m574.6 321.2h14.1v7.4h-23.7v-52.8h9.6z"/>
					<path class="s1" d="m607.7 275.8h9.6v52.8h-9.6z"/>
					<path class="s1" d="m646.7 275.8h8.8v52.8h-9l-11.3-35v35h-8.9v-52.8h9.3l11.1 34.5z"/>
					<path class="s1" d="m680.7 318.9v-11.3c0-0.9-0.2-1.5-0.5-1.8-0.3-0.3-0.9-0.5-1.8-0.5h-6.8c-5.7 0-8.6-2.8-8.6-8.4v-13c0-5.5 3-8.3 9-8.3h9.2c6 0 9 2.8 9 8.3v7.4h-9.7v-6c0-0.9-0.2-1.5-0.5-1.8-0.3-0.3-0.9-0.5-1.8-0.5h-3.2c-0.9 0-1.6 0.2-1.9 0.5-0.3 0.3-0.5 0.9-0.5 1.8v10.7c0 0.9 0.2 1.5 0.5 1.8 0.3 0.3 1 0.5 1.9 0.5h6.6c5.9 0 8.8 2.7 8.8 8.2v13.8c0 5.5-3 8.3-9.1 8.3h-9c-6.1 0-9.1-2.8-9.1-8.3v-7.3h9.6v5.9c0 0.9 0.2 1.5 0.5 1.8 0.3 0.3 1 0.5 1.9 0.5h3.2c0.9 0 1.5-0.2 1.8-0.5 0.4-0.3 0.5-0.9 0.5-1.8z"/>
					<path class="s1" d="m722.3 275.8v7.4h-9.3v45.4h-9.6v-45.4h-9.2v-7.4z"/>
					<path class="s1" d="m727.7 275.8h9.6v52.8h-9.6z"/>
					<path class="s1" d="m770.7 275.8v7.4h-9.3v45.4h-9.6v-45.4h-9.2v-7.4z"/>
					<path class="s1" d="m794.3 275.8h9.6v44.5c0 5.5-3 8.3-9.1 8.3h-10.2c-6.1 0-9.1-2.8-9.1-8.3v-44.5h9.6v43.2c0 0.9 0.2 1.5 0.5 1.8 0.3 0.3 0.9 0.5 1.8 0.5h4.4c0.9 0 1.6-0.2 1.9-0.5 0.3-0.3 0.5-0.9 0.5-1.8v-43.2z"/>
					<path class="s1" d="m836.8 275.8v7.4h-9.3v45.4h-9.6v-45.4h-9.2v-7.4z"/>
					<path class="s1" d="m851.4 321.2h16.1v7.4h-25.8v-52.8h25.1v7.4h-15.4v14.6h13v7.4h-13z"/>
					<path fill-rule="evenodd" class="s1" d="m896 275.8h10.2c6.1 0 9.1 2.8 9.1 8.3v36.2c0 5.5-3 8.3-9.1 8.3h-10.2c-6.1 0-9.1-2.8-9.1-8.3v-36.3c0-5.5 3.1-8.2 9.1-8.2zm9.8 43.1v-33.5c0-0.9-0.2-1.5-0.5-1.8-0.3-0.3-0.9-0.5-1.8-0.5h-4.5c-0.9 0-1.6 0.2-1.9 0.5-0.3 0.3-0.5 0.9-0.5 1.8v33.5c0 0.9 0.2 1.5 0.5 1.8 0.3 0.3 1 0.5 1.9 0.5h4.4c0.9 0 1.5-0.2 1.8-0.5q0.6-0.5 0.6-1.8z"/>
					<path class="s1" d="m949.2 283.1h-15.9v16.1h13v7h-13v22.3h-9.7v-52.8h25.6z"/>
					<path class="s1" d="m992.7 275.8v7.4h-9.3v45.4h-9.6v-45.4h-9.2v-7.4z"/>
					<path class="s1" d="m1007.3 321.2h16.1v7.4h-25.8v-52.8h25.1v7.4h-15.4v14.6h13v7.4h-13z"/>
					<path class="s1" d="m1056.9 293.3h-9.7v-8.2c0-0.9-0.2-1.5-0.5-1.8-0.3-0.3-0.9-0.5-1.8-0.5h-3.9c-0.9 0-1.5 0.2-1.8 0.5-0.3 0.3-0.5 0.9-0.5 1.8v34.3c0 0.9 0.2 1.5 0.5 1.8 0.3 0.3 0.9 0.5 1.8 0.5h3.9c0.9 0 1.5-0.2 1.8-0.5 0.3-0.3 0.5-0.9 0.5-1.8v-8h9.7v9c0 5.5-3 8.3-9.1 8.3h-9.8c-6.1 0-9.1-2.8-9.1-8.3v-36.4c0-5.5 3-8.3 9.1-8.3h9.8c6.1 0 9.1 2.8 9.1 8.3z"/>
					<path class="s1" d="m1084.6 275.8h9.6v52.8h-9.6v-22.6h-10.9v22.5h-9.6v-52.8h9.6v22.9h10.9z"/>
					<path class="s1" d="m1123.1 275.8h8.8v52.8h-9l-11.3-35v35h-8.9v-52.8h9.3l11.1 34.5z"/>
					<path fill-rule="evenodd" class="s1" d="m1149.2 275.8h10.2c6.1 0 9.1 2.8 9.1 8.3v36.2c0 5.5-3 8.3-9.1 8.3h-10.2c-6.1 0-9.1-2.8-9.1-8.3v-36.3c0-5.5 3-8.2 9.1-8.2zm9.7 43.1v-33.5c0-0.9-0.2-1.5-0.5-1.8-0.3-0.3-0.9-0.5-1.8-0.5h-4.4c-0.9 0-1.6 0.2-1.9 0.5-0.3 0.3-0.5 0.9-0.5 1.8v33.5c0 0.9 0.2 1.5 0.5 1.8 0.3 0.3 1 0.5 1.9 0.5h4.4c0.9 0 1.5-0.2 1.8-0.5 0.3-0.3 0.5-0.9 0.5-1.8z"/>
					<path class="s1" d="m1186.3 321.2h14.1v7.4h-23.7v-52.8h9.6z"/>
					<path fill-rule="evenodd" class="s1" d="m1213.8 275.8h10.2c6.1 0 9.1 2.8 9.1 8.3v36.2c0 5.5-3 8.3-9.1 8.3h-10.2c-6.1 0-9.1-2.8-9.1-8.3v-36.3c0-5.5 3.1-8.2 9.1-8.2zm9.7 43.1v-33.5c0-0.9-0.2-1.5-0.5-1.8-0.3-0.3-0.9-0.5-1.8-0.5h-4.4c-0.9 0-1.6 0.2-1.9 0.5-0.3 0.3-0.5 0.9-0.5 1.8v33.5c0 0.9 0.2 1.5 0.5 1.8 0.3 0.3 1 0.5 1.9 0.5h4.4c0.9 0 1.5-0.2 1.8-0.5 0.4-0.3 0.5-0.9 0.5-1.8z"/>
					<path class="s1" d="m1269 292h-9.7v-6.9c0-0.9-0.2-1.5-0.5-1.8-0.3-0.3-0.9-0.5-1.8-0.5h-3.9c-0.9 0-1.5 0.2-1.8 0.5-0.3 0.3-0.5 0.9-0.5 1.8v34.3c0 0.9 0.2 1.5 0.5 1.8 0.3 0.3 0.9 0.5 1.8 0.5h3.9c0.9 0 1.5-0.2 1.8-0.5 0.3-0.3 0.5-0.9 0.5-1.8v-11.7h-4.2v-6.8h13.9v19.5c0 5.5-3 8.3-9.1 8.3h-9.8c-6.1 0-9.1-2.8-9.1-8.3v-36.4c0-5.5 3-8.3 9.1-8.3h9.8c6.1 0 9.1 2.8 9.1 8.3z"/>
					<path class="s1" d="m1294.7 328.6h-9.6v-16.7l-12.3-36.1h9.8l7.2 27.1 6.8-27.1h9.8l-11.6 35.8v17z"/>
					<path class="s1" d="m1352.5 293.3h-9.7v-8.2c0-0.9-0.2-1.5-0.5-1.8-0.3-0.3-0.9-0.5-1.8-0.5h-3.9c-0.9 0-1.5 0.2-1.8 0.5-0.3 0.3-0.5 0.9-0.5 1.8v34.3c0 0.9 0.2 1.5 0.5 1.8 0.3 0.3 0.9 0.5 1.8 0.5h3.9c0.9 0 1.5-0.2 1.8-0.5 0.3-0.3 0.5-0.9 0.5-1.8v-8h9.7v9c0 5.5-3 8.3-9.1 8.3h-9.8c-6.1 0-9.1-2.8-9.1-8.3v-36.4c0-5.5 3-8.3 9.1-8.3h9.8c6.1 0 9.1 2.8 9.1 8.3z"/>
					<path fill-rule="evenodd" class="s1" d="m1381.4 328.6l-2-11h-11.5l-1.8 11h-9.6l10.6-52.8h13l11.1 52.8zm-12.3-18.3h9l-4.6-25.3z"/>
					<path class="s1" d="m1405.8 321.2h14.1v7.4h-23.7v-52.8h9.6z"/>
					<path class="s1" d="m1425.1 275.8h9.6v52.8h-9.6z"/>
					<path class="s1" d="m1471.2 293.3h-9.7v-8.2c0-0.9-0.2-1.5-0.5-1.8-0.3-0.3-0.9-0.5-1.8-0.5h-3.9c-0.9 0-1.5 0.2-1.8 0.5-0.3 0.3-0.5 0.9-0.5 1.8v34.3c0 0.9 0.2 1.5 0.5 1.8 0.3 0.3 0.9 0.5 1.8 0.5h3.9c0.9 0 1.5-0.2 1.8-0.5 0.3-0.3 0.5-0.9 0.5-1.8v-8h9.7v9c0 5.5-3 8.3-9.1 8.3h-9.8c-6.1 0-9.1-2.8-9.1-8.3v-36.4c0-5.5 3-8.3 9.1-8.3h9.8c6.1 0 9.1 2.8 9.1 8.3z"/>
					<path class="s1" d="m1497.2 275.8h9.6v44.5c0 5.5-3 8.3-9.1 8.3h-10.2c-6.1 0-9.1-2.8-9.1-8.3v-44.5h9.6v43.2c0 0.9 0.2 1.5 0.5 1.8 0.3 0.3 0.9 0.5 1.8 0.5h4.4c0.9 0 1.6-0.2 1.9-0.5 0.3-0.3 0.5-0.9 0.5-1.8v-43.2z"/>
					<path class="s1" d="m1539.7 275.8v7.4h-9.3v45.4h-9.6v-45.4h-9.2v-7.4z"/>
				</g>
			</g>
			<g>
				<path class="s1" d="m357.1 216.2c2 0 3-1.2 3-3.7v-24.2c0-1.4-0.4-2.3-1.3-2.7-0.9-0.4-1.6-0.6-2.2-0.6-0.6 0-1.3 0.3-2.1 0.8-0.8 0.6-1.2 1.3-1.2 2.2v33.5h-6.9v-33.5c0-2-1.1-3-3.2-3-1.5 0-2.4 0.4-2.9 1.3-0.5 0.8-0.7 1.5-0.7 2v24.2c0 2.5 1 3.7 3.1 3.7v5.6q-7.5 0-9.9-5.1c-0.5-1.1-0.8-2.3-0.8-3.8v-24.5c0-4.3 2.1-7.2 6.4-8.6 1.2-0.5 3.1-0.7 5.6-0.7 2.5 0 4.4 0.9 5.9 2.7q2.3-2.7 6-2.7c2.6 0 4.5 0.2 5.7 0.7 1.3 0.5 2.4 1.1 3.3 1.9 2 1.8 3.1 4 3.1 6.7v24.6c0 4.1-2.1 6.9-6.3 8.2-1.3 0.4-2.8 0.6-4.4 0.6v-5.6z"/>
				<path class="s1" d="m381.9 184.9c-2.1 0-3.2 1.2-3.2 3.7v7.1h-7.2v-7.3c0-4.2 2.2-7 6.5-8.6 1.2-0.5 2.9-0.7 5.1-0.7 2.2 0 4.3 0.9 6.5 2.8q3.3 2.8 3.3 6.9v23.9c0 4.2-2.3 7.1-6.9 8.6-1.3 0.5-3.1 0.7-5.2 0.7q-3.1 0-6.3-2.4c-2-1.6-3.1-3.8-3.1-6.4v-6.9h7.2v6.4c0 2.5 1.1 3.7 3.2 3.7 2.1 0 3.2-1.1 3.2-3.3v-24.9c0-1.4-0.4-2.3-1.3-2.7q-1-0.6-1.8-0.6z"/>
				<path fill-rule="evenodd" class="s1" d="m439.2 199.5q0.1 0 0.2-0.1v0.1zm5.4-8.1v-10.9h7.6v41h-43.4v-5.2c1.6-0.2 2.4-1.5 2.4-3.8v-10.3c0-2.5-1.1-3.7-3.3-3.7-2.2 0-3.3 1.2-3.3 3.7v10.2c0 2.4 0.9 3.7 2.6 3.9v5.3c-4.6 0-7.7-1.7-9.4-4.9-0.6-1.1-0.8-2.3-0.8-3.8v-11.3c0-4.3 2.3-7 7-8.3q2-0.6 5.1-0.6 3.2 0 6.6 2.4c2.3 1.6 3.4 3.8 3.4 6.5v10.3c0 1.8-0.6 3.2-1.8 4h14.5v-9.3c-5-0.1-8.5-2.1-10.4-6.1-0.6-1.3-0.9-2.8-0.9-4.4v-8.3c0-3.9 1.9-6.6 5.8-8.1 1.1-0.5 2.7-0.7 4.6-0.7 1.9 0 3.8 0.8 5.7 2.5 1.9 1.7 2.8 3.7 2.8 6.2v11.7q5.2-1.7 5.2-8zm-15.3-6.5c-1 0-1.4 0.5-1.4 1.6v9.1q0 4.5 3.9 4.5v-11.6c-0.1-2.4-0.9-3.6-2.5-3.6zm15.3 17.5c-1.5 1.5-3.3 2.7-5.4 3.7v9.7h5.4z"/>
				<path fill-rule="evenodd" class="s1" d="m466.1 193c6.2 0 9.4 2.9 9.4 8.6v11.4c0 4.4-1.8 7.2-5.5 8.7-1.2 0.5-2.8 0.7-4.9 0.7-2.1 0-4.1-0.9-5.9-2.6-1.8-1.8-2.8-4-2.8-6.7v-23.9c0-4.1 2.2-6.9 6.6-8.3 1.3-0.4 2.6-0.6 4-0.6h7.8c2.9 0 5.4 0.7 7.6 2.1 1.6-2 4-3 7.1-3 3.1 0 5.7 0.8 7.8 2.5 1.4-1.7 3.8-2.5 7.2-2.5 3.3 0 6.1 0.9 8.2 2.7 2.1 1.8 3.2 4.1 3.2 6.9v24c0 3.8-2 6.5-5.9 8.1-1.2 0.5-2.4 0.7-3.9 0.7h-2.2v-5.6q4.2 0 4.2-3.6v-24c0-2.4-1.1-3.6-3.4-3.6q-3.4 0-3.9 3.3v33.2h-7.3v-33.2c-0.3-2.3-1.5-3.4-3.7-3.4-2.2 0-3.4 1.2-3.7 3.4v33.2h-7.3v-31.7c0-2.7-1.4-4-4.3-4h-7.5c-1.9 0-2.8 1.2-2.8 3.7v3.9c0.4-0.3 1.1-0.4 1.9-0.4zm-2 19.9c0 2.5 0.7 3.7 2 3.7 1.3 0 2-1.2 2-3.7v-10.3c0-2.5-0.7-3.8-2-3.8-1.3 0-2 1.3-2 3.8z"/>
				<path fill-rule="evenodd" class="s1" d="m572.3 181.9c3.3 1.1 5 3.5 5 7.1v23.9c0 3.9-1.9 6.8-5.8 8.5-1.1 0.5-2.3 0.8-3.5 0.8h-1.8c-4 0-6.8-2-8.6-5.8-0.5-1.1-0.8-2.3-0.8-3.5v-22.2c0-2.3 0.9-3.9 2.6-4.9h-7.8c1.4 1 2.2 2.7 2.2 4.8v22.2c0 4.5-2.2 7.4-6.6 8.8q-1.9 0.6-5.4 0.6c-2.3 0-4.5-0.8-6.7-2.5q-3.3-2.5-3.3-6.9v-22.2c0-2.4 0.9-4 2.6-4.8h-3.7c-2.1 0-3.2 1.2-3.2 3.7v22.5c0 2.5 1.1 3.8 3.3 3.8v5.6c-4.9 0-8.2-1.7-10.1-5-0.6-1.1-0.9-2.5-1-4v-23.7c0-4.2 2.4-7 7.1-8.3q2-0.6 3.9-0.6h5c3.5 0 5.9 0.9 7.3 2.6 1.2-1.7 4.1-2.6 8.8-2.6h14.3q1.5 0 1.5-3.3c0-2.2-0.6-3.3-1.7-3.3-1.1 0-1.7 0.9-1.7 2.8h-7.8c0-5.6 3.3-8.4 9.8-8.4 4.2 0 7 1.5 8.4 4.4 0.5 1 0.8 2.7 0.7 5.1 0.2 2.5-0.9 4.1-3 4.8zm-32.6 30.9c0 2.5 1.1 3.7 3.3 3.7 2.2 0 3.3-1.2 3.3-3.7v-21.1q0-3.3-2.7-4.2c-0.2-0.1-0.4-0.1-0.4-0.1-2.3 0-3.4 1.4-3.4 4.3v21.1zm25 0.1c0 2.5 0.8 3.7 2.5 3.7 1.7 0 2.5-1.2 2.5-3.7v-23.3c0-2.6-0.8-3.9-2.5-3.9-1.6 0.7-2.5 2.3-2.5 4.8z"/>
				<path fill-rule="evenodd" class="s1" d="m612.8 221.1c0 1.6 1.1 2.5 3.2 2.5h33v6.1h-33c-4.7 0-7.8-1.6-9.3-4.9-0.5-1.1-0.8-2.3-0.8-3.7 0-5.4 3.4-8.1 10.1-8.1h20.9c2 0 3.3-0.6 3.9-1.7 0.6-1.2 0.8-2 0.8-2.7v-19c0-2.5-1.3-3.8-3.9-3.8-2.6 0-3.9 1.2-3.9 3.5v21.7h-7.8v-21.5c0-2.5-1.3-3.7-3.8-3.7h-5.1c-2.3 0-3.7 1-4 3.1v2.8c0.5-0.8 2-1.2 4.3-1.2 2.4 0 4.1 0.7 5.1 2.2 1 1.5 1.5 3.7 1.5 6.8v3.3q0 9-8.7 9c-4.6 0-7.7-1.7-9.2-5.2-0.5-1.1-0.8-2.4-0.8-3.8v-13.9c0-4.1 2.4-6.9 7-8.3 1.3-0.4 2.7-0.6 4.1-0.6h6.4c3.1 0 5.5 0.9 7.1 2.8 1.5-1.9 3.6-2.8 6.4-2.8 2.7 0 4.7 0.2 6.1 0.6 1.4 0.4 2.5 0.9 3.6 1.7 2.2 1.7 3.3 3.9 3.3 6.7v20.1c0 4.4-2.2 7.3-6.7 8.9-1.3 0.5-2.7 0.7-4.1 0.7h-22.6c-2.1-0.1-3.1 0.8-3.1 2.4zm0.4-18.8c0 2.5 0.7 3.8 2.2 3.8 1.5 0 2.2-1.3 2.2-3.8v-2.3c0-2.6-0.7-3.9-2.2-3.8-1.5 0.1-2.2 1.3-2.2 3.8z"/>
				<path fill-rule="evenodd" class="s1" d="m678.4 176.5q0 0.1 0 0.3zm9.4-8.4c6.3 0 9.4 2.7 9.4 8.2 0 2-0.5 3.5-1.4 4.4-0.9 0.9-1.6 1.4-2.2 1.5 3.7 1.4 5.5 3.8 5.5 7v23.8c0 4-1.9 6.8-5.8 8.5-1.1 0.5-2.3 0.7-3.5 0.7h-1.8c-4 0-6.8-1.9-8.5-5.7-0.5-1.1-0.8-2.3-0.8-3.5v-22.3c0-2 0.9-3.6 2.7-4.7h-3.8c-1.6 0-2.4 1-2.4 3.1v32.3h-7.7v-32.8c0-1.4-0.4-2.4-1.3-2.8-0.8-0.4-1.5-0.6-1.9-0.6-2.1 0-3.2 1.2-3.2 3.7v23.5c0 2.4 1.3 3.6 4 3.6v5.6c-5 0-8.6-1.6-10.7-4.8-0.7-1.1-1.1-2.5-1.1-4v-24.2c0-4.2 2.3-7.1 7-8.7 1.3-0.5 3.2-0.7 5.6-0.7 2.4 0 4.2 1.1 5.4 3.4 1.4-1.7 4.1-2.6 8-2.6h7.9c1.6 0 2.3-1.1 2.3-3.3 0-2.2-0.7-3.3-2-3.3-1.3 0-1.9 1-1.7 3.1h-7.4c0.1-5.6 3.2-8.4 9.4-8.4zm-1.3 44.8c0 2.5 0.8 3.7 2.5 3.7 1.7 0 2.5-1.2 2.5-3.7v-23.1c0-2.5-0.8-3.8-2.5-3.8-1.7 0.8-2.5 2.4-2.5 4.6z"/>
				<path class="s1" d="m741 179.4c7.1 0 10.6 2.8 10.6 8.5v23.2c0 4-2.2 6.7-6.7 8.2-1.2 0.4-2.9 0.6-4.9 0.6-2 0-4.1-0.9-6.3-2.6q-3.3-2.6-3.3-6.6v-22.7c0-2.3-0.9-3.5-2.7-3.5-2 0-3.1 1.1-3.1 3.3v31.4h-6.9v-31.4q0-3.3-3.6-3.3c-2.2 0-3.3 1.2-3.3 3.5v22.6c0 2.4 1 3.6 3.1 3.5v5.4c-6.9 0-10.3-2.8-10.3-8.5v-22.9c0-4.1 2.2-6.9 6.6-8.5 1.2-0.5 2.9-0.7 5-0.7q3.2 0 5.4 3c1.4-2 3.2-3 5.6-3 2.4 0 4.1 0.2 5.3 0.7 1.2 0.5 2.2 1.1 3.2 1.9 2.1 1.8 3.1 4 3.1 6.5v22.5q0 3.9 3.3 3.9 3.3 0 3.3-3.9v-22.3c0-2.4-1.1-3.6-3.3-3.5v-5.3zm-28.1 46.1c0-3.3 2.7-5 8.2-5 5.5 0 8.2 1.7 8.2 5v9.4c0 2.9-2.2 4.4-6.7 4.4v-3c1.1-0.1 1.6-0.7 1.6-1.8v-7.5c0-2.3-0.9-3.4-2.8-3.4-1.8 0-2.8 1.1-2.8 3.4v7.5q0 0.7 0.3 1.2c0.2 0.4 0.6 0.5 1.2 0.4v3.1c-4.9 0-7.3-1.5-7.3-4.4v-9.3zm19.3 0c0-3.3 2.7-5 8.2-5 5.5 0 8.2 1.7 8.2 5v9.4c0 2.9-2.5 4.4-7.5 4.4v-3c1.1-0.1 1.6-0.7 1.6-1.8v-7.5c0-2.3-0.9-3.4-2.8-3.4-1.9 0-2.8 1.1-2.8 3.4v7.5c0 1 0.5 1.4 1.4 1.3v3.5c-4.3 0-6.5-1.5-6.5-4.4v-9.4z"/>
				<path class="s1" d="m752.8 167.6q-3 0-3 3.6v5.3h-7v-6.6c0-3.7 2.1-6.2 6.5-7.5 1.2-0.4 2.8-0.6 4.9-0.6 2 0 4.1 0.7 6.2 2.2 2.1 1.5 3.1 3.4 3.1 5.9v51.3h-7.7v-50.4c0-1.3-0.4-2.1-1.2-2.6q-1.2-0.6-1.8-0.6z"/>
				<path class="s1" d="m776 205.5c0 2 1 3 2.9 2.9v4.5q-6.9 0-9-2.4c-1.4-1.6-2.1-3-2.1-4.3v-16.8c0-5 2.9-8.2 8.7-9.7q2.4-0.6 6.3-0.6c2.6 0 5.2 0.9 7.9 2.6 2.7 1.7 4.1 4.3 4.1 7.7v16.8c0 3.3-2.5 5.5-7.5 6.4-1.2 0.2-2.4 0.3-3.3 0.3v-4.4c1.7-0.1 2.6-1 2.6-3v-16.3c0-2.3-1.1-4-3.2-5-0.7-0.3-1.5-0.5-2.6-0.5-1.1 0-2.1 0.6-3.2 1.7-1 1.1-1.6 2.4-1.6 3.9zm5.2 8.1c7.1 0 10.7 2.4 10.7 7.1v13.2c0 3.3-2.9 5-8.6 5v-3.3c1.4-0.1 2-0.8 2-2.2v-12.8c0-2.3-1.4-3.5-4.2-3.5-2.8 0-4.2 1.2-4.2 3.5v12.8c0 1.5 0.8 2.2 2.3 2.2v3.3c-3.5 0-5.9-0.6-7.1-1.8-1.2-1.2-1.8-2.3-1.8-3.2v-13.2c0.2-4.7 3.8-7.1 10.9-7.1z"/>
				<path fill-rule="evenodd" class="s1" d="m813.4 229.5c4.7 0.4 7.1 2 7.1 5v4.7c0 2.6-1.7 4.4-5 5.3-0.9 0.2-1.7 0.4-2.5 0.4q-7.2 0-7.2-4.5v-1.2l4.6 0.6c0 1.4 0.8 2.1 2.3 2.1 1.5 0 2.3-0.8 2.3-2.5v-5.3c0-0.7-0.5-1.3-1.5-1.7 0.2 0.4 0.3 1.6 0.3 3.5 0 1.9-1.1 2.9-3.2 2.9-2.1 0-3.5-0.4-4.1-1.2q-0.9-1.2-0.9-2.1v-1.6c-0.7 0.1-1.4 0.1-2 0.1-7.1 0-10.6-2.2-10.6-6.7 0-2.8 1.1-4.7 3.4-5.8 0.7-0.3 1.5-0.5 2.4-0.5 0.9 0 1.3-0.4 1.3-1.2 0-0.1 0-0.3-0.1-0.5h5.6v1.5c0 1.7-0.6 2.5-1.9 2.5l-2.4-0.1c-1.2 0-1.9 0.8-1.9 2.3 0 1.5 1.3 2.3 3.9 2.3 3.2 0 4.7-1.5 4.7-4.6 0-2.7-0.9-5.3-2.8-7.8-1.9-2.6-3.1-4.4-3.8-5.6-1.6-2.8-2.4-5.8-2.4-8.9l0.1-18.8h7.8v20.1c0 3.1 0.8 5.9 2.5 8.3 1.7 2.5 2.9 4.2 3.5 5.3 1.4 2.5 2.1 4.9 2.1 7.4 0.1 2.5-0.5 4.6-1.6 6.3zm-3.1 7.4q0.9 0 0.9-0.9v-2.2q0-0.9-0.9-0.9-0.9 0-0.9 0.9v2.2q0 0.9 0.9 0.9z"/>
				<path class="s1" d="m839.6 214.2c2.2 1.5 3.3 3.3 3.3 5.6v5.1q0 6.4-9 8.4c-1.6 0.3-3.4 0.5-5.7 0.5q-3.3 0-7.2-2.1c-3.1-1.7-4.7-4-4.7-6.9v-2.7h9v2.6c0 2.5 1.4 3.7 4.1 3.7 2.8 0 4.1-1.7 4.1-5.2v-2.2c0-2.5-1.4-3.7-4.1-3.7h-11.1v-6.1h11.3c2.9 0 4.3-1.1 4.3-3.3v-1.8c0-2.5-2-3.8-5.9-4-5.2-0.2-8.8-1.9-10.8-5.2-0.6-0.9-0.9-2-0.9-3.2v-5.7c0-4.3 3-7.1 9-8.5 1.5-0.3 3.4-0.5 5.6-0.5 2.2 0 4.8 0.8 7.6 2.4 2.9 1.6 4.3 3.8 4.3 6.6v5.1h-8.9v-5c0-2.5-1.4-3.8-4.1-3.8-2.8 0-4.1 1.3-4.1 3.8v5.1c0 2.6 1.9 3.9 5.9 4 4.8 0.1 8.2 1.9 10.4 5.3 0.6 0.9 0.9 2 0.9 3.2v2.8q0 3.5-3.3 5.7z"/>
				<path class="s1" d="m855.4 166.3c0.2 0.8 0.3 1.3 0.3 1.4v2.8c0 3.6-1.5 6-4.4 7.4-0.9 0.4-2 0.6-3.1 0.6h-5.3q-5.7 0-7.8-4.8c-0.5-1-0.7-2.1-0.7-3.3v-2.7c0-0.1 0.1-0.6 0.3-1.4h8.1c-0.2 0.8-0.3 1.3-0.3 1.4v3c0 1.6 1.1 2.4 3.2 2.4 2.1 0 3.2-0.8 3.2-2.3v-3.1c0-0.1-0.1-0.6-0.3-1.4z"/>
				<path fill-rule="evenodd" class="s1" d="m880.1 193.8c0.8-0.8 2-1.1 3.8-1.1 1.8 0 3.5 0.4 5.3 1.3 1.8 0.9 2.6 3.4 2.6 7.6v11.4c0 4.4-1.8 7.2-5.4 8.7-1.1 0.5-2.8 0.7-4.9 0.7-2.1 0-4.2-0.9-6.2-2.6-2-1.8-3-4-3-6.7v-23.9c0-4.1 2.2-6.9 6.6-8.3 1.3-0.4 2.6-0.6 4-0.6h11.7c7.7 0 11.5 3 11.5 9v5.9c0 3.2-1.2 5.1-3.7 5.9 2.5 0.8 3.7 2.9 3.7 6.2v6c0 5.9-3.5 8.9-10.6 8.9h-1.5v-5.7h1c2.3 0 3.4-1.4 3.4-4.3v-4.4c0-2.5-0.9-3.7-2.7-3.7h-1.4v-6.2c2.7 0 4.1-1.2 4.1-3.7v-4.2c0-2.6-1.2-3.9-3.7-3.9h-11c-1.5 0-2.5 0.4-2.9 1.3-0.4 0.9-0.7 1.6-0.7 2.1zm2.5 22.8c1.2 0 1.9-1.4 1.9-4.1v-10.3c0-2.3-0.7-3.4-2.2-3.4-1.5 0-2.2 1.1-2.2 3.4v10.3c0 2.7 0.8 4.1 2.5 4.1zm37-31.7c-2.1 0-3.2 1.2-3.2 3.7v7.1h-7.7v-6.9q0-6.5 6.9-9c1.3-0.5 3-0.7 5.1-0.7 2.1 0 4.3 1 6.5 2.9 2.3 1.9 3.4 4.2 3.4 6.8v23.9c0 4.2-2.4 7.1-7.1 8.6-1.3 0.5-3 0.7-5.1 0.7-2.1 0-4.2-0.9-6.4-2.6-2.2-1.7-3.3-4-3.3-6.7v-6.4h7.7v6.4c0 2.5 1.1 3.7 3.2 3.7 2.1 0 3.2-1.2 3.2-3.7v-24.1c0-2.4-1.1-3.7-3.2-3.7z"/>
				<path fill-rule="evenodd" class="s1" d="m956.7 212.4c0 1.4-0.6 2.5-1.7 3.5h5.4v-27c0-4.3 2.4-7.3 7.3-9 1.4-0.5 3.3-0.8 5.7-0.8 2.4 0 4.7 0.9 7.1 2.8 2.3 1.9 3.5 4.2 3.5 6.9v32.6h-37.3v-5.3c1.6 0 2.4-1.2 2.4-3.7v-10.3c0-2.5-1.1-3.7-3.3-3.7-2.2 0-3.3 1.2-3.3 3.7v10.2c0 2.5 0.8 3.8 2.4 3.8v5.4c-5 0-8.2-1.8-9.6-5.3-0.4-1-0.6-2.2-0.6-3.3v-11.3c0-4.1 2.3-6.9 6.8-8.3q1.9-0.6 5.4-0.6c2.3 0 4.5 0.8 6.6 2.5 2.1 1.7 3.2 3.8 3.2 6.4zm19.5-23.9c0-2.5-1.3-3.7-4-3.7-2.7 0-4 1.2-4 3.7v27.3h8z"/>
				<path class="s1" d="m996.4 166.3c0.2 0.8 0.3 1.3 0.3 1.4v2.8c0 3.6-1.5 6-4.4 7.4-0.9 0.4-2 0.6-3.1 0.6h-5.3q-5.7 0-7.8-4.8c-0.5-1-0.7-2.1-0.7-3.3v-2.7c0-0.1 0.1-0.6 0.3-1.4h8.1c-0.2 0.8-0.3 1.3-0.3 1.4v3c0 1.6 1.1 2.4 3.2 2.4 2.1 0 3.2-0.8 3.2-2.3v-3.1c0-0.1-0.1-0.6-0.3-1.4z"/>
				<path fill-rule="evenodd" class="s1" d="m1033.6 216.1c1.8-0.1 2.6-1.3 2.6-3.6v-22.8c0-2.5-1.5-3.8-4.4-3.8h-6.6q-4.2 0-4.2 3.6v3.6c0.8-1.1 2.1-1.7 3.6-1.7 5.6 0 8.4 3 8.4 8.9v12.7c0 4.4-2 7.2-5.9 8.6-1.2 0.5-2.9 0.7-5 0.7-2.1 0-4.1-0.9-6-2.6-1.9-1.7-2.8-4-2.8-6.7v-23.9c0-4.1 2.1-6.9 6.5-8.3 1.2-0.4 2.6-0.6 4-0.6h8.9c5.3 0 8.8 1.7 10.5 5.2 0.5 1.1 0.8 2.3 0.8 3.7v23.9q0 4.5-2.1 6c-2.3 1.7-5.1 2.7-8.3 2.9zm-12.6-3.2c0 2.5 0.7 3.7 2.2 3.7 1.5 0 2.2-1.2 2.2-3.7v-12c0-2.5-0.7-3.7-2.2-3.7-1.5 0-2.2 1.2-2.2 3.7z"/>
				<path class="s1" d="m1056.7 188.7v5.3c0 2.3 1.2 3.6 3.5 3.9 5.5 0 9.3 1.8 11.4 5.3 0.7 1.1 1 2.3 1 3.6v6c0 4.2-2.6 7.1-7.7 8.7-1.5 0.5-3.5 0.7-6 0.7-2.5 0-5-0.9-7.4-2.7-2.4-1.8-3.6-4-3.6-6.7v-5.5h8.5v5.4c0 2.5 1.2 3.7 3.7 3.7 2.5 0 3.7-1.2 3.7-3.7v-5c0-2.3-1.2-3.5-3.6-3.9-5.3 0-9.1-1.8-11.2-5.6-0.6-1.1-1-2.4-1-3.7v-5.9c0-4.2 2.6-7.1 7.7-8.8 1.5-0.5 3.5-0.7 6-0.7 2.5 0 5 0.9 7.4 2.7 2.5 1.8 3.7 4.1 3.7 6.8v5.4h-8.5v-5.4c0-2.5-1.2-3.8-3.7-3.8-2.7 0.1-3.9 1.4-3.9 3.9z"/>
				<path fill-rule="evenodd" class="s1" d="m1087.3 180.3l5.7-0.1c4.5 0 7.7 1.7 9.7 5q0.9 1.7 0.9 3.6v2c0 3.5-2 5.8-5.9 7-3.4 1-6.1 0.9-7.8-0.4-2.8-2-4.2-4.1-4.2-6.1v-2.2c0-1.4 0.7-2.5 2-3.3-2.3 0.3-3.4 1.6-3.4 4.1v21.7c0 1.5 0.4 2.6 1.3 3.2 0.9 0.6 1.6 1 2.1 1-1.3-0.9-2-2-2-3.4v-2.2c0-3.1 1.8-5.3 5.5-6.4 5.3-1.7 9.2-0.4 11.6 3.8 0.5 0.9 0.8 2 0.8 3.1v1.6c0 4.1-2.2 6.9-6.7 8.4q-2 0.6-3.9 0.6h-5.7c-4.6 0-7.9-2.2-9.8-6.5-0.6-1.3-0.9-2.7-0.9-4.3 0-1.6 0-3.2 0-4.7 0-1.6 0-3.9-0.1-7 0-3.1 0-6 0-8.5 0-2.6 1.1-4.9 3.2-6.9 2.1-2.1 4.7-3.1 7.6-3.1zm5.7 9.6c0 2 0.5 3 1.6 3 1.1 0 1.6-1 1.6-3v-1.3c0-2-0.5-3-1.6-3-1.1 0-1.6 1-1.6 3zm0 23.1c0 2 0.5 3 1.6 3 1.1 0 1.6-1 1.6-3v-1.4c0-2-0.5-3-1.6-3-1.1 0-1.6 1-1.6 3z"/>
				<path fill-rule="evenodd" class="s1" d="m1107.3 203.1c0-5.6 3.3-8.5 10-8.5h2.2v-6.4q0-6.4 7.5-8.4c1.4-0.3 3.2-0.5 5.3-0.5 2.2 0 4.5 0.8 6.9 2.3q3.6 2.4 3.6 6.6v6.4h1.4c6.7 0 10 2.8 10 8.5v8.1c0 5.7-3.6 8.6-10.9 8.6v-5.4c2.3 0.1 3.5-1.1 3.5-3.5v-7.2c0-2.1-0.7-3.3-2.2-3.5-0.5-0.1-1.1-0.1-1.9 0v11.1c0 2.7-0.9 4.6-2.8 5.9-3 2-6.4 3-10.1 3-3.7 0-6.2-1-7.6-3.1-1.5 2-3.4 3.1-5.6 3.1-2.3 0-4.4-0.5-6.4-1.4q-3-1.4-3-7.5v-8.2zm9.4 11.5c1.9 0 2.8-1.4 2.8-4.2v-10.3h-2.3c-1.7 0-2.5 1.2-2.5 3.5v7.2c0 2.6 0.7 3.8 2 3.8zm18.3 7.5c1-0.8 2.6-1.2 4.7-1.2 2.1 0 4 0.4 5.6 1.1q2.4 1.1 2.4 3.3v10.4q0 4.2-7.8 4.2v-3.1c1.3 0.1 2-0.3 2-1.3v-10.1c0-0.9-0.7-1.3-2-1.3-1.4 0-2 0.4-2 1.2v14.6h-5.3v-14.6c0-0.8-0.7-1.2-2-1.2-1.3 0-2 0.4-2 1.3v10.1c0 0.9 0.7 1.4 2.1 1.3v3.1c-5.3 0-7.9-1.4-7.9-4.2v-10.4c0-2.9 2.5-4.3 7.4-4.3 2-0.1 3.7 0.3 4.8 1.1zm-3.9-37.4c-2.8 0-4.2 1.3-4.2 4v5.8h8.5v-5.8c-0.1-2.6-1.5-4-4.3-4zm0 30c2.8 0 4.2-1.5 4.2-4.6v-10h-8.5v9.9c0.1 3.2 1.5 4.7 4.3 4.7z"/>
				<path class="s1" d="m1168.5 184.9c-2.1 0-3.2 1.2-3.2 3.7v7.1h-7.2v-7.3c0-4.2 2.2-7 6.5-8.6 1.2-0.5 2.9-0.7 5.1-0.7 2.2 0 4.3 0.9 6.5 2.8q3.3 2.8 3.3 6.9v23.9c0 4.2-2.3 7.1-6.9 8.6-1.3 0.5-3.1 0.7-5.2 0.7q-3.2 0-6.3-2.4c-2-1.6-3.1-3.8-3.1-6.4v-6.9h7.2v6.4c0 2.5 1.1 3.7 3.2 3.7 2.1 0 3.2-1.1 3.2-3.3v-24.9c0-1.4-0.4-2.3-1.3-2.7q-1-0.6-1.8-0.6z"/>
				<path fill-rule="evenodd" class="s1" d="m1194.2 191.2c5.9 0 8.8 2.8 8.8 8.4v4c0 4-1.9 6.8-5.7 8.2-1.2 0.5-2.8 0.7-5 0.7-2.1 0-4.1-0.8-6-2.5-1.9-1.7-2.8-3.8-2.8-6.4v-14.7c0-4.1 2.3-6.9 6.9-8.3 1.3-0.4 2.7-0.6 4.1-0.6h10.4c4.7 0 8.1 1.6 10 4.8 0.6 1 0.9 2.3 0.9 3.6v5.1c0 3.3-1.1 5.3-3.4 6h-0.1c2.3 0.7 3.5 2.7 3.5 6v4.4c0 4.1-1.9 6.8-5.8 8.1q-1.8 0.6-3.9 0.6h-12.1c-2.1 0-3.1 0.8-3.1 2.4 0 1.6 1 2.4 3.1 2.4h21.3v6.1h-21.3c-4.6 0-7.7-1.6-9.2-4.8-0.5-1.1-0.8-2.3-0.8-3.7 0-5.1 3.3-7.6 10-7.6h10.9c2.1 0 3.2-1.3 3.2-3.9v-3.4c0-1.9-0.6-2.8-1.9-2.8h-1.2v-6.6h1.4c1.2 0 1.8-1.2 1.8-3.7v-3.5c0-2.5-1.1-3.7-3.4-3.7h-10.2c-1.8 0-2.9 1.1-3.2 3.3v2.9c1.1-0.6 2-0.8 2.8-0.8zm-2.9 11.9c0 2.5 0.7 3.7 2.2 3.7 1.5 0 2.2-1.2 2.2-3.7v-2.5c0-2.5-0.7-3.7-2.2-3.7-1.5 0-2.2 1.2-2.2 3.7z"/>
				<path fill-rule="evenodd" class="s1" d="m1259.9 206.1c2.6 1.4 3.9 3.3 3.9 5.6 0 2.3-0.2 4-0.7 5.2-0.5 1.1-1.1 2.1-2 2.9-0.8 0.8-1.9 1.4-3 1.9-1.2 0.4-2.8 0.7-4.8 0.7-2 0-3.9-0.8-5.7-2.5-1.8-1.7-2.6-3.3-2.6-4.8 0-1.6 0.1-2.5 0.2-2.8 0.1-0.3 0.2-0.6 0.2-1q-7.3 11.1-15.3 11.1c-4.7 0-7.9-1.6-9.6-4.7-0.6-1.1-0.9-2.5-0.9-4.3 0-1.8 0.7-3.4 2.2-4.8 1.5-1.4 3.3-2.1 5.3-2.1h23.9c1.8 0 3-1.2 3.8-3.6 0.2-0.6 0.3-1.2 0.3-1.7v-12.5c0-2.5-1.3-3.8-3.8-3.8-2.5 0-3.8 1.2-3.8 3.5v17.2h-6.5v-16.3c0-1.5-0.5-2.5-1.5-3.1q-1.5-0.9-2.1-0.9h-6.3c-1.3 0-2.2 0.4-2.6 1.1-0.5 0.8-0.7 1.4-0.7 1.8v1.4c0.6-0.9 1.9-1.4 3.9-1.4 4.5 0 6.8 2.1 6.8 6.4v4.5c0 2.6-1.2 4.6-3.7 6-0.7 0.4-1.4 0.6-2.2 0.6h-5.5c-2.9 0-5-1.5-6.4-4.7-0.4-0.9-0.6-1.8-0.6-2.8v-9.7c0-4.2 2.2-7 6.5-8.4 1.2-0.4 2.5-0.6 3.8-0.6h7.1c3.2 0 5.4 0.9 6.7 2.7 1.2-2.1 3.3-3.1 6.2-3.1 2.9 0 5.7 0.4 8.4 1.3 2.7 0.9 4 3.7 4 8.5v11.8c0.1 1.9-0.9 3.7-2.9 5.4zm-29.2 4.9c-2 0-3 0.9-3 2.6 0 1.8 1 2.6 3 2.6 3.8 0 6.7-1.8 8.8-5.3h-8.8zm-0.9-9.7c1.3 0 1.9-1 1.9-3.1v-2.9c0-2.1-0.6-3.1-1.9-3.1-1.3 0-1.9 1.1-1.9 3.4v2.3c0 2.3 0.6 3.4 1.9 3.4zm26.5 14.8c0.6-0.6 1-1.4 1-2.3 0-0.9-0.3-1.7-1-2.3-0.6-0.6-1.4-1-2.3-1-0.9 0-1.7 0.3-2.3 1-0.6 0.6-1 1.4-1 2.3 0 0.9 0.3 1.7 1 2.3 0.6 0.6 1.4 1 2.3 1 0.9-0.1 1.6-0.4 2.3-1z"/>
				<path class="s1" d="m1264.3 167.6q-3 0-3 3.6v5.3h-7v-6.6c0-3.7 2.1-6.2 6.5-7.5 1.2-0.4 2.8-0.6 4.9-0.6 2 0 4.1 0.7 6.2 2.2 2.1 1.5 3.1 3.4 3.1 5.9v51.3h-7.7v-50.4c0-1.3-0.4-2.1-1.2-2.6q-1.2-0.6-1.8-0.6z"/>
				<path fill-rule="evenodd" class="s1" d="m1345.3 204.9c0-2.5-0.9-3.7-2.8-3.7h-1.5v11.7c0 4.2-2.4 7.1-7.1 8.6-1.4 0.5-3.8 0.7-7.2 0.7-3.4 0-5.8-1.1-7.3-3.2-0.9 2.1-2.2 3.1-3.8 3.1q-2.4 0-5.1 0c-1.8 0-3.4-0.8-5-2.5-1.5-1.7-2.3-3.9-2.3-6.7v-8.6c0-5.9 3.5-8.9 10.5-8.9h2.8v-6.7c0-4.5 2.6-7.4 7.7-8.8 1.5-0.4 3.4-0.6 5.9-0.6 2.5 0 4.9 0.9 7.4 2.6 2.4 1.7 3.6 4 3.6 6.8v6.7h1.5c7 0 10.6 3 10.6 8.9v8.6c0 6-3.5 8.9-10.6 8.9h-0.9v-5.7h0.9c1.9 0 2.8-1.2 2.8-3.7v-7.5zm-34.8 7.5c0 2.7 0.8 4 2.5 4q1.4 0 2.4-1.2c0.7-0.8 1-1.9 1-3.3v-10.8h-2.8c-2 0-3.1 1.2-3.1 3.7zm18.1-27.4c-3 0-4.4 1.4-4.4 4.2v6.2h8.9v-6.2q0-4.2-4.5-4.2zm0 31.6c3 0 4.4-1.6 4.4-4.9v-10.6h-8.9v10.5c0.1 3.3 1.6 5 4.5 5z"/>
				<path class="s1" d="m1367.3 184.9c-2.1 0-3.2 1.2-3.2 3.7v7.1h-7.2v-7.3c0-4.2 2.2-7 6.5-8.6 1.2-0.5 2.9-0.7 5.1-0.7 2.2 0 4.3 0.9 6.5 2.8q3.3 2.8 3.3 6.9v23.9c0 4.2-2.3 7.1-6.9 8.6-1.3 0.5-3.1 0.7-5.2 0.7q-3.2 0-6.3-2.4c-2-1.6-3.1-3.8-3.1-6.4v-6.9h7.2v6.4c0 2.5 1.1 3.7 3.2 3.7 2.1 0 3.2-1.1 3.2-3.3v-24.9c0-1.4-0.4-2.3-1.3-2.7q-1.2-0.6-1.8-0.6z"/>
				<path fill-rule="evenodd" class="s1" d="m1406.6 208.1h-16.6v7.8h22.5v-35.4h7.8v41h-37.9v-32.6c0-4.5 2.5-7.5 7.6-9.1 1.5-0.5 3.4-0.7 5.8-0.7q3.6 0 7.2 2.7c2.4 1.8 3.6 4.2 3.6 7.1zm-7.7-19.2c0-2.7-1.5-4.1-4.5-4.1-3 0-4.5 1.4-4.5 4.1v13.6h8.9v-13.6z"/>
				<path class="s1" d="m1421.5 167.6q-3 0-3 3.6v5.3h-7v-6.6c0-3.7 2.1-6.2 6.5-7.5 1.2-0.4 2.8-0.6 4.9-0.6 2 0 4.1 0.7 6.2 2.2 2.1 1.5 3.1 3.4 3.1 5.9v51.3h-7.7v-50.4c0-1.3-0.4-2.1-1.2-2.6q-1.2-0.6-1.8-0.6z"/>
				<path fill-rule="evenodd" class="s1" d="m1469.4 182.7c1.6-1.7 3.8-2.5 6.8-2.5h9.6c7 0 10.5 3 10.5 8.9v23.7c0 5.9-3.3 8.9-9.8 8.9v-5.6c1.4 0 2.1-1.3 2.1-3.8v-22.6c0-2.5-1.3-3.7-3.9-3.7h-7.2c-2.7 0-4 1.2-4 3.5v6c7.7 0 11.5 3 11.5 8.9v9c0 5.9-3.2 8.9-9.6 8.9-2.8 0-4.9-0.9-6.3-2.6-1.7 1.8-4.2 2.6-7.7 2.6-3.4 0-6.1-0.9-8-2.6-2.1 2.9-5.7 3.6-10.7 2.1q-6.3-1.9-6.3-8.7v-8.6q0-6.6 7.2-8.4c1.4-0.3 2.7-0.5 4.1-0.5h1.4v-6.7c0-6.2 4-9.4 12.1-9.4 3.7-0.1 6.5 1 8.2 3.2zm-25.4 30.2c0 2.5 0.8 3.7 2.5 3.7 1.7 0 2.5-1.1 2.5-3.3v-12h-1.4c-2.4 0-3.6 1.2-3.6 3.7zm21.7-23.9c0-2.5-1.5-3.8-4.4-3.8-2.9 0-4.4 1.2-4.4 3.7v6.5h8.9v-6.4zm-8.9 23.9c0 2.5 1.5 3.7 4.4 3.7 2.9 0 4.4-1.2 4.4-3.7v-11.7h-8.9v11.7zm16.6 0.3q0 3.3 2.1 3.3c1.4 0 2.1-1.2 2.1-3.7v-7.9c0-2.5-0.9-3.7-2.8-3.7h-1.4z"/>
				<path class="s1" d="m1508.6 205.5c0 2 1 3 2.9 2.9v4.5q-6.9 0-9-2.4c-1.4-1.6-2.1-3-2.1-4.3v-16.8c0-5 2.9-8.2 8.7-9.7q2.4-0.6 6.3-0.6c2.6 0 5.2 0.9 7.9 2.6 2.7 1.7 4.1 4.3 4.1 7.7v16.8c0 3.3-2.5 5.5-7.5 6.4-1.2 0.2-2.4 0.3-3.3 0.3v-4.4c1.7-0.1 2.6-1 2.6-3v-16.3c0-2.3-1.1-4-3.2-5-0.7-0.3-1.5-0.5-2.6-0.5-1.1 0-2.1 0.6-3.2 1.7-1 1.1-1.6 2.4-1.6 3.9zm5.2 8.1c7.1 0 10.7 2.4 10.7 7.1v13.2c0 3.3-2.9 5-8.6 5v-3.3c1.4-0.1 2-0.8 2-2.2v-12.8c0-2.3-1.4-3.5-4.2-3.5-2.8 0-4.2 1.2-4.2 3.5v12.8c0 1.5 0.8 2.2 2.3 2.2v3.3c-3.5 0-5.9-0.6-7.1-1.8-1.2-1.2-1.8-2.3-1.8-3.2v-13.2c0.2-4.7 3.8-7.1 10.9-7.1z"/>
				<path class="s1" d="m1539.7 166.3c0.2 0.8 0.3 1.3 0.3 1.4v2.8c0 3.6-1.5 6-4.4 7.4-0.9 0.4-2 0.6-3.1 0.6h-5.3q-5.7 0-7.8-4.8c-0.5-1-0.7-2.1-0.7-3.3v-2.7c0-0.1 0.1-0.6 0.3-1.4h8.1c-0.2 0.8-0.3 1.3-0.3 1.4v3c0 1.6 1.1 2.4 3.2 2.4 2.1 0 3.2-0.8 3.2-2.3v-3.1c0-0.1-0.1-0.6-0.3-1.4z"/>
			</g>
		</g>
	</g>
</svg>