<svg id="svg" version="1.1" xmlns="http://www.w3.org/2000/svg" xmlns:xlink="http://www.w3.org/1999/xlink" width="400" height="403.97350993377484" viewBox="0, 0, 400,403.97350993377484"><g id="svgg"><path id="path0" d="M149.271 202.233 C 150.782 202.295,153.166 202.295,154.569 202.233 C 155.971 202.171,154.735 202.120,151.821 202.121 C 148.907 202.121,147.760 202.172,149.271 202.233 M99.931 288.724 C 99.785 289.071,65.791 308.376,65.315 308.383 C 65.087 308.386,64.901 308.509,64.901 308.656 C 64.901 309.032,63.042 309.952,62.790 309.700 C 62.676 309.586,62.583 309.662,62.583 309.870 C 62.583 310.325,60.767 311.319,60.472 311.024 C 60.358 310.910,60.265 310.987,60.265 311.195 C 60.265 311.650,58.449 312.643,58.155 312.349 C 58.040 312.235,57.947 312.297,57.947 312.488 C 57.947 312.870,49.752 317.652,49.089 317.657 C 48.862 317.659,48.675 317.780,48.675 317.927 C 48.675 318.304,46.817 319.223,46.565 318.971 C 46.451 318.857,46.358 318.923,46.358 319.119 C 46.358 319.465,43.159 321.429,42.315 321.602 C 42.081 321.650,41.740 321.856,41.557 322.060 C 41.132 322.534,2.595 344.466,2.152 344.485 C 1.970 344.493,1.562 344.768,1.244 345.095 C 0.618 345.741,1.057 346.128,4.674 348.107 C 5.412 348.511,6.516 349.139,7.127 349.503 C 7.738 349.868,9.388 350.836,10.792 351.656 C 12.197 352.475,13.733 353.373,14.206 353.650 C 14.679 353.928,16.184 354.805,17.550 355.600 C 18.916 356.395,21.151 357.708,22.517 358.518 C 23.882 359.328,25.224 360.123,25.497 360.285 C 25.770 360.447,27.856 361.646,30.132 362.951 C 32.409 364.255,34.681 365.610,35.182 365.962 C 35.683 366.314,36.093 366.494,36.093 366.362 C 36.093 366.230,36.353 366.346,36.672 366.619 C 37.363 367.211,41.914 369.940,46.192 372.328 C 46.556 372.531,49.015 373.982,51.656 375.553 C 54.296 377.124,57.127 378.768,57.947 379.207 C 58.767 379.646,60.033 380.383,60.762 380.845 C 62.161 381.732,62.262 381.791,69.430 385.907 C 71.947 387.352,74.782 389.029,75.729 389.632 C 76.677 390.235,77.527 390.728,77.618 390.728 C 77.710 390.728,79.512 391.772,81.623 393.046 C 83.733 394.321,85.543 395.364,85.643 395.364 C 85.744 395.364,87.116 396.160,88.691 397.132 C 90.267 398.105,92.227 399.276,93.046 399.735 C 93.866 400.195,95.813 401.308,97.372 402.209 C 99.475 403.424,100.300 403.750,100.563 403.468 C 101.366 402.609,110.951 397.327,111.308 397.547 C 111.530 397.684,111.603 397.641,111.481 397.444 C 111.202 396.991,124.033 389.610,124.547 389.928 C 124.777 390.070,124.849 390.026,124.722 389.821 C 124.442 389.368,142.916 378.688,143.430 379.006 C 143.647 379.140,143.722 379.097,143.603 378.905 C 143.324 378.454,179.662 357.491,180.175 357.808 C 180.406 357.951,180.478 357.908,180.351 357.702 C 180.115 357.319,198.506 346.545,198.939 346.812 C 199.083 346.901,199.220 346.711,199.244 346.389 C 199.290 345.788,100.143 288.219,99.931 288.724 " stroke="none" fill="#04249c" fill-rule="evenodd"></path><path id="path1" d="M200.413 58.190 L 200.497 116.013 202.152 116.993 C 203.063 117.531,204.292 118.250,204.884 118.589 C 205.476 118.928,206.445 119.483,207.036 119.822 C 208.104 120.434,218.136 126.232,224.172 129.726 C 225.902 130.728,227.914 131.884,228.642 132.296 C 229.371 132.707,231.308 133.827,232.947 134.783 C 238.218 137.860,246.163 142.451,247.185 143.013 C 247.732 143.313,249.222 144.167,250.497 144.912 C 253.460 146.643,259.094 149.896,260.596 150.744 C 261.233 151.103,264.959 153.260,268.874 155.536 C 272.790 157.812,278.079 160.871,280.629 162.335 C 283.179 163.799,286.680 165.815,288.411 166.815 C 291.447 168.570,292.484 169.166,294.785 170.484 C 295.377 170.822,296.664 171.576,297.646 172.158 C 298.630 172.742,299.559 173.090,299.714 172.935 C 299.869 172.780,300.034 146.782,300.081 115.162 C 300.127 83.542,300.117 57.720,300.057 57.779 C 299.998 57.839,298.731 57.180,297.243 56.316 C 295.754 55.452,292.152 53.364,289.238 51.675 C 286.325 49.987,283.866 48.510,283.775 48.392 C 283.684 48.275,283.460 48.153,283.278 48.121 C 283.096 48.090,279.296 45.952,274.834 43.370 C 270.373 40.789,263.369 36.738,259.272 34.369 C 255.174 31.999,251.747 29.965,251.656 29.848 C 251.565 29.731,251.341 29.610,251.159 29.579 C 250.977 29.547,249.114 28.524,247.020 27.305 C 244.925 26.086,239.785 23.113,235.596 20.699 C 231.407 18.284,226.119 15.235,223.845 13.924 C 221.571 12.612,219.599 11.364,219.463 11.151 C 219.327 10.937,219.213 10.890,219.210 11.048 C 219.208 11.206,218.870 11.116,218.460 10.848 C 217.789 10.410,206.998 4.160,202.234 1.450 L 200.329 0.366 200.413 58.190 M97.185 174.903 C 95.546 175.842,90.629 178.681,86.258 181.211 C 81.887 183.742,78.162 185.838,77.980 185.870 C 77.798 185.901,77.574 186.026,77.482 186.147 C 77.390 186.267,75.527 187.397,73.343 188.658 C 71.158 189.919,66.316 192.711,62.583 194.864 C 58.849 197.016,53.522 200.090,50.745 201.695 C 47.968 203.299,45.693 204.506,45.690 204.376 C 45.688 204.246,45.573 204.315,45.436 204.531 C 45.299 204.747,41.390 207.107,36.749 209.777 C 32.108 212.447,27.050 215.373,25.508 216.280 C 23.966 217.187,22.550 217.955,22.362 217.988 C 22.174 218.020,21.945 218.142,21.854 218.258 C 21.662 218.504,20.501 219.188,9.196 225.716 C 4.594 228.374,0.642 230.554,0.414 230.561 C 0.084 230.571,0.000 242.288,0.000 288.007 L 0.000 345.440 0.745 344.968 C 1.155 344.708,23.804 331.769,51.076 316.216 L 100.662 287.937 100.662 230.558 C 100.662 198.999,100.550 173.182,100.414 173.187 C 100.277 173.191,98.825 173.964,97.185 174.903 M225.497 258.749 C 218.035 260.812,214.114 269.796,216.888 278.478 C 220.166 288.741,234.175 290.756,239.204 281.689 C 241.024 278.408,240.977 278.188,238.263 277.269 C 235.276 276.257,234.894 276.275,234.662 277.434 C 233.850 281.494,228.516 283.489,225.040 281.032 C 221.502 278.530,221.267 267.920,224.685 264.949 C 227.905 262.149,232.789 263.240,234.396 267.120 C 234.867 268.256,234.564 268.262,238.970 267.030 L 240.689 266.549 239.999 264.890 C 237.825 259.657,231.658 257.046,225.497 258.749 M132.119 261.175 L 132.118 263.742 136.258 263.640 L 140.397 263.538 140.397 275.147 L 140.397 286.755 143.212 286.755 L 146.026 286.755 146.026 275.147 L 146.026 263.538 150.166 263.640 L 154.306 263.742 154.305 261.175 L 154.305 258.609 143.212 258.609 L 132.119 258.609 132.119 261.175 M157.864 258.788 C 157.728 258.933,157.616 265.284,157.616 272.903 L 157.616 286.755 160.596 286.755 L 163.576 286.755 163.576 281.674 L 163.576 276.592 168.227 276.370 C 173.419 276.122,174.938 275.650,176.859 273.684 C 180.750 269.705,179.562 261.985,174.700 259.657 C 173.023 258.854,158.511 258.105,157.864 258.788 M189.073 272.669 L 189.073 286.755 192.053 286.755 L 195.033 286.755 195.033 280.795 L 195.033 274.834 200.497 274.834 L 205.960 274.834 205.960 280.795 L 205.960 286.755 208.775 286.755 L 211.589 286.755 211.589 272.682 L 211.589 258.609 208.775 258.609 L 205.960 258.609 205.960 264.073 L 205.960 269.536 200.505 269.536 L 195.050 269.536 194.959 264.156 L 194.868 258.775 191.970 258.679 L 189.073 258.583 189.073 272.669 M245.033 272.682 L 245.033 286.755 247.634 286.755 L 250.235 286.755 250.469 281.954 C 250.597 279.314,250.605 276.997,250.487 276.805 C 250.368 276.613,250.379 274.359,250.511 271.796 L 250.751 267.137 253.190 276.820 C 254.532 282.146,255.629 286.566,255.629 286.642 C 255.629 286.718,256.928 286.738,258.516 286.685 L 261.403 286.589 263.968 276.490 L 266.534 266.391 266.545 276.573 L 266.556 286.755 269.374 286.755 L 272.193 286.755 272.106 272.765 L 272.020 258.775 267.671 258.683 L 263.323 258.591 263.155 259.511 C 263.063 260.016,262.523 262.144,261.955 264.238 C 261.387 266.333,260.464 269.945,259.904 272.265 C 258.641 277.506,258.605 277.523,257.542 273.405 C 257.064 271.551,256.295 268.618,255.835 266.887 C 255.374 265.157,254.748 262.773,254.444 261.589 C 253.651 258.512,253.825 258.609,249.132 258.609 L 245.033 258.609 245.033 272.682 M168.253 263.874 C 171.697 264.176,172.847 264.992,172.935 267.196 C 173.050 270.089,171.694 271.035,166.970 271.356 L 163.576 271.586 163.576 267.581 L 163.576 263.576 164.487 263.600 C 164.988 263.613,166.682 263.736,168.253 263.874 M178.477 283.940 L 178.477 286.755 181.291 286.755 L 184.106 286.755 184.106 283.940 L 184.106 281.126 181.291 281.126 L 178.477 281.126 178.477 283.940 M296.026 290.468 C 294.114 291.573,292.103 292.748,291.556 293.079 C 291.010 293.410,290.099 293.918,289.531 294.208 C 288.964 294.498,288.148 295.063,287.718 295.464 C 287.288 295.864,286.858 296.168,286.763 296.139 C 286.491 296.057,284.757 296.902,282.947 298.000 C 282.036 298.553,280.323 299.548,279.139 300.213 C 277.955 300.878,275.795 302.118,274.338 302.968 C 272.881 303.819,270.944 304.950,270.033 305.482 C 269.123 306.014,268.079 306.631,267.715 306.854 C 267.351 307.076,266.829 307.364,266.556 307.494 C 266.283 307.623,265.315 308.191,264.404 308.756 C 263.493 309.321,262.376 309.973,261.921 310.206 C 261.465 310.438,260.497 310.984,259.768 311.418 C 258.080 312.426,257.411 312.807,253.974 314.721 C 252.425 315.583,250.488 316.710,249.669 317.226 C 248.849 317.742,246.614 319.045,244.702 320.121 C 240.786 322.325,237.403 324.285,235.927 325.204 C 235.381 325.544,234.710 325.924,234.437 326.049 C 234.164 326.174,233.358 326.639,232.647 327.082 C 231.935 327.526,230.669 328.263,229.832 328.722 C 227.686 329.898,226.843 330.383,225.331 331.311 C 224.603 331.758,223.262 332.516,222.351 332.996 C 221.440 333.476,219.280 334.722,217.550 335.765 C 215.820 336.808,213.733 338.030,212.914 338.481 C 212.094 338.933,209.934 340.169,208.113 341.228 C 206.291 342.288,204.429 343.362,203.974 343.614 C 201.634 344.913,200.513 345.646,200.415 345.940 C 200.355 346.119,204.202 348.474,208.963 351.172 C 213.725 353.870,217.822 356.280,218.070 356.528 C 218.317 356.775,218.601 356.969,218.700 356.959 C 219.176 356.910,253.373 376.387,253.679 376.882 C 253.791 377.062,253.940 377.182,254.011 377.150 C 254.245 377.043,255.960 377.917,255.960 378.144 C 255.960 378.266,256.147 378.373,256.374 378.381 C 256.904 378.400,288.839 396.641,289.110 397.079 C 289.221 397.260,289.370 397.381,289.441 397.349 C 289.708 397.226,291.391 398.132,291.391 398.398 C 291.391 398.550,291.508 398.638,291.652 398.593 C 291.796 398.547,293.794 399.569,296.093 400.863 L 300.273 403.216 307.885 398.849 C 339.482 380.719,379.292 358.127,379.522 358.195 C 379.676 358.241,379.801 358.153,379.801 358.000 C 379.801 357.695,381.473 356.803,381.871 356.896 C 382.007 356.928,382.119 356.829,382.119 356.676 C 382.119 356.371,383.791 355.479,384.189 355.571 C 384.325 355.603,384.437 355.504,384.437 355.351 C 384.437 355.046,386.109 354.154,386.507 354.247 C 386.643 354.279,386.755 354.180,386.755 354.027 C 386.755 353.781,388.427 352.852,388.671 352.961 C 388.723 352.985,388.958 352.812,389.194 352.578 C 389.429 352.344,391.732 350.960,394.312 349.503 C 396.892 348.046,399.003 346.759,399.005 346.643 C 399.006 346.527,377.065 333.657,350.248 318.043 C 323.431 302.429,301.043 289.385,300.496 289.056 L 299.502 288.458 296.026 290.468 " stroke="none" fill="#148bdb" fill-rule="evenodd"></path><path id="path2" d="M198.344 0.985 C 196.623 2.032,182.349 10.282,180.132 11.511 C 179.313 11.965,177.450 13.040,175.993 13.899 C 174.536 14.759,170.886 16.880,167.881 18.613 C 164.876 20.347,159.512 23.442,155.960 25.491 C 152.409 27.541,148.982 29.516,148.344 29.881 C 147.707 30.246,144.205 32.266,140.563 34.370 C 129.198 40.934,115.376 48.908,107.533 53.423 L 100.000 57.760 100.000 115.284 C 100.000 153.295,100.112 172.878,100.331 173.013 C 100.513 173.126,103.084 171.812,106.043 170.092 C 114.174 165.369,135.404 153.112,146.854 146.531 C 149.950 144.751,155.762 141.394,159.768 139.071 C 163.775 136.748,173.758 130.976,181.954 126.245 C 190.149 121.513,197.599 117.201,198.510 116.662 L 200.166 115.682 200.249 58.107 C 200.295 26.441,200.221 0.430,200.084 0.305 C 199.947 0.180,199.164 0.486,198.344 0.985 M299.835 173.558 C 299.741 173.805,299.703 199.757,299.749 231.230 L 299.834 288.454 349.610 317.448 C 376.987 333.395,399.487 346.311,399.610 346.152 C 399.733 345.992,399.760 320.047,399.669 288.496 L 399.503 231.132 397.185 229.768 C 393.637 227.679,388.653 224.773,387.914 224.361 C 387.550 224.158,385.836 223.156,384.106 222.135 C 377.847 218.440,358.388 207.036,356.943 206.216 C 356.130 205.755,352.036 203.369,347.848 200.915 C 343.659 198.461,334.048 192.830,326.490 188.403 C 318.932 183.975,311.929 179.878,310.927 179.299 C 309.925 178.721,307.291 177.180,305.072 175.877 C 300.329 173.090,300.059 172.970,299.835 173.558 M132.119 209.597 L 132.119 245.408 153.394 245.286 C 179.564 245.135,180.581 244.953,186.103 239.409 C 196.228 229.245,192.646 211.093,179.833 207.634 C 179.084 207.432,179.137 207.355,180.704 206.349 C 191.997 199.103,190.823 182.067,178.631 176.268 C 174.213 174.167,173.471 174.102,151.738 173.936 L 132.119 173.787 132.119 209.597 M208.278 209.603 L 208.278 245.364 215.728 245.364 L 223.179 245.364 223.195 234.520 L 223.211 223.675 228.795 217.931 L 234.379 212.186 237.269 217.103 C 238.858 219.807,241.081 223.584,242.207 225.497 C 243.334 227.409,246.405 232.661,249.032 237.168 L 253.808 245.363 263.347 245.364 C 270.892 245.364,272.834 245.278,272.636 244.950 C 272.498 244.723,271.023 242.450,269.356 239.901 C 267.690 237.351,262.852 229.901,258.605 223.344 C 254.358 216.788,249.480 209.280,247.766 206.660 L 244.650 201.897 246.249 200.203 C 247.128 199.272,250.154 196.126,252.973 193.212 C 260.534 185.396,267.100 178.597,269.527 176.071 L 271.670 173.841 261.721 173.841 L 251.773 173.841 247.327 178.690 C 244.882 181.357,242.657 183.790,242.384 184.095 C 242.111 184.401,237.715 189.174,232.616 194.703 L 223.344 204.756 223.258 189.298 L 223.172 173.841 215.725 173.841 L 208.278 173.841 208.278 209.603 M169.702 186.859 C 175.865 189.621,175.660 198.507,169.371 201.195 C 168.006 201.778,160.080 202.247,150.745 202.296 L 146.689 202.318 146.689 194.181 L 146.689 186.045 157.533 186.155 C 167.095 186.252,168.534 186.335,169.702 186.859 M169.029 214.904 C 175.341 216.144,178.607 222.051,176.145 227.775 C 174.159 232.390,172.514 232.872,158.195 233.034 L 146.689 233.165 146.689 223.655 L 146.689 214.145 156.871 214.330 C 162.471 214.432,167.942 214.690,169.029 214.904 M100.331 288.507 C 100.331 288.599,122.608 301.534,149.834 317.253 C 177.061 332.971,199.338 345.932,199.338 346.054 C 199.338 346.176,177.248 359.034,150.248 374.627 C 95.980 405.970,100.127 403.549,100.341 403.759 C 100.427 403.843,102.806 402.566,105.629 400.921 C 108.452 399.275,111.432 397.556,112.252 397.101 C 113.071 396.645,114.934 395.569,116.391 394.710 C 117.848 393.851,121.498 391.729,124.503 389.996 C 127.508 388.263,132.873 385.167,136.424 383.118 C 139.975 381.068,143.402 379.093,144.040 378.728 C 146.481 377.330,158.880 370.175,169.040 364.301 C 174.868 360.931,182.094 356.761,185.099 355.034 C 195.363 349.136,198.510 347.291,198.825 346.990 C 198.998 346.824,199.413 346.689,199.747 346.689 C 201.250 346.689,199.281 345.240,192.323 341.228 C 188.259 338.885,182.177 335.379,178.808 333.437 C 169.752 328.219,120.412 299.729,110.265 293.860 C 101.681 288.895,100.331 288.167,100.331 288.507 M91.791 293.180 C 84.895 297.131,81.834 299.008,84.603 297.588 C 87.045 296.336,100.131 288.745,99.834 288.753 C 99.652 288.758,96.033 290.750,91.791 293.180 M82.368 298.534 C 81.130 299.205,81.205 299.485,82.450 298.841 C 82.997 298.559,83.444 298.257,83.444 298.170 C 83.444 297.957,83.408 297.969,82.368 298.534 M80.050 299.858 C 78.812 300.530,78.887 300.810,80.132 300.166 C 80.679 299.883,81.126 299.581,81.126 299.495 C 81.126 299.282,81.090 299.294,80.050 299.858 M77.732 301.183 C 76.494 301.854,76.569 302.134,77.815 301.490 C 78.361 301.208,78.808 300.906,78.808 300.819 C 78.808 300.606,78.772 300.618,77.732 301.183 M75.414 302.507 C 74.176 303.179,74.251 303.459,75.497 302.815 C 76.043 302.532,76.490 302.230,76.490 302.144 C 76.490 301.931,76.454 301.943,75.414 302.507 M73.096 303.832 C 71.858 304.503,71.933 304.783,73.179 304.139 C 73.725 303.857,74.172 303.555,74.172 303.468 C 74.172 303.255,74.137 303.267,73.096 303.832 M70.778 305.156 C 69.540 305.828,69.616 306.108,70.861 305.464 C 71.407 305.181,71.854 304.879,71.854 304.793 C 71.854 304.580,71.819 304.592,70.778 305.156 M68.460 306.481 C 67.222 307.152,67.298 307.432,68.543 306.788 C 69.089 306.506,69.536 306.204,69.536 306.117 C 69.536 305.904,69.501 305.916,68.460 306.481 M66.142 307.805 C 64.904 308.477,64.980 308.757,66.225 308.113 C 66.772 307.830,67.219 307.528,67.219 307.442 C 67.219 307.229,67.183 307.241,66.142 307.805 M63.825 309.130 C 62.587 309.801,62.662 310.081,63.907 309.437 C 64.454 309.155,64.901 308.853,64.901 308.766 C 64.901 308.553,64.865 308.565,63.825 309.130 M61.507 310.454 C 60.269 311.126,60.344 311.406,61.589 310.762 C 62.136 310.479,62.583 310.177,62.583 310.091 C 62.583 309.878,62.547 309.890,61.507 310.454 M59.189 311.779 C 57.951 312.450,58.026 312.730,59.272 312.086 C 59.818 311.804,60.265 311.502,60.265 311.415 C 60.265 311.202,60.229 311.214,59.189 311.779 M53.642 314.939 C 51.366 316.233,49.354 317.450,49.172 317.642 C 48.990 317.834,49.363 317.697,50.000 317.337 C 58.005 312.814,58.399 312.576,57.864 312.584 C 57.819 312.585,55.919 313.644,53.642 314.939 M47.599 318.401 C 46.361 319.073,46.437 319.353,47.682 318.709 C 48.228 318.426,48.675 318.124,48.675 318.038 C 48.675 317.825,48.640 317.837,47.599 318.401 M44.123 320.389 C 42.984 321.034,42.053 321.638,42.053 321.732 C 42.053 321.915,45.652 319.955,46.175 319.487 C 46.758 318.966,46.203 319.209,44.123 320.389 M31.198 327.771 C 25.501 331.024,20.733 333.800,20.602 333.940 C 20.151 334.424,40.842 322.758,41.540 322.135 C 42.274 321.479,41.041 322.152,31.198 327.771 M19.123 334.626 C 17.885 335.298,17.960 335.578,19.205 334.934 C 19.752 334.651,20.199 334.349,20.199 334.263 C 20.199 334.050,20.163 334.062,19.123 334.626 M16.805 335.951 C 15.567 336.623,15.642 336.902,16.887 336.258 C 17.434 335.976,17.881 335.674,17.881 335.588 C 17.881 335.374,17.845 335.386,16.805 335.951 M14.487 337.275 C 13.249 337.947,13.324 338.227,14.570 337.583 C 15.116 337.300,15.563 336.998,15.563 336.912 C 15.563 336.699,15.527 336.711,14.487 337.275 M12.169 338.600 C 10.931 339.272,11.006 339.551,12.252 338.907 C 12.798 338.625,13.245 338.323,13.245 338.237 C 13.245 338.023,13.209 338.035,12.169 338.600 M9.851 339.924 C 8.613 340.596,8.688 340.876,9.934 340.232 C 10.480 339.949,10.927 339.647,10.927 339.561 C 10.927 339.348,10.892 339.360,9.851 339.924 M7.533 341.249 C 6.295 341.921,6.371 342.200,7.616 341.556 C 8.162 341.274,8.609 340.972,8.609 340.886 C 8.609 340.672,8.574 340.684,7.533 341.249 M5.215 342.574 C 3.977 343.245,4.053 343.525,5.298 342.881 C 5.844 342.598,6.291 342.296,6.291 342.210 C 6.291 341.997,6.256 342.009,5.215 342.574 M2.897 343.898 C 1.659 344.570,1.735 344.849,2.980 344.205 C 3.526 343.923,3.974 343.621,3.974 343.535 C 3.974 343.321,3.938 343.333,2.897 343.898 " stroke="none" fill="#042b94" fill-rule="evenodd"></path><path id="path3" d="M164.326 271.430 C 164.829 271.506,165.574 271.504,165.981 271.425 C 166.389 271.347,165.977 271.284,165.066 271.287 C 164.156 271.289,163.822 271.354,164.326 271.430 " stroke="none" fill="#0b51b0" fill-rule="evenodd"></path><path id="path4" d="M200.662 0.480 C 200.662 0.571,201.109 0.876,201.656 1.159 C 202.202 1.441,202.649 1.598,202.649 1.507 C 202.649 1.416,202.202 1.110,201.656 0.828 C 201.109 0.545,200.662 0.389,200.662 0.480 M206.954 4.122 C 206.954 4.213,207.401 4.519,207.947 4.801 C 208.493 5.084,208.940 5.241,208.940 5.149 C 208.940 5.058,208.493 4.753,207.947 4.470 C 207.401 4.188,206.954 4.031,206.954 4.122 M224.172 14.056 C 224.172 14.147,224.619 14.453,225.166 14.735 C 225.712 15.018,226.159 15.174,226.159 15.083 C 226.159 14.992,225.712 14.687,225.166 14.404 C 224.619 14.121,224.172 13.965,224.172 14.056 M232.781 19.023 C 232.781 19.114,233.228 19.419,233.775 19.702 C 234.321 19.985,234.768 20.141,234.768 20.050 C 234.768 19.959,234.321 19.653,233.775 19.371 C 233.228 19.088,232.781 18.932,232.781 19.023 M262.583 36.241 C 262.583 36.332,263.030 36.638,263.576 36.921 C 264.123 37.203,264.570 37.360,264.570 37.269 C 264.570 37.178,264.123 36.872,263.576 36.589 C 263.030 36.307,262.583 36.150,262.583 36.241 M264.901 37.566 C 264.901 37.657,265.348 37.963,265.894 38.245 C 266.440 38.528,266.887 38.684,266.887 38.593 C 266.887 38.502,266.440 38.196,265.894 37.914 C 265.348 37.631,264.901 37.475,264.901 37.566 M294.702 54.784 C 294.702 54.875,295.149 55.181,295.695 55.464 C 296.242 55.746,296.689 55.903,296.689 55.812 C 296.689 55.721,296.242 55.415,295.695 55.132 C 295.149 54.850,294.702 54.693,294.702 54.784 M299.588 57.652 C 299.919 58.076,299.986 69.947,299.919 115.682 C 299.873 147.305,299.946 173.179,300.083 173.179 C 300.695 173.179,300.365 58.055,299.752 57.574 C 299.237 57.170,299.219 57.179,299.588 57.652 M97.599 174.362 C 96.361 175.033,96.437 175.313,97.682 174.669 C 98.228 174.386,98.675 174.085,98.675 173.998 C 98.675 173.785,98.640 173.797,97.599 174.362 M95.281 175.686 C 94.044 176.358,94.119 176.637,95.364 175.993 C 95.911 175.711,96.358 175.409,96.358 175.323 C 96.358 175.110,96.322 175.122,95.281 175.686 M65.480 192.905 C 64.242 193.576,64.318 193.856,65.563 193.212 C 66.109 192.929,66.556 192.628,66.556 192.541 C 66.556 192.328,66.521 192.340,65.480 192.905 M63.162 194.229 C 61.924 194.901,62.000 195.180,63.245 194.536 C 63.791 194.254,64.238 193.952,64.238 193.866 C 64.238 193.653,64.203 193.665,63.162 194.229 M39.652 207.805 C 38.414 208.477,38.490 208.757,39.735 208.113 C 40.281 207.830,40.728 207.528,40.728 207.442 C 40.728 207.229,40.693 207.241,39.652 207.805 M16.142 221.381 C 14.904 222.053,14.980 222.333,16.225 221.689 C 16.772 221.406,17.219 221.104,17.219 221.018 C 17.219 220.805,17.183 220.817,16.142 221.381 M7.533 226.348 C 6.295 227.020,6.371 227.300,7.616 226.656 C 8.162 226.373,8.609 226.071,8.609 225.985 C 8.609 225.772,8.574 225.784,7.533 226.348 M134.354 263.821 C 135.493 263.886,137.355 263.886,138.493 263.821 C 139.632 263.757,138.700 263.704,136.424 263.704 C 134.147 263.704,133.216 263.757,134.354 263.821 M147.930 263.821 C 149.069 263.886,150.931 263.886,152.070 263.821 C 153.208 263.757,152.276 263.704,150.000 263.704 C 147.724 263.704,146.792 263.757,147.930 263.821 M164.156 263.810 C 164.565 263.889,165.236 263.889,165.646 263.810 C 166.055 263.731,165.720 263.666,164.901 263.666 C 164.081 263.666,163.746 263.731,164.156 263.810 M250.442 274.503 C 250.442 275.869,250.501 276.428,250.572 275.745 C 250.644 275.062,250.644 273.945,250.572 273.262 C 250.501 272.579,250.442 273.137,250.442 274.503 M250.440 283.278 C 250.441 284.553,250.501 285.034,250.573 284.347 C 250.644 283.660,250.643 282.617,250.570 282.029 C 250.497 281.441,250.438 282.003,250.440 283.278 M206.291 349.817 C 206.291 349.908,206.738 350.214,207.285 350.497 C 207.831 350.779,208.278 350.936,208.278 350.845 C 208.278 350.754,207.831 350.448,207.285 350.166 C 206.738 349.883,206.291 349.726,206.291 349.817 M208.609 351.142 C 208.609 351.233,209.056 351.539,209.603 351.821 C 210.149 352.104,210.596 352.260,210.596 352.169 C 210.596 352.078,210.149 351.773,209.603 351.490 C 209.056 351.208,208.609 351.051,208.609 351.142 M213.245 353.791 C 213.245 353.882,213.692 354.188,214.238 354.470 C 214.785 354.753,215.232 354.909,215.232 354.818 C 215.232 354.727,214.785 354.422,214.238 354.139 C 213.692 353.857,213.245 353.700,213.245 353.791 M244.040 371.341 C 244.040 371.432,244.487 371.737,245.033 372.020 C 245.579 372.302,246.026 372.459,246.026 372.368 C 246.026 372.277,245.579 371.971,245.033 371.689 C 244.487 371.406,244.040 371.250,244.040 371.341 M248.675 373.990 C 248.675 374.081,249.123 374.386,249.669 374.669 C 250.215 374.951,250.662 375.108,250.662 375.017 C 250.662 374.926,250.215 374.620,249.669 374.338 C 249.123 374.055,248.675 373.899,248.675 373.990 M270.199 386.241 C 270.199 386.332,270.646 386.638,271.192 386.921 C 271.738 387.203,272.185 387.360,272.185 387.269 C 272.185 387.178,271.738 386.872,271.192 386.589 C 270.646 386.307,270.199 386.150,270.199 386.241 M320.447 391.580 C 319.209 392.252,319.284 392.531,320.530 391.887 C 321.076 391.605,321.523 391.303,321.523 391.217 C 321.523 391.004,321.488 391.016,320.447 391.580 M279.470 391.539 C 279.470 391.630,279.917 391.936,280.464 392.219 C 281.010 392.501,281.457 392.658,281.457 392.567 C 281.457 392.476,281.010 392.170,280.464 391.887 C 279.917 391.605,279.470 391.448,279.470 391.539 M318.129 392.905 C 316.891 393.576,316.967 393.856,318.212 393.212 C 318.758 392.929,319.205 392.628,319.205 392.541 C 319.205 392.328,319.170 392.340,318.129 392.905 M315.811 394.229 C 314.573 394.901,314.649 395.180,315.894 394.536 C 316.440 394.254,316.887 393.952,316.887 393.866 C 316.887 393.653,316.852 393.665,315.811 394.229 M284.106 394.188 C 284.106 394.279,284.553 394.585,285.099 394.868 C 285.646 395.150,286.093 395.307,286.093 395.216 C 286.093 395.125,285.646 394.819,285.099 394.536 C 284.553 394.254,284.106 394.097,284.106 394.188 " stroke="none" fill="#0c8cd7" fill-rule="evenodd"></path></g></svg>