<svg height="375pt" viewBox="0 0 375.00012 374.99998" width="375.00012pt" xmlns="http://www.w3.org/2000/svg"><g fill="#16356e" transform="scale(13.22861)"><path d="m8.343751 16.46093c-.144531.0156-.320312.14844-.292969.29688.02344.10547.222657.19141.339844.18359.332032-.0234.339844-.52343-.04687-.48047"/><path d="m7.964845 18.02343h-.285156l-.332029.52344h-.004v-.52344h-.26953v1.30469h.26953v-.38281l.0977-.15234.265622.53515h.292969l-.390625-.74219zm0 0"/><path d="m8.593751 18.53125-.171875-.50782h-.296875l.335938.79297v.51172h.261719v-.51172l.34375-.79297h-.285157zm0 0"/><path d="m9.808595 18.90234c-.0039.0625-.01172.10938-.02734.14844-.0078.0391-.03125.0664-.04687.0859-.02734.0156-.0625.0273-.101562.0273-.03516 0-.06641-.0117-.08984-.0273-.02734-.0195-.04687-.0469-.05469-.0859-.01562-.0391-.02344-.0859-.02734-.14844-.0039-.0625-.0039-.13672-.0039-.22266 0-.0898 0-.16015.0039-.22265s.01172-.11328.02734-.15235c.0078-.0391.02734-.0664.05469-.0859.02344-.0195.05469-.0234.08984-.0234.03906 0 .07422.004.101562.0234.01563.0195.03906.0469.04687.0859.01563.0391.02344.0899.02734.15235.0078.0625.01172.13281.01172.22265 0 .0859-.0039.16016-.01172.22266m.195313-.71484c-.02734-.0586-.07422-.10547-.132813-.14063-.05469-.0312-.136719-.0469-.238281-.0469-.09766 0-.175782.0156-.234375.0469-.05469.0352-.105469.082-.136719.14063-.03125.0586-.05078.13672-.05469.21875-.01172.082-.01562.17578-.01562.27343 0 .0977.0039.19141.01562.26954.0039.0859.02344.15625.05469.21484.03125.0625.08203.10937.136719.13672.05859.0351.136719.0469.234375.0469.101562 0 .183594-.0117.238281-.0469.05859-.0274.105469-.0742.132813-.13672.03125-.0586.05469-.12891.0625-.21484.0078-.0781.01562-.17188.01562-.26954 0-.0976-.0078-.1914-.01562-.27343-.0078-.082-.03125-.16016-.0625-.21875"/><path d="m10.222658 18.24218h.277343v1.08594h.269531v-1.08594h.28125v-.21875h-.828124zm0 0"/><path d="m11.773439 18.90234c0 .0625-.01563.10938-.02344.14844-.01563.0391-.03516.0664-.05859.0859-.02344.0156-.05469.0273-.09375.0273s-.07031-.0117-.09766-.0273c-.01953-.0195-.03906-.0469-.05078-.0859-.01563-.0391-.01953-.0859-.02734-.14844 0-.0625-.0039-.13672-.0039-.22266 0-.0898.0039-.16015.0039-.22265.0078-.0625.01172-.11328.02734-.15235.01172-.0391.03125-.0664.05078-.0859.02734-.0195.05859-.0234.09766-.0234.03906 0 .07031.004.09375.0234.02344.0195.04297.0469.05859.0859.0078.0391.02344.0899.02344.15235.0039.0625.0039.13281.0039.22265 0 .0859 0 .16016-.0039.22266m.195312-.71484c-.02344-.0586-.07813-.10547-.136719-.14063-.05859-.0312-.136718-.0469-.234374-.0469-.101563 0-.175782.0156-.234376.0469-.0625.0352-.105468.082-.136718.14063-.02734.0586-.05078.13672-.05859.21875-.01172.082-.01172.17578-.01172.27343 0 .0977 0 .19141.01172.26954.0078.0859.03125.15625.05859.21484.03125.0625.07422.10937.136718.13672.05859.0351.132813.0469.234376.0469.09766 0 .175781-.0117.234374-.0469.05859-.0274.113282-.0742.136719-.13672.03125-.0586.05078-.12891.05859-.21484.01172-.0781.01172-.17188.01172-.26954 0-.0976 0-.1914-.01172-.27343-.0078-.082-.02734-.16016-.05859-.21875"/><path d="m16.957032 18.95703c0 .0703-.0078.12109-.01953.15625-.01953.0312-.04687.0508-.09375.0508-.05078 0-.08203-.0195-.09375-.0508-.01953-.0352-.02734-.0859-.02734-.15625v-.0391h-.238282v.0547c0 .0547 0 .10157.01563.14453.0078.0469.02344.0899.05469.125.02344.0352.05859.0586.101562.0781.04297.0234.105469.0273.167969.0273.136719 0 .234375-.0273.300781-.0859.0625-.0586.09375-.16016.09375-.29688v-.94141h-.261719zm0 0"/><path d="m17.757814 18.83984.125-.58984h.0039l.128906.58984zm-.03125-.81641-.351563 1.30469h.277344l.05859-.27344h.347656l.0625.27344h.269531l-.339844-1.30469zm0 0"/><path d="m19.050782 18.5664c-.03516.0352-.07422.0508-.125.0508h-.121093v-.39843h.105469c.07422 0 .121093.0117.148437.0469.02734.0391.04687.0859.04687.15625 0 .0664-.02344.11719-.05469.14453m.292969-.29687c-.01172-.043-.03516-.0859-.0625-.125-.02734-.0352-.0625-.0625-.109375-.0899-.04297-.0195-.101562-.0312-.167968-.0312h-.464844v1.30469h.265625v-.51953h.144531c.05859 0 .117188-.008.167969-.0234.05078-.0156.09375-.0391.128906-.0703.03516-.0312.0625-.0742.08594-.12109.02344-.0547.03516-.10938.03516-.17578 0-.0508-.0078-.0977-.02344-.14844"/><path d="m19.746095 18.83984.121094-.58984h.0078l.125.58984zm-.03516-.81641-.34375 1.30469h.269531l.06641-.27344h.34375l.05859.27344h.28125l-.355469-1.30469zm0 0"/><path d="m21.144532 18.91797h-.0039l-.320312-.89454h-.304688v1.30469h.242188v-.91015h.0039l.320312.91015h.300782v-1.30469h-.238282zm0 0"/><path d="m12.94922 19.28125c.05078 0 .09375-.0391.09375-.0898v-.8164h.679688v.8164c0 .0508.04297.0898.09375.0898s.09375-.0391.09375-.0898v-.8164h.800781v.8164c0 .0508.04297.0898.09375.0898s.08984-.0391.08984-.0898v-.8164h.683594v.8164c0 .0508.04297.0898.09766.0898.04688 0 .08984-.0391.08984-.0898v-.90625c0-.0547-.04297-.0937-.08984-.0937h-1.273437v-.40625c0-.0508-.04297-.0937-.09375-.0937-.04687 0-.08984.043-.08984.0937v.40625h-1.269536c-.05469 0-.09375.0391-.09375.0937v.90625c0 .0508.03906.0898.09375.0898"/><path d="m12.941408 20.72265h.554687c.05469 0 .09766-.0391.09766-.0937 0-.0508-.04297-.0898-.09766-.0898h-.464844v-.21094h.464844c.05469 0 .09766-.0391.09766-.0898 0-.0508-.04297-.0937-.09766-.0937h-.464844v-.22266h.464844c.05469 0 .09766-.043.09766-.0937 0-.0508-.04297-.0898-.09766-.0898h-.464844v-.14844c0-.0547-.03906-.0937-.08984-.0937-.05469 0-.09375.0391-.09375.0937v1.03906c0 .0547.03906.0937.09375.0937"/><path d="m15.679689 19.49609c-.04687 0-.08594.0391-.08594.0937v.14844h-.472656c-.05078 0-.08984.0391-.08984.0898 0 .0508.03906.0937.08984.0937h.472656v.22266h-.472656c-.05078 0-.08984.043-.08984.0937 0 .0508.03906.0898.08984.0898h.472656v.21094h-.472656c-.05078 0-.08984.0391-.08984.0898 0 .0547.03906.0937.08984.0937h.558594c.05469 0 .09375-.0391.09375-.0937v-1.03906c0-.0547-.03906-.0937-.09375-.0937"/><path d="m14.308595 20.27343-.238281-.16406.238281-.16406.238281.16406zm.496094-.16406c0-.0273-.01563-.0586-.04297-.0742l-.285156-.20312.285156-.20313c.04297-.0273.05469-.0859.02344-.125-.02734-.043-.08203-.0547-.125-.0273l-.351563.24219-.34375-.24219c-.04297-.0273-.101563-.0156-.132813.0273-.02734.0391-.01172.0977.02734.125l.285156.20313-.285156.20312c-.02734.0156-.03906.0469-.03906.0742 0 .0312.01172.0586.03906.0742l.292969.20313-.292969.20312c-.03906.0273-.05469.0859-.02734.12891.01953.0273.04688.043.07813.043.01953 0 .03906-.008.05469-.0195l.34375-.24218.351563.24218c.01172.0117.03125.0195.05078.0195.03125 0 .05469-.0156.07422-.043.03125-.043.01953-.10157-.02344-.12891l-.292969-.20312.292969-.20313c.02734-.0156.04297-.043.04297-.0742"/><path d="m15.675782 21.01172h-2.726562c-.05469 0-.09375.043-.09375.0898v1.56641c0 .0508.03906.0898.09375.0898.05078 0 .09375-.0391.09375-.0898v-1.47266h2.535156v1.44922c0 .0547.04297.0937.09766.0937.04688 0 .08984-.0391.08984-.0937v-1.54297c0-.0469-.04297-.0898-.08984-.0898"/><path d="m13.76172 21.54297h1.09375v.22265h-1.09375zm1.554688-.1836c-.05078 0-.09375.0391-.09375.0898v.72265h-.824219v-.21875h.550781c.05469 0 .08984-.043.08984-.0937v-.41015c0-.0508-.03516-.0898-.08984-.0898h-1.28125c-.05078 0-.08594.0391-.08594.0898v.41015c0 .0508.03516.0937.08594.0937h.546875v.21875h-.816406v-.72265c0-.0508-.04297-.0898-.08984-.0898-.05469 0-.09766.0391-.09766.0898v.8125c0 .0547.04297.0937.09766.0937h.90625v.22265h-.949219c-.04687 0-.08984.0391-.08984.0898 0 .0508.04297.0898.08984.0898h1.039063c.05469 0 .09375-.0391.09375-.0898v-.3125h.917969c.04687 0 .08984-.0391.08984-.0937v-.8125c0-.0508-.04297-.0898-.08984-.0898"/><path d="m23.976564 23.96875c-2.515625 2.50781-5.976563 4.05859-9.800782 4.05859-3.828124 0-7.292972-1.55078-9.800782-4.05859-2.50781-2.50391-4.05859-5.96485-4.05859-9.79297 0-3.82813 1.55078-7.28906 4.05859-9.79688 2.50781-2.50781 5.972658-4.05859 9.800782-4.05859 3.824219 0 7.285157 1.55078 9.800782 4.05859 2.503906 2.50782 4.054687 5.96875 4.054687 9.79688 0 3.82812-1.550781 7.28906-4.054687 9.79297m-9.800782-23.96875c-7.832032 0-14.175782 6.34765-14.175782 14.17578 0 7.82422 6.34375 14.17187 14.175782 14.17187 7.828126 0 14.171876-6.34765 14.171876-14.17187 0-7.82813-6.34375-14.17578-14.171876-14.17578"/><path d="m23.523439 23.52343c-2.394531 2.39454-5.699219 3.875-9.355469 3.875-3.640625 0-6.94922-1.48046-9.34375-3.875-2.39453-2.39453-3.87109-5.69531-3.87109-9.34765 0-3.65235 1.47656-6.96094 3.87109-9.34766 2.39453-2.39453 5.703125-3.875 9.34375-3.875 3.65625 0 6.960938 1.48047 9.355469 3.875 2.394531 2.38672 3.871093 5.69531 3.871093 9.34766 0 3.65234-1.476562 6.95312-3.871093 9.34765m-9.355469-22.77343c-7.41016 0-13.42187 6.00781-13.42187 13.42578 0 7.41015 6.01171 13.42187 13.42187 13.42187 7.425781 0 13.433594-6.01172 13.433594-13.42187 0-7.41797-6.007813-13.42578-13.433594-13.42578"/><path d="m3.89453 13.83203-.74609-.0625-.30469-.375 1.14453-.67969.0273-.38281-1.35547.83203-.78906-.99219-.0352.40625.96484 1.16016-1.05468-.082-.0234.28515 2.14844.17578zm0 0"/><path d="m4.30078 11.35156.082-.27734-.83203-.25-1-1.15235-.10156.33203.81641.88672-1.16407.29688-.10156.32812 1.46875-.41406zm0 0"/><path d="m3.55078 8.13281c.10938-.20313.26953-.32031.46875-.35938.19532-.0391.40625.004.62891.13282.21094.11328.36328.26953.46875.46093.10156.1875.0937.40235-.0391.6211-.12891.23437-.29688.36328-.50391.39062-.19922.0234-.39844-.0234-.60937-.14062-.26172-.14453-.42579-.31641-.48829-.51563-.0586-.20312-.0352-.39453.0742-.58984m.24219 1.35937c.28516.16016.55859.21875.82422.17188.28516-.0547.50781-.23047.67187-.51563.17188-.30859.20313-.60937.0742-.90234-.0977-.24219-.28906-.44531-.57422-.60547-.25781-.14844-.5039-.20703-.74218-.17578-.30469.0391-.54688.22266-.73047.55078-.17969.32031-.19922.625-.0625.91797.11328.22656.28515.41797.53906.55859"/><path d="m5.04297 6.1289 1.41016 1.27344.20312-.22656-1.41406-1.26953.48828-.53516-.19141-.17578-1.16796 1.29687.1875.17188zm0 0"/><path d="m7.04297 4.24609c.1875-.13281.38281-.17578.574219-.125.199219.0469.375.17578.519531.37891.140625.19922.21875.40234.234375.62109.01563.21484-.08594.39844-.296875.55078-.214844.15235-.425781.20313-.61719.14063-.19531-.0625-.35547-.19141-.5-.38672-.17578-.24219-.25-.46485-.22656-.67188.0312-.20703.12891-.375.3125-.50781m.32813 1.84766c.285151.0664.558589 0 .82812-.19141.285156-.20703.4375-.46875.453125-.78516.0039-.26953-.08594-.53125-.273437-.79296-.175782-.24219-.378907-.39844-.601563-.47266-.292965-.0898-.585935-.0273-.898435.19531-.29297.21094-.44141.48438-.4375.80469 0 .25391.0859.5.25781.73828.1875.26172.41406.42578.67188.50391"/><path d="m10.410158 4.23828c.203124.21094.476562.26172.820312.16015.351562-.10546.550781-.30468.601562-.58984.02734-.16016 0-.36328-.07031-.61719l-.351562-1.16406-.285157.0898.390625 1.27735c.04297.14844.05469.27344.03516.375-.03516.1875-.175781.3164-.414062.39062-.199219.0586-.363281.0273-.492188-.0977-.08984-.082-.148437-.19532-.199218-.34766l-.386719-1.27344-.28125.0859.351563 1.16016c.07812.2539.171874.4375.28125.55078"/><path d="m13.050782 3.95312-.08984-1.73828 1.179687 1.67969.328125-.0195-.117187-2.15235-.269532.0156.08594 1.74219-1.164062-1.6836-.34375.0156.117187 2.15234zm0 0"/><path d="m15.863282 1.86718-.289062-.0351-.269531 2.14062.292969.0312zm0 0"/><path d="m17.273439 4.38281 1.367187-1.83984-.3125-.0937-1.109375 1.58593-.06641-1.93359-.316406-.0937.144531 2.28906zm0 0"/><path d="m19.898439 5.60547.128906-.22657-1.144531-.6289.359375-.63672 1.03125.57031.117187-.21484-1.035156-.57422.320312-.57422 1.117188.62109.132812-.23047-1.375-.75781-1.039062 1.88672zm0 0"/><path d="m21.992189 4.82422.511719.46875c.07031.0625.121093.125.144531.18359.03906.11719.01172.23437-.09375.34375-.09766.10547-.195313.15625-.289063.14062-.08984-.008-.1875-.0625-.285156-.14843l-.484375-.44141zm-1.285157 1.40625.621094-.6836.480469.4375c.08594.0742.136719.14453.160156.19922.03516.10156.01563.20313-.07422.3125l-.234374.27734c-.05078.0664-.08594.11329-.105469.13672-.01172.0234-.02344.0469-.02734.0703l.261719.24218.03516-.0391c-.02344-.043-.01563-.0977.01953-.16016.01563-.0351.05469-.0898.105469-.14843l.191406-.21875c.07813-.0977.121094-.1836.132813-.25.0039-.0703-.01172-.14844-.05469-.23047.105469.0312.207031.0312.296875.008.09766-.0273.191406-.0859.28125-.18359.160156-.1836.203125-.375.121094-.57422-.05078-.10938-.128906-.21094-.25-.32422l-.722656-.66016-1.453125 1.59375zm0 0"/><path d="m22.808595 8.27734c-.132813-.19531-.164063-.36719-.101563-.52344.03516-.0859.101563-.16406.199219-.23828l-.15625-.23047c-.195312.13282-.304687.29297-.335937.49219-.02734.19922.03125.40625.179687.625.125.18359.277344.32031.460938.39844.179687.0859.371093.0586.570312-.0742.15625-.10938.238281-.24609.246094-.41406 0-.0977-.02344-.21094-.07031-.35157l-.109374-.27734c-.07422-.1875-.113282-.31641-.117188-.37891-.0078-.0976.03516-.17578.121094-.23437.07813-.0586.167968-.0742.265625-.0547.105469.0195.199219.0977.292969.23047.117187.17188.148437.32422.101562.45703-.02344.0703-.07813.14844-.160156.22656l.148437.22657c.199219-.14063.300781-.30078.304688-.48828.0039-.1875-.05469-.3711-.183594-.55469-.132813-.19922-.289063-.31641-.464844-.35156-.179687-.0391-.34375-.004-.507812.10546-.144531.10157-.214844.23047-.214844.39454 0 .0898.02734.22265.09766.40234l.105469.26953c.05859.14453.08594.26953.08594.35156 0 .0859-.04688.16407-.152344.23047-.121094.0859-.257813.0781-.402344-.0234-.07813-.0586-.144531-.125-.203125-.21484"/><path d="m23.582032 10.03906 1.953126-.90234-.121094-.26954-1.960938.90235zm0 0"/><path d="m24.031251 11.27734.07813.28516 1.832032-.51172.195312.69922.25-.0703-.476562-1.6875-.242188.0703.195312.70312zm0 0"/><path d="m24.414064 13.32422.01953.29687.871094-.0625 1.339843.72266-.02734-.33985-1.070313-.54687.988282-.69141-.02344-.33984-1.226562.90234zm0 0"/><path d="m4.23047 19.5039-.44141-.96484.59375-.27344.50782 1.09766.23828-.11328-.625-1.35547-1.95703.89844.12109.26562.89063-.40625.4414.95703zm0 0"/><path d="m5.98047 21.1875c-.043.19922-.16406.37109-.35937.52734-.19532.14844-.39454.23438-.61719.25391-.21485.0195-.40235-.0664-.5586-.27344-.16796-.21484-.21484-.41797-.16406-.61719.0547-.1914.1836-.36328.3711-.50781.23437-.18359.45703-.26563.66406-.25.21094.0195.3789.11719.51562.29297.14063.18359.19141.37109.14844.57422m.0469-.7461c-.22266-.28906-.4961-.42578-.81641-.40625-.25391.0117-.49609.10547-.72656.28516-.25391.19531-.41407.42578-.48047.68359-.0586.28516.0117.5625.21484.82813.21485.27344.48438.41406.79688.41406.26953 0 .53515-.0977.78906-.29297.23437-.17969.38672-.38672.44531-.61719.0859-.29687.0117-.58984-.22265-.89453"/><path d="m8.156251 22.60547-.832031 1.03515c-.0937.125-.19531.20313-.29297.2461-.17187.0781-.35547.0352-.55078-.1211-.16797-.1289-.23047-.28125-.19922-.46094.0195-.11718.0781-.23437.17578-.36328l.83203-1.03906-.23437-.17969-.75391.94141c-.16406.21094-.26172.38672-.30078.54297-.0625.28906.0547.54687.33985.77344.28515.23046.55468.28125.82031.16406.14453-.0703.30469-.20313.468748-.41406l.757812-.94532zm0 0"/><path d="m9.496095 25.32812-.222656-2.03515-.308594-.14454-.921875 1.94922.25.1211.746094-1.57813.238281 2.04297.296875.14063.921875-1.94922-.253906-.11719zm0 0"/><path d="m12.382814 25.48047c-.01563.0703-.03906.14062-.07031.21875-.05469.125-.113281.22656-.1875.30078-.09375.0937-.199219.14062-.308593.15625-.07422.008-.148438 0-.246094-.0195l-.496094-.10547.34375-1.61719.496094.10156c.226562.0508.371094.16016.445312.32422.06641.16406.08203.37891.02344.64063m-.355469-1.19532-.84375-.17968-.453125 2.10937.84375.17969c.355469.0742.636719-.0274.851562-.32031.125-.16016.214844-.35157.257813-.57813.05859-.29297.03906-.54297-.05469-.75781-.121094-.24219-.320313-.39063-.601563-.45313"/><path d="m13.890626 26.41797-.01172-.73047 1.1875-.0156-.0078-.25-1.183594.0156-.0078-.65235 1.285156-.0195-.0078-.26172-1.5625.0195.03125 2.15625 1.582032-.0234v-.25391zm0 0"/><path d="m17.48047 25.71093c-.04687.125-.109375.21875-.214844.28125-.05469.0352-.128906.0625-.222656.0859l-.492188.1211-.394531-1.60938.496094-.11719c.21875-.0547.398437-.0234.535156.0977.136719.11719.234375.30469.300781.56641.01563.0664.02344.14062.03516.22656.0078.13672-.01172.2539-.04297.34765m-.101562-1.35156c-.203126-.16797-.445313-.21484-.734376-.14453l-.835937.20703.515625 2.09375.832031-.20703c.355469-.0859.570313-.30859.632813-.65625.03906-.20312.03516-.41406-.01953-.63672-.07422-.28906-.203124-.50781-.390624-.65625"/><path d="m19.867189 22.875c.05859.15625.0625.28125.02734.35547-.04297.0781-.132812.17578-.28125.29687l.105469.16797.417969-.26953.808594 1.24609.238281-.15625-1.140625-1.7539zm0 0"/><path d="m22.738282 23.01953c-.109374.10937-.210937.15625-.324218.14844-.105469-.004-.199219-.0508-.273438-.12891-.08984-.0898-.128906-.19141-.121094-.29688.0039-.10937.05469-.20312.144532-.29296.09766-.0898.191406-.13672.304687-.14454.109375-.0117.207031.0391.308594.13282.08594.0937.125.19531.109375.30078-.0078.10156-.05859.19531-.148438.28125m-.976562-.61328c-.09375.008-.167969-.0234-.242188-.0937-.0625-.0625-.08984-.14063-.09766-.22657-.0078-.0859.03516-.17187.128906-.26171.08984-.0898.183594-.12891.273438-.12891.08984.008.160156.0391.21875.0898.0625.0664.09375.14844.09375.23828 0 .0899-.04687.17969-.132812.25782-.07031.0703-.148438.10937-.242188.125m.832031-.35938c-.07813-.004-.160156.0117-.25.0469.02734-.0898.03516-.16016.03125-.21875-.0078-.10938-.05859-.20703-.152343-.30078-.08594-.10157-.222657-.15235-.378907-.14454-.15625 0-.304687.0703-.449219.21485-.152343.14062-.226562.29297-.226562.45703-.0078.15625.04297.28906.152344.40625.09375.0898.1875.13281.292968.13281.0625.008.125-.008.203126-.0352-.05469.11328-.06641.23046-.05078.33593.01953.10938.07031.20703.160156.29688.148438.15234.3125.21484.488282.19922.179687-.0156.339844-.0977.488281-.23828.164063-.16407.246094-.32813.246094-.50782 0-.17968-.06641-.33593-.191407-.46484-.113281-.11328-.226562-.17188-.363281-.17969"/><path d="m23.628908 20.8125c-.07813.12109-.175782.18359-.277344.1914-.105469.008-.210938-.0234-.324219-.10156-.121094-.0859-.191406-.17969-.21875-.28906-.03125-.11328-.0078-.22656.07031-.32813.06641-.0977.15625-.16015.261718-.18359.105469-.0195.222656.0156.351563.10547.136719.0976.210937.20312.222656.3125.0078.11328-.02344.21094-.08594.29297m.273437-.69532c-.1875-.13281-.363281-.21484-.527344-.25-.292969-.0586-.523437.0312-.699219.28516-.128906.1875-.164062.36719-.117187.54688.05078.17578.15625.3164.3125.42968.164063.11328.328125.15235.496094.13282.171875-.0273.324219-.11719.433593-.28516.05859-.082.09766-.17188.117188-.26172.01563-.0937.0078-.19141-.04297-.29297.242188.21485.386719.39063.421875.52344.03516.13281.01953.25-.05859.35547-.03516.0547-.08594.0937-.128906.12109-.117187.0547-.222656.043-.355468-.0312l-.148438.21875c.128906.0937.269531.125.417969.0977.152343-.0234.292969-.1211.402343-.28906.175782-.25391.167969-.52344-.03516-.82032-.113281-.17578-.28125-.33593-.488281-.48047"/><path d="m24.781251 18.68359c-.132812-.14844-.253906-.30859-.359375-.47656-.105468-.17188-.167968-.29688-.207031-.38672l-.203125-.0937-.597656 1.33594.246094.10937.476562-1.0664c.08594.20703.21875.41406.375.63281.269531.36719.574219.66406.914062.88672l.121094-.26563c-.179687-.1289-.3125-.22656-.386718-.29297-.121094-.0977-.246094-.22656-.378907-.38281"/><path d="m23.488282 14.36718c-.05469 2.4961-1.078124 4.75391-2.714843 6.39844-1.695313 1.6875-4.023438 2.73047-6.597657 2.73047-2.578124 0-4.910156-1.04297-6.59375-2.73047-1.593752-1.58594-2.597652-3.75-2.707032-6.14453 0-.0117 0-.0273-.008-.043.14453-.0312.34375-.10156.50391-.22656.28515-.22656.39453-.22266.59375-.17578.19531.043.34765-.008.46093-.0937.11719-.0859.19141-.13672.32422-.14453.13672-.0117.30078-.10938.4375-.22657.13672-.12109.30469-.26562.484376-.21484.171875.0469.332032.082.457032.0352.128906-.0469.292968-.16797.367187-.29688.07031-.125.210937-.3125.394531-.36719.08984-.0273.238282-.043.394532-.0742.25.0742.429687.28515.710937.41796.289063.13672.5625.28907.851563.39063.289062.10937.53125.15625.777343.28125.246094.12891.128907.0469.28125.16797 0 0 .179688.11328.171875.1914-.01563.0781 0 .21875 0 .21875-.05078.25782-.04687.47657-.08594.58204-.04297.11328-.04297.16406-.0625.30859s-.02734.21484-.04687.33203c-.02344.11719-.08203.19141-.121094.26172-.03906.0703-.05078.24609-.128906.29297-.08203.0469-.242188.0937-.34375.10156-.101563.008-.257813.0195-.339844.0703-.08203.0508-.234375.11719-.367188.13672-.128906.0156-.292968.0234-.453124.043-.167969.0195-.183594.0469-.359376.0391-.175781-.004-.328124-.0625-.4375-.0742-.105468-.0117-.210937-.0195-.308593.0391-.09375.0586-.101563.15625-.06641.20312.03125.0469.08984.14453.273438.16797.183594.0273.285156.0352.402344.0312.125-.004.359375 0 .519531.004.164063 0 .429687.004.59375-.0391.164063-.0469.363281-.11718.515625-.13671 0 0 .164062-.0391.289062-.0234.121094.0195.25.0742.308594.0898.0625.0195.355469.043.511719.0508.144531.0117.339844.0234.484375.0156l.671875-.0664c.34375 0 .289063-.27344.128906-.32031-.07422-.0234-.230469.0352-.332031.0508 0 0-.339844.0352-.5-.12891-.05078-.0742-.05078-.16796 0-.34375.05469-.17578.05859-.3164 0-.46093-.03906-.10157-.03906-.19532-.03516-.23828.01563-.0898.03906-.17188.08984-.22657.144531-.16406.273437-.13281.375-.0977 0 0 .125.082.08984.21093-.03906.12891-.113281.14063-.125.23047-.0078.0859.01172.10938.04687.19141.04297.0859.07813.16016-.01563.26172-.128906.14062-.03906.26172.07813.27734 0 0 .257813-.0117.347656-.0625.113282-.0586.148438-.16406.140626-.28125-.01172-.11328-.132813-.14062 0-.27344.140624-.14062.08984-.29296.08984-.41406 0-.12109.02344-.11328.07031-.24609s-.08203-.2461-.152344-.14844c-.06641.0977-.109375-.29297-.05859-.36328.05859-.0703.09375-.11719.132813-.23047.03906-.11719.06641-.0703.02734-.21875-.04297-.14844-.109374-.0664-.167968-.0859-.132813-.0586-.08203-.33203-.03516-.52734.05078-.1875.148437.0117.273437.1875.125.17578.128906-.23047.08984-.38672-.03906-.15234.03906-.46875-.01563-.60937-.04687-.14063-.07031-.33594 0-.47657.04687-.082.07031-.37109.07031-.59375.07813-.0937.160156-.17578.394532-.13672.0039.0703.0039.14454-.0078.19532-.01953.11328-.03125.23047-.101563.32812-.07422.0977-.0039.29297.05469.32422.0625.0273.02734.0898-.01563.16406-.04297.0781-.05469.16016 0 .20313.05859.0391-.01563.0273 0 .1875.01563.15625.02734.0742 0 .24219-.02344.16796-.05078.3125.07422.30859.125 0 .214844-.0508.25.0469.03906.0977.08203.30469.171875.26172.08984-.0508.171875-.14453.160156-.30859-.0078-.16406-.08594-.31641-.07813-.55078.0078-.23828-.01563-.24219.02344-.46875.03906-.22656.03906-.21094 0-.41406-.01563-.0977-.03906-.17579-.04297-.25.07813.0664.191406.12109.449219.1289h.0039c-.0078.0234-.01172.043-.02344.0664-.09375.13672-.09766.23437-.05078.33984.04687.10547.230469.16016.08594.32031-.109374.12891-.03906.3086.144532.28125.210937-.0273.292968.0117.25.16016-.03906.16797.09375.19531.1875.19141.445312-.0195.4375.50781.175781.5664-.253906.0547-.269531.0859-.402344.15235-.144531.0625-.167969.32422-.109375.41797.05859.0937.121094.17187.03906.28906-.08594.11328-.09766.23047-.03906.32422.05859.0898.109375.23437.01563.34765-.09766.11328-.148437.35938-.07031.51172.07813.14844.167969.33203.07031.41406-.105469.0781-.105469.0469-.277343.0195-.167969-.0352-.257813.0234-.316407-.125-.05469-.14844.121094-.11719.109375-.28907-.01563-.17187-.01563 0-.01563-.17187 0-.17578.136719-.33594.07813-.54297-.05078-.21094.117188-.25781.03516-.42188-.07812-.15625-.234374-.1914-.253906-.35546-.01563-.16016-.05859-.27735-.230468-.26563-.175782.0117-.03516.77344-.07031 1.04297-.03125.26562-.0625.38281-.01563.50781.03906.12891.04297.14453.03516.29297-.01563.23438-.113281.24609-.0625.35938.05469.10937.01172.17968-.128906.1914-.140625.0117-.292969.0742-.328125.19531-.02734.125.140625.13282.238281.10547.140625-.043.371094-.10547.460938-.043 0 0 .214844.14063.40625.16016.183594.0195.46875.0625.617187.0703.15625.008.6875.004.976563-.0586.285156-.0625.660156-.13672.867187-.0703 0 0 .457031.17968.625.18359.171875 0 .570313-.0234.746094.004.171875.0273.640625.0781.808594.0664.160156-.0156.328125-.0352.269531-.14843-.06641-.10938-.160156-.0977-.371094-.17969-.207031-.0859-.222656-.16406-.585937-.14453-.367188.0156-.417969.082-.578125.0586-.160156-.0195-.292969-.0977-.503906-.22266-.210938-.11718-.472657-.19531-.640626-.17578-.167968.0234-.640624.10547-.800781.0586-.167969-.0391-.457031-.14063-.550781-.34766-.08984-.20703-.08594-.3125-.08203-.51562.105469-.35547 0-.83594 0-.83594s.0078-.1875.03906-.25781c.04297-.0703.117188-.26954.210938-.32032.140625-.0742.210937-.11718.398437-.13281.191406-.0156.402344-.0742.613282-.0977.203124-.0234 1.085937-.16796 1.339843-.27343.261719-.10157.472657-.19922.671875-.27735.144532-.0586.382813-.10156.601563-.14453.05859.14844.289062.28516.703125.11719.492187-.19922.59375-.16797.777344.0977.1875.25781.335937.33984.59375.375.257812.0391.410156.0156.488281.20312.08203.1875.152343.38281.425781.34766.160156-.0273.316406.0312.417969.082-.0039.0156-.0039.0234-.0039.0351m-18.562505-1.10156c.0273-.082.0391-.10156.125-.11719.0781-.0156.0781.0391.0859.0937.0156.0547.0352.0469.0547.0899.0234.0469 0 .0781-.0312.10156 0 0-.0664.0586-.15235.0312-.0781-.0195-.12109-.11719-.082-.19922m.14844-.91797c.0742-.0664.11719-.0664.24219-.0625.12109 0 .14453.1211.0703.15625-.0859.043-.0977.17188-.16016.23438-.0664.0625-.0937.0273-.20703-.0117-.11328-.0352-.0273-.24609.0547-.31641m.19922-.77343c-.0195-.10157.0703-.13282.1875-.0156.11719.11328.125.10938.16406.15234.043.0469.0703.1211.043.16407-.0312.043-.0859.0859-.20703.0937-.12109.008-.23047-.0352-.24609-.14844-.0156-.10938.0742-.14844.0586-.24609m.35156 2.26171c-.0469.10938-.21875.19922-.30078.28125-.0859.0781-.25.17969-.33203.10157-.0859-.0859-.0352-.26953.11719-.31641.1289-.0391.16406-.19141.26172-.26172.16015-.10547.33984 0 .2539.19531m-.125-.61328c-.0977-.0352-.14453-.0898-.0937-.25.0508-.16406.16406-.2539.22266-.30078.0625-.0508.10547-.0352.13672.0234 0 0 .0391.0859.0469.12891.0156.0352-.004.10156-.0391.17187-.043.0703-.0156.0937-.0273.17578-.008.0898-.14844.0898-.2461.0508m.0625-2.41406c.0547-.10937.19922-.0937.33985 0 .13671.0977.17968.25.0625.28125-.11719.0273-.0937.16797-.16797.20703-.0781.043-.23047-.0742-.27344-.15625-.0508-.0781-.004-.25.0391-.33203m.32813-.74609c.0742-.0352.16015-.0156.23828.0781.0664.0781.22265.22266.33984.31641.11719.0937.14844.10937.16406.1914.008.082-.13671.10157-.22265-.0273-.082-.12891-.19922-.12891-.26953-.10937-.0742.0156-.21094-.0469-.28516-.16797-.0742-.125-.0234-.23828.0352-.28125m.57812-.58985c.11719.0742.14844.23438 0 .29297-.15234.0586-.36328-.082-.32031-.22656.043-.14453.15625-.16406.32031-.0664m.16016-.68359c.0898-.125.16406-.11328.25781-.0508.043.0273.0937.0976.10938.21094.0195.14062-.0586.18359-.17969.16796-.1211-.0156-.1836.0625-.27735.0117-.11718-.0664.004-.21484.0898-.33984m.3789-.47656c.0625-.10547.15625-.11719.28125-.0391.17579.10938.14454.39844-.0312.40235-.17187.008-.3125-.26172-.25-.36328m.613288 1.375c.09766-.0234.109375.10937.109375.24218 0 .13282-.05078.13282-.179693.24219-.13281.11328-.14843-.0742-.1875-.16406-.0391-.0937 0-.17188.0625-.24219.043-.0547.0977-.0586.195318-.0781m.06641-.55469c.03125-.0859.128907-.23047.07422-.42188-.04687-.1914-.03125-.24609.113281-.11328.148438.13672.179688.28907.179688.28907.07422.16796.05078.26953-.160157.32812-.210937.0586-.234374.004-.207031-.082m.234375-1.59375c.140625.0508.08984.19531.02344.24609-.05469.0508-.199219-.008-.199219-.11718 0-.11329.05859-.16407.175781-.12891m.550782.51562c.07812.0586.183593.28125 0 .42579-.183594.14453-.347657 0-.347657-.19922 0-.19532.175781-.35938.347657-.22657m-.304688-.80859c.06641-.11719.175781-.13281.320312-.043.207032.125.164063.45703-.03516.46485-.195312.004-.359375-.30469-.285156-.42188m.527344 1.78906c.0078.10157-.01563.17969-.234375.21094-.203125.0352-.06641-.24609-.02344-.42187.04297-.17579.160157-.11719.1875-.0508.03125.0586.05859.16016.07031.26172m.152344.46875c.121093.0742.148437.40235-.04297.32813-.164063-.0664-.269531.043-.375-.0156-.105469-.0625-.04297-.14843.121093-.27734.167969-.125.261719-.0547.296876-.0352m.210937-2.79687c.15625.20312.25.44922-.0078.46094-.257812.008-.292968-.14844-.285156-.28516.02734-.32422.136719-.38281.292969-.17578m.375 1.40234c-.02344.16016-.121094.33203-.296875.37891-.175781.0469-.136719-.10156-.15625-.26953-.02344-.17188.01953-.28125.07422-.39844.05859-.12109.109375-.11719.183593-.12109.308594-.008.21875.24609.195313.41015m.03906-1.88281c.320312-.0586.457031.36719.324218.51172-.125.14453-.296875.1875-.378906.0156-.07422-.14453-.261719-.46484.05469-.52734m.570312.91016c.226562.0664.308594.23046.132812.39062-.171874.16016-.222656-.0781-.277343-.16797-.05469-.0937-.02734-.26953.144531-.22265m.195312-1.2461c.07031.10547.03906.28906-.0625.37891-.109374.0898-.296874-.15625-.292968-.26172.0078-.10547.273437-.25.355468-.11719m.21875.55469c.08203-.082.160157-.0391.207032.043 0 0 .109375.28906.101562.41406-.0078.12891-.105468.17188-.269531.17969-.160156.008-.179687-.125-.277344-.2461-.09375-.12109.01563-.17187.105469-.21484.08594-.043.05469-.10156.132812-.17578m.06641-.70313c.02734-.0742.09766-.12109.175781-.043.08203.0781.07813.13281.04687.23828 0 0-.04297.10937-.132813.0547-.09766-.0547-.125-.17187-.08984-.25m.207031 4.63282c-.15625.25-.40625.0859-.472656-.0547-.06641-.14063.09766-.37891.3125-.32813.214844.0508.28125.19141.160156.38282m.06641-2.5625c.03516-.19922.113282-.19141.199219-.23438.210937-.10547.402344-.0781.566406.0391.167969.11329-.02344.20313-.132812.3711-.105469.17187-.175781-.0117-.390625.0625-.21875.0742-.277344-.0391-.242188-.23828m.449219-2.21094c.308594.63281-.08984.75391-.113281.57422-.01563-.16016-.08203-.44141-.128906-.61719-.04688-.17969.132812-.18359.242187.043m.527344.90625s.02734.0859.234375.22266c.203125.13671-.0625.3164-.191406.29687-.128907-.0234-.183594-.0625-.335938.0312-.148438.0977-.386719.17188-.375-.10937.01563-.28516.238281-.32422.316406-.40235.08594-.0781.3125-.1914.351563-.0391m-.21875-1.25c.140625-.11328.238281.0977.261719.22266 0 0 .03906.22656.02734.37109-.01563.14453-.08984.20312-.226562.0156-.128907-.1875-.195313-.5-.0625-.60937m.5.004c.06641-.082.222656-.17188.28125.0352.01953.0898.109375.30078 0 .33203-.117188.0352-.199219.008-.242188-.0586-.04687-.0664-.101562-.22266-.03906-.30859m.316406 1.26562c-.0625.0547-.199219 0-.199219-.11328 0-.11719.05859-.16406.175782-.125.140624.0469.08594.19141.02344.23828m.246094-.77344c.191406.0586.167969.23828.05859.33203-.117187.0937-.1875-.0508-.203124-.1289-.01953-.0859.05469-.23047.144531-.20313m.144531-.69922c.09375.0586.105469.10938.09766.22266 0 0-.01563.11328-.121094.082-.105468-.0273-.15625-.13672-.144531-.21875.01172-.082.07422-.14453.167969-.0859m.15625 1.41016c-.05859.0625-.132812.21484-.1875.31641-.05469.0977-.125.12109-.207031.0703-.07813-.0547-.03125-.15234.05078-.21094.08594-.0664.08203-.14844.08594-.22656.01562-.14844.136718-.21094.214843-.17578.05078.0234.15625.10937.04297.22656m.460938.5c.214843.24609.175781.36719-.07813.33594-.257812-.0352-.496093-.14453-.320312-.33594.171875-.19141.308594-.10156.398438 0m-.148438-2.02344c.175781-.0937.195312.15625.226562.28907.03516.14062-.03125.17968-.08984.17968-.472657-.0117-.316407-.37109-.136719-.46875m.570312.7461c.03125.0742.03516.14843-.06641.30078-.101562.15234-.101562.23047-.06641.47656.03516.24609-.03906.4375-.242188.26563-.199218-.17188-.25-.36329-.171874-.48047.08203-.11719.121093-.29688.210937-.46485.08984-.16406.269531-.25.335937-.0977m.0039-.71875c.09375-.13672.242187-.0977.289062.0508.04687.14453.03516.26953-.05469.35937-.08984.0977-.171875.0703-.214844.0273-.06641-.0625-.117188-.30469-.01953-.4375m.402343 1.01562s.394532-.21094.234376-.28515c-.15625-.0742-.09766-.47657-.04297-.66016.05078-.18359.183593-.14063.269531-.0781.07422.0625.05078.31641.04297.45704-.0078.14453-.0078.1875-.07422.28906-.06641.10547-.06641.0898.117188.15234.179687.0586-.04297.32031-.148438.39453-.101562.0742-.171875.33985-.363281.19532-.1875-.14844-.136719-.38672-.03516-.46485m.679688 1.22266c.03125-.16797.148438-.25781.269531-.16797.242188.18359.109375.46094-.07813.51172-.1875.043-.230468-.17188-.191406-.34375m.09375-2.17578c.07031-.0508.15625-.0508.179688.0547.02734.10938-.0039.15235-.08984.22266 0 0-.08984.0703-.140625-.0234-.05078-.0937-.01172-.20703.05078-.2539m.515625.65625c.09766.0391.09766.125.07813.18359-.02344.0859-.113281.16406-.148438.24219-.03906.082-.02734.16406-.03906.23047-.01563.10156-.08594.17578-.132812.19922-.04688.0234-.125.0117-.171876-.0742-.03125-.0586-.05469-.14453-.03125-.3125.01172-.16016.144532-.29297.199219-.35938.05469-.0625.179688-.13672.246094-.10937m.226563-.60547c.121093-.004.144531.0312.246093.12109.101563.0898.01953.20703-.0625.1836-.105469-.0312-.210937.0703-.308593.082-.101563.004-.09766-.0469-.15625-.16016-.0625-.11328.167968-.22266.28125-.22656m.480468 1c.140625.21094.04297.33203-.128906.48437-.171875.15625-.230469-.0547-.324219-.20703-.08594-.15234-.08203-.23828.121094-.34375.203125-.10156.234375-.0703.332031.0664m.183594-.85156c.183594.004.328125-.008.347656.14843.02344.15235-.01172.22657-.125.31641-.140625.10547-.335937.24609-.390625.0508-.05469-.19141-.01563-.52344.167969-.51562m.53125.67968c.06641.0508.09375.13672-.0078.1875-.09766.0547-.148438.0352-.234376-.0273 0 0-.08984-.0703-.01953-.14453.07813-.0742.199219-.0664.261719-.0156m.140625-.45312s.06641-.0547.148437-.0547c.08203 0 .148438.0508.179688.16016.03125.10937-.03125.19922-.121094.23437-.08984.0352-.207031-.004-.257812-.0898-.05859-.0859-.0039-.1875.05078-.25m.605469.28125c.164062-.0977.261718-.0274.304687.0469.06641.10938.03906.46094-.144531.60938-.1875.14844-.375.0391-.382812-.17969-.0078-.21875.05859-.38281.222656-.47656m.730468 2.53906c.113282.26563-.121093.28516-.242187.41797-.117187.13281-.316406.0937-.25-.0352.05859-.125.06641-.26172.02734-.38672-.04297-.11718-.05469-.23046.03516-.27734.164063-.0859.3125.0195.429687.28125m-.08984-1.28906c.125-.0742.207031-.0156.246093.0508.05078.0937.03516.38672-.105468.51172-.148438.11719-.304688.0234-.308594-.16016-.01563-.1875.03516-.32422.167969-.40234m.195312-.875c.07813.0625.175781.27734 0 .41406-.179687.14063-.347656.004-.347656-.19141 0-.19531.171875-.35156.347656-.22265m.46875 2.98047c.203125.11718.15625.39843-.08594.42187-.242188.0195-.367188-.24219-.273438-.38281.105469-.13672.171875-.14063.359375-.0391m-.171875-2.54688c.101563-.21094.261719-.30859.3125-.19531.09766.23437-.179687.58203-.179687.58203-.140625.30469-.234375-.17578-.132813-.38672m.421875.96094c.01563.0547.08203.14062.109375.18359.03906.0391.02734.14844-.05859.23047-.07812.082-.07812.17188-.08594.29688-.0078.12109-.140625.19531-.214844.17968-.07422-.0156-.125-.0703-.121093-.17968.0078-.11328.06641-.19532.144531-.30078.07422-.0977.08203-.1875.07813-.33985-.01172-.15234.121094-.15625.148437-.0703m-.02344 1.40625c-.195313-.0273-.363282-.17578-.25-.25391.113281-.0742.246094-.16406.429687-.043.265625.17969.01953.32422-.179687.29688m.261718-1.65625c.03906-.0703.03125-.14844.05078-.21875.01953-.0742.09375-.15234.203125-.17969.07813-.0156.148437.082.21875.19141.0625.11328.03516.23828-.07422.35547-.105469.11718-.210938.0781-.3125.0547-.105469-.0234-.125-.13281-.08594-.20312m.730469.28516c.355469-.0625.394531.043.375.15625-.01172.10937-.234375.0547-.230469.15625.0039.10156.210938.27343.335938.15625.121094-.11329.332031-.16797.417969 0 .08203.17578-.199219.3789-.417969.29687-.125-.0469-.160156-.0898-.480469-.21875-.320312-.125-.351562-.48437 0-.54687m1.183594.9414c.07813-.0273.132813.008.164063.10547.03906.13281-.105469.26563-.191407.19141-.09766-.0703-.05078-.26953.02734-.29688m.824219 1.45313c.08594.15234-.0039.25781-.269532.14453-.113281-.0547-.25-.0664-.554687-.0547-.304687.004-.273437-.22266-.152344-.25781.15625-.043.238281-.0703.386719-.11328.375-.10938.5.1289.589844.28125m-.238282-.88672c.125.0742.160157.24609 0 .30859-.160156.0664-.382812-.0859-.335937-.23828.04687-.15625.164063-.17969.335937-.0703m-.453124 2.40234c-.0078-.22265.113281-.14453.21875-.12109.160156.043.148437.23828 0 .35156-.148438.11328-.207032-.0117-.21875-.23047m-.324219-1.15625c.09375-.0742.179687-.0586.269531.0586.125.15234.0039.40625-.15625.35937-.160156-.0508-.199219-.33984-.113281-.41797m.03906.59375c.210938.26953.167969.57813-.01953.60938-.191406.0312-.230469-.3125-.261719-.53125-.02734-.22266.179688-.21094.28125-.0781m-.296875-1.73047c.0039-.16015-.03906-.47656.164063-.30078.214843.17188.492187.75391.04687.60547-.183594-.0586-.222656-.14453-.210938-.30469m-.292968 3.44922s.214843-.0508.28125.0859c.07031.13672-.06641.21875-.269532.18359-.210937-.0352-.101562-.24218-.01172-.26953m.117187-.5c.210937.0547.246094.27735 0 .26953-.242187-.004-.472656.0234-.441406-.10937.02734-.13672.214843-.21875.441406-.16016m-.511719-.53515c.171875-.0937.171875-.24219.316406-.20313.09766.0195.164063.10938.238282.22656.07422.1211-.0078.21094-.214844.19922-.207031-.0117-.378906.0781-.476562 0-.09766-.082-.03516-.13281.136718-.22265m-.375-.71094c-.109375-.11328.0078-.33203.195313-.16016.410156.375.179687.64063.05859.56641-.08984-.0586-.144531-.29297-.253906-.40625m-.07031.71875c-.148438.0547-.238282-.0547-.230469-.17578.0039-.1211.08594-.22657.230469-.17188.222656.0781.152344.29297 0 .34766m-.363282.60937c.0625-.17578.308594-.20312.402344-.0898 0 0 .0625.0977 0 .21875-.05859.12109-.460937.043-.402344-.12891m-1.332031.83203s.160157-.52734.289063-.69921c.0078-.0117.02344-.0352.03516-.0508.07422-.008.148438-.0156.222656-.0312.257813-.0508.332032-.10937.425782.082.08984.1914.316406.39843.582031.30859-.04297.0156-.08594.0312-.132813.0508-.40625.15234-.40625.16797-.710937.24219-.304688.0781-.164063.0781-.625.0937-.02734 0-.05859.004-.08594.008zm.05859-1.80078c.144531.0391.121094.17188.03906.24219-.08203.0703-.136719-.0352-.152344-.0937-.0078-.0625.04297-.16797.113281-.14844m-.01563-.53125c.05859-.12109.136719-.10937.183594-.0664.34375.3164-.0078.48047-.203125.43359-.203125-.043-.05078-.24219.01953-.36719m-.566406-.23437c.01172-.21094.08984-.31641.230468-.26953.351563.11718.304688.34765.125.53125-.183593.17968-.367187-.0469-.355468-.26172m-.09375 1.3164c-.07422-.10937-.05859-.19921 0-.41015.05078-.21094.167968-.32813.324218-.16797s.05469.50391.05469.50391c-.0625.17187-.3125.17968-.378906.0742m.210937 1.19141c.105469.008.183594.10938.101563.20313-.08203.0937-.28125.0625-.296875-.0547-.01563-.11328.04687-.16406.195312-.14844m-1.734375-2.37891c.03906-.0391.117188-.15234.140625-.24609.01953-.10156.113281-.16406.167969-.0937.117188.17578-.04297.36328-.175781.45313-.140625.0859-.195313-.0508-.132813-.11329m-.136718-1.36328c.125-.13281.261718.0703.300781.19141 0 0 .06641.23047.07422.375.0078.15234-.0625.21875-.222657.0508-.160156-.17187-.273437-.48828-.152343-.61719m-.199219 1.12891c-.175781-.14844-.160157-.35156-.05859-.46484.101563-.11719.160156-.0273.207031.0664 0 0 .03516.14844.08203.3125.05469.16797-.05469.22656-.230469.0859m-.40625.79687c.125-.15234.04297-.35546.207031-.41796.226562-.0937.308594.0508.347656.22265.03516.17578.101563.25781-.191406.4336-.292969.17968-.492188-.082-.363281-.23829m-.535157-.71484c-.07031-.15625-.01562-.32812.171876-.27734.15625.0391.15625.125.320312.12109.167969-.008.1875.0898.144531.15625-.03906.0742-.08594.0469-.253906.13672-.164063.0977-.316406.0273-.382813-.13672m-.445312.41797c.01172-.0937.05859-.10938.121094-.14453.125-.0664.171875.0117.199218.0664.03125.0625.08594.14454.175782.17579.08984.0352.152344.0156.152344.1289 0 .11328-.179688.14453-.265626.15625-.08594.0156-.207031-.0273-.3125-.0859-.105468-.0625-.08203-.19921-.07031-.29687m-.351562-.66016c-.08984-.0937.05859-.16015.171874-.21484.117188-.0547.140626-.043.230469.0273.175781.14453.175781.22266.152344.29297-.02734.0742-.125.0352-.292969.0977-.171875.0664-.171875-.10938-.261718-.20313m-.152344.78907c-.0039-.0898.0625-.0742.132812-.0625.05469.0117.09375.082.105469.22656.0039.14844-.08594.25-.164063.24609-.08203-.004-.113281-.082-.09375-.16015.02344-.0742.01953-.16016.01953-.25m.3125-3.57422c-.234375.10937-.265625-.0937-.1875-.35938.08594-.26562.121094-.21875.375-.25.207031-.0273.222656.0508.253906.25.03516.20313-.207031.2461-.441406.35938m.06641.30078c.09766-.10547.183594-.0742.238281-.0312.06641.0664.125.32422.02344.47265-.105469.14844-.261719.10938-.316407-.0508-.05078-.15625-.04297-.28515.05469-.39062m.02734 1.42578c-.210938-.004-.207032-.25-.09766-.37891.105468-.125.167968-.12109.332031-.0664.113281.0391.183593.10547.183593.26172 0 .16015-.207031.1914-.417968.18359m.609375.0469c.05859-.0625.113281-.0351.136719.0352 0 0 .03516.0508-.03516.22266-.07813.16797-.191406.26172-.34375.23437-.152343-.0234-.08984-.23047.02344-.28906.109375-.0586.144531-.13672.21875-.20313m.6875.51172c-.125.0664-.148438.19532-.324219.25-.171875.0508-.07031-.32812.03516-.51172.113282-.18359.253906-.0937.320313-.0117.04687.0664.09766.20703-.03125.27343m.07031-2.51562c-.15625-.0469-.207031-.33594-.117187-.41406.08984-.0742.179687-.0547.273437.0547.125.15625.0039.41016-.15625.35938m.429688 1.70703c-.117188.10547-.25-.13672-.21875-.34375.02734-.20313.136719-.25391.21875-.17969.132812.11719.117187.41797 0 .52344m.04687-1.03516c-.01172.14844-.02344.28125-.191406.24219-.167969-.0391-.253907-.0625-.253907-.18359-.0078-.125.121094-.13282.144531-.25391.01953-.12109.01172-.29297.167969-.22266.15625.0703.144531.35547.132813.41797m.125-.6289c-.132813.0156-.242188-.0508-.140625-.25391.101562-.20703.242187-.21484.285156-.125.191406.40234-.144531.37891-.144531.37891m.335937.71875s.148438.0391.160157.26562c.01172.22656-.08594.33594-.234376.40625-.148437.0664-.152343-.27734-.148437-.44531.0078-.16797.07031-.23438.222656-.22656m.277344-.57813c.195313-.0117.355469-.11719.28125.25781-.07422.3711-.203125.28516-.378906.16797-.179688-.11718-.324219-.22265-.292969-.36328.03516-.13672.210938-.0547.390625-.0625m-.04297-.39062c-.230468-.0312-.175781-.3125-.113281-.46094.07422-.15234.171875-.17969.347656-.11328.160157.0586.207031.1289.1875.32812-.01172.20313-.199219.27344-.421875.2461m.433594 1.64843c-.09375.0742-.210938-.0508-.257812-.10546-.05859-.0547.02734-.15625.07031-.23829.0625-.11328.238281-.10546.269531.0234.03516.125.0078.25-.08203.32031m-.390625 1.35938c-.15625.043-.234375-.17969-.1875-.32422.04687-.14062.167969-.16797.269531-.1875.171875-.0312.125.0234.277344.11719.15625.0898.152344.32031 0 .32031-.148438 0-.210938.0312-.359375.0742m-.464844-.85547c-.140625-.15625.03125-.26562.167969-.31641.136719-.0508.269531.004.355469.0781.08203.0742.09375.20703-.06641.32031-.152343.11719-.324218.0703-.457031-.082m.117188 1.87891c-.191407-.17578.285156-.4961.433593-.65235.148438-.15625.285157.008.15625.125-.132812.125-.183593.17188-.167968.32032.03906.35937-.230469.38281-.421875.20703m.964843-.20703c.179688.16406-.05078.4375-.207031.39843-.160156-.0391-.128906-.26172-.05078-.375.08203-.11328.148438-.12109.257812-.0234m.128907-3.51954c-.304688.0312-.273438-.125-.128907-.40234.140626-.27734.304688-.13281.429688-.0391.21875.16797.0078.41406-.300781.4414m-.09375.57032c-.191407-.14063-.01172-.28907.121093-.36328.136719-.0742.21875-.0352.3125.0547.292969.26563-.242187.44532-.433593.3086m.08594.33984c.105469-.0937.183594-.008.226563.12109 0 0 .144531.29297-.121094.45313-.257813.16406-.179687-.0898-.179687-.0898.08984-.23047-.03516-.39454.07422-.48438m.628906 1.03125c-.07422.0586-.179687.0664-.261718.11328-.07422.0469-.113282.11719-.160156.16406-.07422.0703-.175782.0937-.226563.0899-.05469-.0117-.105469-.0625-.09766-.15625.0078-.0742.03906-.15625.148437-.28125.113282-.1211.289063-.15235.375-.17969.08594-.0195.226563-.004.261719.0547.05859.0859.0078.15625-.03906.19531m.539063.87109c-.0078.125-.113281.17579-.300781.0781-.183594-.10156-.261719-.25781-.226563-.42578.04297-.16797.164063-.22266.289063-.1836.3125.0977.242187.40625.238281.53125m.386719.75391c.148437.27344.02344.47266-.246094.53906-.261719.0586-.28125-.15234-.175781-.23047.09766-.0742.08594-.10546.175781-.27343.09766-.17188.195312-.1211.246094-.0352m.492187-.98437c.02344.1875-.132812.26562-.417969.17578-.285156-.0898.02734-.46875.175782-.50391.152344-.0391.210937.11328.242187.32813m-.519531 1.78515c-.08984-.0547-.0078-.14062.04687-.17187.04687-.0312.164063-.0195.167969.0508.01563.15234-.121094.17578-.214844.12109m.07031.22266c.04297-.0469.15625-.0742.183594-.008.05469.13671-.05859.20312-.164062.18359-.109375-.0234-.0625-.12891-.01953-.17578m.125-1.24219c-.109374-.10937-.01172-.27734.09766-.23828.300781.10547.460937.33594.304687.67578-.125.28906-.308594.23438-.277344.0586.02734-.20312-.01953-.38671-.125-.49609m.5-1.45312c.160157.0195.203126.0781.25.21875 0 0 .03516.14843-.125.17187-.164062.0234-.292968-.0781-.316406-.18359-.02734-.10938.02734-.22657.191406-.20703m.01953-.89063c-.101563.0391-.242188-.0547-.210938-.15234.02734-.0977.101563-.11328.210938-.0469.07813.0508.101562.16016 0 .19922m.507812.59766c-.0625.23828-.195312.0781-.367187 0-.171875-.0742-.09375-.21875 0-.38282.113281-.1914.304687-.25.46875-.0586.164062.19141-.03125.20703-.101563.44141m.171875 1.44531c-.246093.17187-.34375-.0117-.359375-.23828-.0078-.23047.113282-.23438.277344-.19141.230469.0625.324219.25781.08203.42969m.109375.29297c.07813-.082.15625-.10156.203125.0273.08984.22266 0 .36328-.175781.30469-.179688-.0625-.101562-.25391-.02734-.33203m.05469-2.01172c.06641-.0508.15625-.0508.179687.0547.02344.10937-.0039.15625-.08984.22265 0 0-.08984.0742-.144532-.0195-.05469-.0977-.01563-.21094.05469-.25781m.234375.82422c.08203.10937.109375.19922.03906.29297-.07422.10547-.226562.082-.335937.0273-.113282-.0469-.199219-.23047-.117188-.375.08594-.14844.332032-.0547.414063.0547m-5.34375-.98438c.03516.21875-.01563.33985-.125.42578-.07422.0586-.128907-.0781-.164063-.22265 0 0-.03516-.22656-.253906-.14453-.21875.0781-.265625-.23828-.246094-.44922.02734-.20313.113282-.30469.246094-.26953.207031.0508.148438.30078.175781.3789.03125.0781.144531.0508.144531.0508v.004s.175782-.0625.222657.22656m-1.699219 1.05469c.09375-.16016.265625-.13281.316406-.0273.117188.2539-.140625.4375-.34375.40234-.21875-.0312-.05859-.21484.02734-.375m-.34375.98047c-.226562.043-.230469-.14063-.195312-.28516.03906-.14843.113281-.21484.222656-.17187.05469.0156.07813.043.191406.10937.113281.0664.01172.30078-.21875.34766m-.15625.5c-.03125-.0977-.01172-.27344.105469-.20313.15625.10157.132812.33985.05859.37891-.07031.043-.132812-.0781-.164062-.17578m-.01172.9375c-.08594.0703-.136719-.0352-.152343-.0977-.01172-.0586.03906-.16406.109374-.14453.148438.0391.125.17188.04297.24219m-.910156-3.96875c.09766 0 .167969.0586.199219.17969.03906.12109-.03125.22265-.128906.25781-.101563.0391-.226563-.004-.292969-.10156-.05859-.0937-.0039-.20703.05859-.27344 0 0 .07422-.0625.164063-.0625m.117187-.23438c-.332031-.0703-.28125-.19531-.1875-.375.105469-.17968.277344-.26562.410157-.15625.351562.3086.101562.60547-.222657.53125m.01172 1.92579c-.07813.0156-.160156-.0352-.148437-.11329.0078-.082.05469-.10937.148437-.10937.113281 0 .15625.0898.148438.14062-.01172.0508-.0625.0625-.148438.082m-.175781.35546c.08203-.0234.132812.0117.164062.10938.04688.13281-.09766.26562-.195312.19531-.09375-.0742-.04297-.27734.03125-.30469m.183594.81641c.1875.0703.113281.25781.03125.32422-.08203.0664-.265625-.004-.265625-.15234 0-.15235.08594-.21875.234375-.17188m.40625-.59375c-.148438.0547-.242188-.0586-.234375-.17969.01172-.12109.08594-.22265.234375-.17187.21875.0781.152344.29297 0 .35156m.113281-.9375c-.07813.16016-.242187.14453-.417969-.0742-.175781-.21484.257813-.35547.394532-.30859.136718.0469.109374.19531.02344.38281m-.257813-.61328c-.257812.0312.02734-.42969.117188-.56641.08984-.13672.203125-.0781.257812.1211.105469.3789-.109374.41406-.375.44531m.566407.79297c.05469.008.132812.0898.101562.17578-.03125.0859-.121093.0937-.214843.0859-.101563-.0156-.132813-.12891-.08203-.20703.05078-.0742.121094-.0703.195313-.0547m.195312-1.54297c.144531-.11328.238281.0937.304688.26562.07422.1836.05859.20704-.167969.22266-.222656.0195-.195312-.0547-.207031-.1875-.01172-.13672-.06641-.1875.07031-.30078m.179688.89844c.210937.32031-.15625.48437-.34375.46875-.1875-.0156-.01563-.27344.02344-.44922.04297-.17188.207032-.19531.320313-.0195m-1.9375 1.6875c-.08594-.0742-.03906-.27735.03125-.30078.07813-.0273.136719.008.167969.10546.03906.13282-.105469.26563-.199219.19532m.04687-1.21485c-.164063.0312-.183594-.30078-.117188-.5039.07031-.19922.246094-.22657.332032-.0469.152343.29688-.04297.52344-.214844.55078m-.648438 1.74219c.136719-.0586.265625.0664.265625.19922-.0039.13672-.101562.18359-.210937.22656-.08203.0312-.242188-.0156-.265625-.14844-.02344-.13671.08203-.21484.210937-.27734m.05078-1.93359c.144531.0391.152343.17578.08203.26562-.07422.0898-.191407.125-.273438 0-.125-.17969.04297-.30469.191407-.26562m.222656 1.29297c-.01172.21093-.183594.21875-.300782.125-.117187-.0898-.05078-.4336-.03125-.58594.01563-.14844.117188-.15235.226563-.0625.148437.1289.125.3164.105469.52344m-.02344-1.73438c-.06641.12891-.230468.19531-.367187.0898-.144531-.11328-.0078-.28125.03125-.38281.04297-.10156.191406-.082.28125.008.09375.0899.109375.17188.05469.28516m-1.140625 2.19531c.03906-.0977.105469-.0937.1875-.0625.128907.0508.152344.1836.02734.25782-.132813.0742-.257813-.0937-.214844-.19532m.164063-1.78125c.195312.008.121094.21094.07813.39844-.136719.62891-.300781.0508-.300781.0508-.277344-.24609.03125-.46094.222656-.44922m-.351563-1.21484c.144531-.19141.445313.0664.566407.22266.109374.13671-.01953.27343-.386719.28515-.367188.008-.324219-.32031-.179688-.50781m-.05859.74219c.132812.0352.128906.21484 0 .35937-.125.14844-.207032-.0234-.191407-.1875.01953-.16797.08984-.20312.191407-.17187m-.375 1.43359c.01172-.20312.121093-.34375.289062-.30859.277344.0586.246094.22656.113281.35937-.128906.12891-.417969.15625-.402343-.0508m.09375 1.05469c-.08594.0351-.203126-.0312-.230469-.0937-.03516-.0586-.01563-.10938.02734-.1836.05078-.0703.09375-.082.171876-.0547 0 0 .15625.0586.234374.082.07813.0195.0625.0976-.02734.12109-.08594.0156-.08594.0898-.175781.12891m-.214844 1.18359c.128906-.0547.183594-.16797.199218-.24609.01563-.0781.117188-.125.15625-.0391.03516.0859.0078.25-.02734.32421-.05469.10547-.132813.16407-.246094.16407s-.191406.0312-.242187-.0273c-.05078-.0625.03516-.11718.160156-.17578m-.03125-.79687c.101562-.0586.210937-.0469.214844.0273.01172.0781 0 .11328 0 .11328 0 .10156-.01563.1875-.117188.23438-.109375.0508-.175781.0469-.203125 0-.03125-.043.01172-.10938.0039-.17578 0-.0664 0-.14454.101563-.19922m-.210938-2.59375c.04687-.125.109375-.10547.191406-.0508.07422.0508.09766.33984.07422.45703-.01563.125-.15625.1875-.289062.0937-.136719-.10157-.02734-.375.02344-.5m-.0625 1.52343c.01172-.0586.105469-.10937.210938-.082 0 0 .234375.0352.261718.10938.02734.0742-.101562.082-.15625.11328-.05469.0312-.07812.10547-.210937.0898-.136719-.008-.125-.17187-.105469-.23047m-.390625 1.54297c.05078-.0547.109375-.0586.195313-.0625.08594-.004.273437.0977.28125.17188.01563.0781-.04297.0976-.28125.0976-.234375 0-.234375-.16015-.195313-.20703m-.234375.4961c.06641-.0391.179688-.0703.265625-.0234.08594.043.125.0664.117188.11719-.0039.0469-.160157.0469-.214844.0859-.04687.0352-.07813.0703-.140625.0781-.0625.004-.125-.0195-.113281-.0898.0078-.0703.01953-.13282.08594-.16797m.59375-1.08985c.09375.0547.04687.28125-.08203.28907-.125.004-.125-.14063-.08203-.23438.03906-.0977.117187-.0898.164062-.0547m-.148437-.43359c-.07813.0703-.234375 0-.234375 0-.105469-.0312-.164063-.082-.164063-.14063.0039-.0586.01953-.10156.121094-.14453.09375-.0352.132813-.0898.183594.0156.04687.10547.175781.19531.09375.26953m-.648438.65234c.125-.0625.179688-.14843.183594-.21093.0078-.0625.03906-.1875.167969-.12891.167968.0859-.02344.35156-.02344.35156-.03516.0898-.01172.23047-.109375.23828-.101562.004-.199219-.008-.261719-.0547-.07422-.043-.08594-.12891.04297-.19532m-.734375.19141c.06641-.0117.1875-.0703.269532-.10547.08203-.0352.144531-.0156.160156.0547.02344.0703-.04687.10547-.136719.10547-.07813 0-.117187.0508-.15625.0977-.07813.0859-.187499.0664-.218749.008-.0195-.0352-.0469-.14063.08203-.16016m.566406-1.69922s.160157.0469.273438.10938c.117188.0586.08594.17578-.03125.29296-.117188.11329-.09375.21875-.175781.26172-.08984.0508-.144531-.0977-.128907-.17578.01563-.0742-.0039-.15234-.0625-.28515-.05859-.13282.04297-.23047.125-.20313m-.554687.64453c-.01563-.0742.0625-.17969.195313-.0273.128906.15234.164062.27344.285156.36719.125.0937.03516.30468-.07813.3164-.113281.0117-.234375.004-.292969-.11328-.03516-.0625-.05859-.11719-.101562-.16797-.03125-.0508-.04688-.082-.02344-.17187.01172-.0859.03516-.13282.01563-.20313m-.492181 2.28906c.0508-.13671.1289-.22656.2539-.24609.125-.0234.16797.0469.17969.10547.01172.082-.0898.29687-.23828.34375-.14844.0508-.24219-.0625-.19531-.20313m-.15235-2.75781c-.004.0664.0391.0781.0156.16797-.0195.0898-.10547.0391-.19922 0-.10156-.0391-.16797-.20703-.12891-.33203.0391-.12109.10938-.0781.1836-.0586.0898.0273.1289.15625.1289.22265m.16797-.57422c-.14453.0508-.23047-.0547-.21875-.16797 0-.11328.0781-.21093.21875-.16015.20313.0742.14063.27344 0 .32812m.19141 1.32422c-.0469.10938-.17578.0547-.24219.043-.0781-.008-.0898-.10547-.0469-.17969.0469-.0742.0937-.0937.17187-.0781.0937.0195.16406.11328.11719.21484m-.50781.44141c-.0234-.0977.0469-.13672.1289-.13281 0 0 .27344.0586.35938.1289.0898.0703.0703.16406 0 .28906-.0703.1211-.17969.0703-.31641.082-.13281.0156-.12109-.0937-.11328-.17969.0156-.0859-.043-.0937-.0586-.1875m.13672 1.26172c-.14844.0469-.21485-.0352-.28907-.10157-.0703-.0703-.043-.17187.0273-.21093.0703-.0391.0977-.10938.14453-.16016.0547-.0469.15234-.0781.2539-.0469.0742.0234.0859.14062.0859.26562.004.12109-.082.21094-.22265.25391m-.34766.84375c.0156-.0352.0781-.0859.19922-.0781.11719.008.14844-.0195.16406-.043.0195-.0234.10547-.043.11719.043.0156.0977-.0977.17188-.17188.21094-.082.0352-.19531.10547-.28125.0469-.082-.0547-.0508-.14453-.0273-.17968m-.35156-.17188c-.0742.008-.19141-.0195-.21485-.0664-.0352-.0781.008-.13282.0547-.16016.0625-.043.15625-.0391.22266-.0742.0703-.0273.10547-.082.15234-.11719.0625-.0508.14844-.0625.19531-.0508.043.008.0781.0586.0625.14063-.0117.0586-.043.12109-.14453.21484-.10547.0898-.25781.10156-.32812.11328m-.27735.39844c.043-.0547.0937-.0937.17188-.11719.0898-.0195.14453-.008.17187.0234.0391.0508.0234.14453-.0312.20703-.0625.0703-.20312.082-.26953.0703-.0781-.0195-.082-.13281-.043-.18359m.39844-1.03125c-.0273.10547-.13672.15625-.21875.14844-.0742-.0117-.14453-.0742-.0898-.16797.0586-.0937.11328-.10547.22265-.0977 0 0 .11328.0156.0859.11719m-.125-.64844c.0977-.004.16016-.043.24609-.1289.0977-.0859.17188-.004.13282.0547-.0273.0391-.0469.12891-.0547.16797-.0117.043-.0859.0937-.18359.0859-.0937-.0117-.15625.0391-.23829.10156-.082.0625-.19921.0117-.23046-.043-.0273-.0547-.0195-.11718.0508-.17187.0781-.0547.16406-.0625.27734-.0664m.29297-1.05469c.0703.0742.0195.20704-.12109.1836-.13282-.0195-.13282-.14453-.16016-.21875-.0312-.0742.0781-.17969.28125.0351m-.0117.44922c.0312.0508-.0273.10547-.0742.1211-.0469.0156-.082.043-.12109.0977-.0391.0586-.082.0781-.14063.0703-.0547-.004-.0586-.0508-.11328-.11719-.0547-.0664-.0391-.15235 0-.22266.0391-.0742.10156-.0703.17188-.0703.0859-.004.24218.0742.27734.12109m1.648434 1.74219c-.06641.0742-.234376.10156-.328126 0-.08984-.10156.03906-.27734.144532-.3125.109375-.0391.179687-.0312.238281.043.06641.082.01172.19531-.05469.26953m-.01563-.88672c-.08984.0937-.101562.20313-.152343.27344-.04687.0703-.160157.0273-.179688-.0195-.02734-.0469-.04687-.0625-.164062-.0703-.105469-.008-.136718-.0156-.171878-.0742-.0391-.0586-.0312-.14063.0234-.21094.04297-.0625.144531-.0664.230469-.0625.08984 0 .1875-.0469.273438-.0977.08203-.0547.179687-.082.230468 0 .05859.0781-.0039.16797-.08984.26172m2.335938.6875c-.07813 0-.292969-.0352-.300781-.13281 0-.0977.08594-.13672.242187-.0977.3125.082.195313.23828.05859.23047m.621094-1.17578c-.128906-.0352-.539063.043-.539063.043s-.160156.0859-.04297.25391c.06641.0859.109376.16796.113282.23828-.07031 0-.238282-.10157-.300782-.12891-.06641-.0312-.152343-.0703-.25-.10937.01172-.0312.01953-.0625.02344-.0937.0039-.17969-.05859-.46875.07813-.6211.140625-.15234.328125-.21484.390625-.11328.01172.0117.02344.0352.03125.0547-.01563.008-.03125.008-.04297.0195-.183593.10156-.285156.36719-.121093.39844.121093.0273.285156-.0625.363281-.1875.06641.0469.148437.0859.269531.0781.335938-.0117.453125-.14844.546875-.2539.08984-.10547.273437-.14063.355469-.0234.0078.0117.01953.0234.03125.0351 0 0 .03906.0781.04687.20313-.0039.125.01563.19531.09375.24219.07813.043.238281.0469.320312-.0391v.004s.148438-.125.1875 0c0 .11719-.0078.21875-.01172.28125-.0078.0391-.0078.0703-.01172.10156-.0039.004-.0039 0-.0039.004-.03125.19531-.07813.28516-.273438.30859-.175781.0195-.457031-.10937-.738281-.1914h.0039s-.191406-.0469-.277344-.19532c-.08203-.13281-.148437-.28125-.242187-.30859m-.257813.25781c.05859-.0586.128907-.008.191407.0508.132812.11719-.02344.23829-.09766.17579-.07422-.0586-.164062-.16797-.09375-.22657m.02344.79688c.07422-.19531.238281-.22656.316406-.17578.07031.043.07031.1289-.02734.2539-.117187.16016.01953.32422-.121093.35157-.15625.0312-.238282-.23829-.167969-.42969m2.300781-.0781c.0625.0586.04687.16797.0078.20703-.03906.0391-.105468.12891-.07812.17969.02734.043.04687.10938.0039.16797-.03906.0586-.01563.14844.05469.1875.07422.0391.09766.25-.01172.28125-.113281.0312-.160156.1875-.09766.24609.05469.0586.05469.16407 0 .20704-.0625.0469-.05469.0977-.02734.18359.02734.082.04297.3125-.09375.28516-.148437-.0273-.101562-.19532-.214843-.27735-.109375-.0859-.21875-.0742-.292969-.1875-.07031-.10937-.105469-.26562.03906-.39453.148438-.125.273438-.0625.273438-.23047s-.09766-.24219-.195312-.1914c-.09375.0469-.277344-.16016-.414063-.0195-.05859.0547-.378906.24219-.5-.14843-.113281-.39453.21875-.59766.320313-.52344 0 0 .148437.125.257812.0898.117188-.0273.175781-.0586.316406.0469.136719.10547.335938 0 .332032-.15235-.01172-.14843.08594-.21484.07812-.38671-.01172-.17188.109376-.22266.203126-.17969.09375.0391.144531.1914.07812.32812-.0625.13672-.09766.22266-.03906.28125m4.074219.52344c.03125.082-.109375.0937-.167969.125-.05859.0352-.08594.11328-.238281.10156-.148438-.0117-.132813-.1914-.117188-.2539.01563-.0664.121094-.1211.234375-.0937 0 0 .261719.043.289063.12109m-.550781-.37891c-.199219.008-.507813-.16015-.507813-.16015-.175781-.15625-.246094-.36719-.25-.60547-.0078-.23438.01953-.47656.01953-.64844v-.0117c.04297-.0781.09375-.15234.234375-.17187 0 0 .21875-.0586.257813.18359.0078.0781.03516.15235.0625.21094-.101563.10156-.171875.29297-.101563.41797.05859.10156.183594.10156.292969-.0742.04297-.0664.05859-.14453.05859-.21875.01172 0 .01563.004.02734.004.253906-.0508.308593-.125.425781.0742.113281.19922.21875.22657.378906.19532.05078-.0117.09766-.004.152344 0-.03906.0547-.07422.10937-.09766.16797-.136718.34765-.191406.375-.339843.48828-.15625.11328-.46875.14843-.613281.14843m4.78125-.0469c-.08203.0391-.304688.0937-.292969-.0664.01172-.15625.164062-.23828.292969-.18359.210937.082.08984.21484 0 .25m-.128907-.44531c-.214843.0859-.253906-.0312-.25-.37891.0039-.35156.355469-.23437.449219-.0586.128906.23828.01953.35156-.199219.4375m.84375-1.50782c-.07813.1836-.304687.0859-.425781.0703-.121094-.0117-.144531-.1836-.07031-.3086.07031-.125.15625-.16406.296874-.14062.15625.0351.28125.19531.199219.3789m.136719 2.125c-.03125.10938-.113281.14844-.25.10547-.195312-.0508-.238281-.33203-.07422-.3789.152344-.0547.355469.16015.324219.27343m-.01563-1.29687c.03906.10937.01563.21094-.01563.34375-.02734.12109 0 .20703.07031.34766.07422.14453-.05078.20312-.105468.1289-.03906-.043-.136719-.0977-.183594-.12109-.05078-.0274-.08203-.12891-.04297-.24219.04687-.11328.01172-.19922-.03906-.31641-.04687-.11718.05078-.24218.125-.25781.07422-.0195.148437.004.191406.11719m.246094-.6875c.03516-.21094.09766-.28906.214843-.0937.125.20312.265626.24219.132813.44922-.109375.17187-.28125.16797-.460937.0703-.179688-.0937.07422-.21875.113281-.42578m.0078-.83984c.136719.0469.08203.1914.02344.24218-.06641.0508-.207031-.004-.207031-.11718 0-.11329.0625-.16407.183593-.125m.429688 2.10156c-.179688.0156-.292969-.0977-.347657-.34766-.04687-.24219.203126-.20703.347657-.0469.132812.14062.179687.375 0 .39453m-.234375 1.16797c-.164063.10937-.351563-.043-.304688-.1875.04297-.14063.175782-.33594.304688-.21485.207031.19922.164062.29297 0 .40235m.382812.41406c.04687.11719-.191406.17969-.265625 0-.07031-.17578.125-.32422.265625 0m.04297-1.16797c.253906.36328-.34375.10156-.414063-.0469-.07031-.15235.265626-.16407.414063.0469m.148437.54688c.148438.0508.09375.19531.02734.24218-.0625.0547-.203125 0-.203125-.11718 0-.11329.06641-.16407.175781-.125m.246094-.39844c-.02734-.22266-.05469-.44531-.101562-.66406-.0039-.0117-.0039-.0273-.0078-.0352-.0625-.28906-.132812-.57031-.21875-.84766-1.199219-3.89843-4.820312-6.73437-9.105469-6.73437-5.261718 0-9.531249 4.26953-9.531249 9.53125 0 .14453.0156.29297.0234.4375.23047 5.05469 4.390622 9.08594 9.507809 9.08594 5.261719 0 9.523438-4.26563 9.523438-9.52344 0-.20703-.01563-.40625-.03125-.60547 0-.082 0-.16016-.0078-.23828-.01172-.14063-.03516-.27344-.05078-.40625"/></g></svg>