<svg width="132" height="20" viewBox="0 0 132 20" fill="none" xmlns="http://www.w3.org/2000/svg">
<path d="M32.2849 14.6603C31.0527 15.5228 29.615 15.9336 27.8488 15.9747C25.8361 16.0157 23.9878 15.3585 22.7144 14.0852C21.5233 12.894 20.9072 11.3332 20.9482 9.56697C20.9893 7.71859 21.6876 6.03452 22.9198 4.80227C24.1521 3.6111 25.8772 2.9539 27.7667 2.99497C29.1632 2.99497 30.0669 3.24142 31.258 3.9397L31.8331 4.2683V1.8038L31.5866 1.72165C30.2312 1.1466 29.2864 1.02338 27.7256 1.02338C25.0146 1.02338 22.5502 1.92703 20.825 3.69325C19.2642 5.2541 18.4016 7.34892 18.4016 9.60804C18.4016 11.9493 19.3052 14.0852 20.9482 15.6461C22.7144 17.3301 25.1789 18.1927 27.8899 18.0695H28.0953C29.4918 18.0284 30.4365 17.9873 31.792 17.4944L31.9563 17.4123L33.3529 13.9209L32.2849 14.6603Z" fill="#912338"/>
<path d="M44.8949 7.51323C43.7448 6.32205 42.184 5.62378 40.4999 5.5827C38.8569 5.5827 37.2139 6.19883 36.0638 7.39C34.8726 8.5401 34.2565 10.1009 34.2565 11.7029C34.2565 15.0299 37.0085 17.782 40.3356 17.823C42.0197 17.8641 43.5805 17.2069 44.7717 16.0568C45.9218 14.9067 46.579 13.428 46.6201 11.8261C46.6201 10.2242 46.0039 8.7044 44.8949 7.51323ZM40.3767 15.8104C38.364 15.8104 36.8031 14.0441 36.7621 11.785C36.7621 10.5938 37.2139 9.40267 38.0354 8.58117C38.6926 7.92397 39.5141 7.59537 40.4177 7.63645C42.3893 7.7186 44.0323 9.56697 44.0323 11.7029V11.8261C43.9913 14.0441 42.3483 15.8104 40.3767 15.8104Z" fill="#912338"/>
<path d="M72.6616 15.1121C71.9633 15.605 70.69 15.9747 69.4167 15.9747C68.3076 16.0157 67.2397 15.5639 66.4593 14.7835C65.6788 14.0031 65.227 12.894 65.2681 11.7439C65.2681 9.40266 67.0343 7.63644 69.3345 7.59536C70.3614 7.59536 71.4704 7.88289 72.1276 8.41686L72.8259 8.95084V6.28096L72.5794 6.15774C71.3882 5.66484 70.5667 5.66484 69.4577 5.66484H69.3345C67.4451 5.62377 65.7199 6.28096 64.4466 7.51321C63.3376 8.62224 62.7214 10.1009 62.7214 11.7439C62.7214 11.785 62.7214 11.8261 62.7214 11.8672C62.7625 13.5102 63.3786 15.0299 64.5287 16.139C65.761 17.3301 67.5272 17.9462 69.4577 17.8641H69.8274C70.8543 17.823 71.7168 17.823 72.7848 17.3712L72.8669 17.3301L72.9902 17.289L73.442 14.537L72.6616 15.1121Z" fill="#912338"/>
<path d="M85.8056 7.51323C84.6555 6.28098 83.0946 5.62378 81.4105 5.5827C79.7675 5.5827 78.1245 6.19883 76.9334 7.39C75.7422 8.5401 75.1261 10.1009 75.1261 11.7029C75.1261 15.0299 77.837 17.782 81.2052 17.823C82.8892 17.8641 84.4501 17.2069 85.6413 16.0568C86.7914 14.9067 87.4486 13.428 87.4896 11.8261C87.4896 11.785 87.4896 11.7439 87.4896 11.7029C87.5307 10.142 86.9146 8.66332 85.8056 7.51323ZM81.3284 15.8104C79.3157 15.8104 77.7549 14.0441 77.7138 11.785C77.7138 10.5938 78.1656 9.40267 78.946 8.58117C79.6032 7.92397 80.4247 7.59537 81.3284 7.63645C83.3411 7.7186 84.943 9.5259 84.943 11.7029V11.8261C84.9019 14.0441 83.3 15.8104 81.3284 15.8104Z" fill="#912338"/>
<path d="M131.029 17.6177L130.7 17.0015C130.577 16.7551 130.495 16.5908 130.454 16.3033C130.372 16.0157 130.372 15.8514 130.372 15.5639V9.56697C130.372 6.8971 128.852 5.5827 125.648 5.45947C124.457 5.45947 123.266 5.54162 122.075 6.2399L121.869 6.36312V8.82762L122.568 8.21149C123.184 7.67752 124.17 7.43107 125.566 7.43107C126.88 7.43107 127.907 8.08827 127.907 8.99192C127.907 9.77234 127.497 9.97771 126.634 10.1009C126.634 10.1009 126.429 10.142 124.334 10.4706C122.034 10.8403 121.007 11.8672 120.966 13.9209C120.966 14.0031 120.966 14.0441 120.966 14.1263C120.966 15.0299 121.294 15.8514 121.91 16.5086C122.691 17.2891 123.882 17.782 125.155 17.7409C126.018 17.7409 127.004 17.5766 127.99 16.9605C127.99 17.1658 127.99 17.6177 127.99 17.6177H131.029ZM127.99 11.8261C127.99 12.319 127.99 13.9209 127.99 13.9209C127.99 15.1532 126.634 15.9336 125.361 15.9336C124.745 15.9336 124.128 15.6871 123.718 15.2764C123.43 14.9478 123.307 14.6192 123.307 14.2084V14.0852C123.348 13.2226 123.964 12.6065 124.95 12.4422L127.045 12.0725C127.045 12.0315 127.62 11.9082 127.99 11.8261Z" fill="#912338"/>
<path d="M57.3406 17.248L56.7656 17.9873H60.9552L60.4212 17.2891C60.298 17.1248 60.2569 17.0426 60.2159 16.8783C60.0926 16.4676 60.0926 16.3033 60.0926 15.9336V10.2652C60.0926 9.07406 59.5997 7.96504 58.7372 7.14354C57.7925 6.23989 56.4781 5.74699 55.1226 5.82914C53.9314 5.87022 53.0278 6.15774 52.2063 6.77387C52.2063 6.60957 52.2063 6.19882 52.2063 6.19882H51.9598H49.2489L49.6185 7.30784C49.6185 7.34892 49.6185 7.38999 49.6596 7.47214L49.7418 7.88289V16.6319C49.7418 16.7551 49.7418 16.8372 49.7007 16.9605L49.5364 17.3301L49.331 17.6587L49.0846 18.0284H52.9045L52.3706 16.8783C52.2884 16.5497 52.2473 16.3443 52.2473 15.8925V10.3474C52.2473 8.86869 53.2742 7.84182 54.7529 7.80074C55.6155 7.75967 56.4781 8.08827 57.0531 8.62224C57.4228 8.99191 57.6281 9.44374 57.6281 9.93664V15.9336V16.2622V16.8783C57.5871 17.0015 57.5049 17.0837 57.3406 17.248Z" fill="#912338"/>
<path d="M96.3207 5.41841C95.4582 5.25411 94.7188 5.37733 93.9795 5.78808C93.6509 5.95238 93.4455 6.15775 93.199 6.36313C93.199 6.28098 93.199 5.91131 93.199 5.91131H89.7487L90.2416 6.48636C90.447 6.73281 90.5292 6.85603 90.6113 7.10248C90.6935 7.34893 90.7345 7.51323 90.7345 7.75968V15.605V15.7693C90.7345 16.0568 90.7345 16.2622 90.6524 16.5497C90.6113 16.6729 90.5702 16.7551 90.4881 16.8783L89.9952 17.6998H90.7756H94.1848L93.7741 17.0426C93.6098 16.7551 93.5276 16.5908 93.4455 16.3033C93.3223 15.8925 93.2812 15.6871 93.2812 15.2764V10.4295C93.2812 9.3616 93.7741 8.33473 94.4724 7.92398C95.0474 7.63645 95.4582 7.59538 96.1154 7.75968L96.6904 7.92398V5.45948L96.3207 5.41841Z" fill="#912338"/>
<path d="M117.269 1.10553H114.435V4.02185H117.269V1.10553ZM114.599 16.9605L114.106 17.6998H117.967L117.515 16.9194L117.392 16.5908C117.351 16.4265 117.351 16.3443 117.351 16.0979V5.82915H113.942L114.435 6.32205C114.558 6.44527 114.599 6.52742 114.681 6.69172C114.722 6.81495 114.722 6.93817 114.722 7.10247V7.30785V16.0979V16.2622L114.681 16.6729C114.722 16.7962 114.681 16.8783 114.599 16.9605Z" fill="#912338"/>
<path d="M110.82 17.7409L110.245 16.9194C110.163 16.7551 110.081 16.714 110.081 16.5908C109.958 15.6871 109.958 15.1532 109.958 14.2084V1.10553H106.548L107.123 1.8038C107.123 1.8038 107.247 2.00918 107.288 2.05025V2.09133L107.37 2.41993C107.37 2.41993 107.37 5.04872 107.37 6.44527C106.466 5.78807 105.522 5.50055 104.371 5.5827C100.962 5.70592 98.9906 7.92397 98.9084 11.7029C98.9084 13.6334 99.6067 15.4407 100.798 16.6319C101.825 17.6177 103.139 18.1106 104.618 18.0284C105.686 17.9873 106.548 17.7409 107.37 17.2069C107.37 17.4123 107.37 17.8641 107.37 17.8641L110.82 17.7409ZM107.452 10.3474V12.9762C107.452 13.8798 107.165 14.6192 106.631 15.1532C106.138 15.6461 105.398 15.8514 104.536 15.8104C103.714 15.7693 102.934 15.3996 102.4 14.7424C101.619 13.8388 101.25 12.5654 101.414 11.251C101.578 9.64912 102.277 7.7186 104.577 7.63645C105.398 7.59537 106.138 7.8829 106.672 8.37579C107.206 8.86869 107.452 9.56697 107.452 10.3474Z" fill="#912338"/>
<path d="M0 3.52896L2.09482 7.02033C1.9716 6.40421 1.68407 5.17196 1.68407 5.17196C1.9716 5.37733 5.09329 6.48636 5.75049 6.69173C5.33974 5.99346 4.64147 5.37733 4.02534 4.72013C4.47717 5.17196 5.25759 5.62378 5.87372 6.03453C6.12017 6.19883 6.36662 6.32206 6.61307 6.48636C6.57199 5.74701 6.24339 5.04873 5.95587 4.35046C6.16124 4.88443 6.73629 5.45948 7.18811 5.95238C7.31134 6.07561 7.43456 6.23991 7.59886 6.36313C7.96854 5.66486 8.09176 4.92551 8.09176 4.22724C8.09176 4.88443 8.21499 5.70593 8.58466 6.36313C8.74896 6.19883 8.91326 6.03453 9.07756 5.82916C9.48831 5.37733 10.0223 4.84336 10.1866 4.30938C9.89906 5.00766 9.61154 5.74701 9.57046 6.48636C10.5973 5.95238 11.3778 5.29518 12.1582 4.72013C11.5421 5.17196 11.0902 5.82916 10.6795 6.32206C10.5973 6.44528 10.5152 6.56851 10.433 6.69173C11.0902 6.48636 14.1709 5.58271 14.1709 5.58271L9.24186 7.96505L14.1709 5.70593L13.8833 7.14356L13.9655 7.30786L16.2246 3.52896H0Z" fill="#897334"/>
<path d="M16.0603 1.84487C15.7728 1.68057 14.7459 1.35198 14.0476 1.1466C12.8154 0.818001 10.7616 0.325101 8.00961 0.0786515C3.94319 -0.208873 1.35547 0.366176 0.369674 0.612625C0.24645 0.6537 0.123225 0.653701 0.0410751 0.694776H0V2.1324H0.0821494C1.51977 1.8038 3.98427 1.39305 7.47564 1.26983C12.5279 1.18768 15.4442 1.8038 16.0603 1.92702H16.1014H16.1425V1.8038L16.0603 1.84487Z" fill="#98002E"/>
<path d="M14.2119 13.2637C12.2403 15.6461 9.48832 17.4534 8.215 18.0284C6.16125 17.0837 2.21806 14.0852 0.451833 8.82762C0.410758 8.66332 0.369683 8.49902 0.328608 8.37579H0.205383C0.246458 8.54009 0.246458 8.74547 0.287533 8.90977V8.99192C0.369683 9.40267 0.451833 9.73127 0.533983 10.0599C2.50558 16.8372 7.59887 19.7125 8.17392 20H8.215H8.25607C9.5294 19.3017 12.3225 16.9194 14.3352 13.3459L14.2119 13.2637Z" fill="#98002E"/>
<path d="M1.97159 5.5827L2.87524 10.9224C2.87524 10.9224 4.97006 14.0852 7.96853 15.7693V8.7044L1.97159 5.5827Z" fill="#897334"/>
<path d="M8.42035 8.49902V15.7282C8.5025 15.6871 8.54357 15.6461 8.62572 15.605C8.6668 15.5639 8.70787 15.5228 8.79002 15.5228V8.41687L8.42035 8.49902Z" fill="#897334"/>
<path d="M14.5816 5.29517C14.5816 5.29517 9.6526 7.84181 8.1739 7.96504C6.48983 7.80074 1.97159 5.54162 1.97159 5.54162C4.88791 7.96504 8.09175 8.74546 8.21498 8.74546C8.21498 8.74546 10.6384 8.25256 13.9244 5.91129C13.8833 6.40419 13.7601 7.92396 13.4726 9.64911L14.5816 5.29517Z" fill="#912338"/>
</svg>
