<svg width="220" height="33" viewBox="0 0 220 33" fill="none" xmlns="http://www.w3.org/2000/svg">
<path fill-rule="evenodd" clip-rule="evenodd" d="M110.002 32.6961H111.519V2.32541e-05H110.002V32.6961ZM51.835 27.4199V7.00219H58.3947V2.72522H40.308V7.00219H46.9059V27.4199H51.835ZM27.7566 27.643C25.0266 27.643 23.1686 26.9366 21.2724 25.0766L24.5336 21.9533C25.3296 22.7336 26.126 23.3287 27.7566 23.3287C30.1454 23.3287 31.7 21.9532 31.7 19.0891V2.72537H36.6296V19.3121C36.6296 24.7419 32.4209 27.643 27.7566 27.643ZM15.3572 27.5491L10.4654 18.9582L5.64999 27.5491H0L7.81138 14.8672L0.538439 2.96613H6.14584L10.4654 10.8133L14.8605 2.96613H20.4305L13.1198 14.8672L21.0071 27.5491H15.3572ZM62.4143 27.4198V2.72555H67.3061V23.1055H78.7575V27.4198H62.4143ZM82.3596 18.94C82.3596 24.1846 86.4549 27.643 91.6496 27.643C96.8066 27.643 100.902 24.1846 100.902 18.94V2.72537H96.0102V18.7917C96.0102 21.6181 94.304 23.3287 91.6496 23.3287C88.9952 23.3287 87.2891 21.6181 87.2891 18.7917V2.72537H82.3596V18.94ZM118.813 11.3464L120.113 13.6834H121.611L119.519 10.2438L121.47 6.97382H119.99L118.813 9.14124L117.644 6.97382H116.155L118.106 10.2438L116.023 13.6834H117.522L118.813 11.3464ZM122.458 6.97367H123.768V13.6833H122.458V6.97367ZM125.209 6.97354V9.11283L126.491 8.14203V6.97354H125.209ZM130.193 8.95256L129.346 11.3932H131.013L130.193 8.95256ZM131.758 13.6832L131.362 12.4958H128.978L128.573 13.6832H127.206L129.647 6.9736H130.674L133.124 13.6832H131.758ZM135.281 9.56516L137.938 13.6834H139.107V6.97382H137.797V11.0824L135.139 6.97382H133.971V13.6834H135.281V9.56516ZM143.864 13.7399C143.138 13.7399 142.639 13.5515 142.139 13.052L143.006 12.1945C143.223 12.4111 143.43 12.5714 143.864 12.5714C144.505 12.5714 144.92 12.1945 144.92 11.4214V6.97367H146.229V11.4785C146.229 12.958 145.108 13.7399 143.864 13.7399ZM149.036 6.97367H147.726V13.6833H149.036V6.97367ZM152.871 8.95256L152.023 11.3932H153.691L152.871 8.95256ZM154.435 13.6832L154.039 12.4958H151.655L151.25 13.6832H149.883L152.324 6.9736H153.351L155.802 13.6832H154.435ZM158.9 8.08543C159.259 8.08543 159.551 8.22687 159.739 8.44385C159.994 8.72674 160.069 9.03774 160.069 10.3284C160.069 11.6194 159.994 11.9304 159.739 12.2133C159.551 12.4299 159.259 12.5713 158.9 12.5713C158.542 12.5713 158.241 12.4299 158.053 12.2133C157.798 11.9304 157.732 11.6194 157.732 10.3284C157.732 9.03774 157.798 8.72674 158.053 8.44385C158.241 8.22687 158.542 8.08543 158.9 8.08543ZM158.9 13.7398C159.664 13.7398 160.238 13.4762 160.71 13.0049C161.379 12.3357 161.379 11.5099 161.379 10.3745V10.3284V10.2823C161.379 9.14725 161.379 8.32152 160.71 7.65227C160.238 7.18093 159.664 6.91734 158.9 6.91734C158.137 6.91734 157.553 7.18093 157.082 7.65227C156.421 8.31254 156.421 9.12512 156.422 10.2368L156.422 10.3284L156.422 10.42C156.421 11.5321 156.421 12.3446 157.082 13.0049C157.553 13.4762 158.137 13.7398 158.9 13.7398ZM165.298 8.14224V13.6833H163.988V8.14224H162.235V6.97375H167.051V8.14224H165.298ZM170.386 8.08543C170.744 8.08543 171.036 8.22687 171.224 8.44385C171.479 8.72674 171.554 9.03774 171.554 10.3284C171.554 11.6194 171.479 11.9304 171.224 12.2133C171.036 12.4299 170.744 12.5713 170.386 12.5713C170.027 12.5713 169.726 12.4299 169.538 12.2133C169.283 11.9304 169.217 11.6194 169.217 10.3284C169.217 9.03774 169.283 8.72674 169.538 8.44385C169.726 8.22687 170.027 8.08543 170.386 8.08543ZM170.386 13.7398C171.149 13.7398 171.724 13.4762 172.195 13.0049C172.864 12.3357 172.864 11.5099 172.864 10.3745V10.3284V10.2823C172.864 9.14725 172.864 8.32152 172.195 7.65227C171.724 7.18093 171.149 6.91734 170.386 6.91734C169.623 6.91734 169.038 7.18093 168.567 7.65227C167.906 8.31254 167.907 9.12512 167.907 10.2368L167.907 10.3284L167.907 10.42C167.907 11.5321 167.906 12.3446 168.567 13.0049C169.038 13.4762 169.623 13.7398 170.386 13.7398ZM178.187 13.6834L175.529 9.56516V13.6834H174.219V6.97382H175.388L178.046 11.0824V6.97382H179.356V13.6834H178.187ZM183.18 13.7398C183.896 13.7398 184.537 13.5328 185.074 12.9767C185.545 12.4865 185.715 11.9022 185.715 10.9318V9.95181H183.18V11.0448H184.414V11.2991C184.414 11.6479 184.329 11.9493 184.113 12.1948C183.896 12.4302 183.576 12.5713 183.18 12.5713C182.822 12.5713 182.53 12.4395 182.341 12.2229C182.087 11.94 182.021 11.6198 182.021 10.3287C182.021 9.03767 182.087 8.72666 182.341 8.44378C182.53 8.2272 182.822 8.08576 183.18 8.08576C183.849 8.08576 184.235 8.43454 184.386 9.0658H185.705C185.527 7.93508 184.735 6.91727 183.18 6.91727C182.426 6.91727 181.842 7.18086 181.37 7.6522C180.71 8.31246 180.711 9.12502 180.711 10.237L180.711 10.3287L180.711 10.4204C180.711 11.532 180.71 12.3446 181.37 13.0048C181.842 13.4762 182.445 13.7398 183.18 13.7398ZM186.835 10.4229H189.738V11.5633H186.835V10.4229ZM116.758 18.2797V24.9893H121.112V23.8208H118.068V18.2797H116.758ZM122.194 18.2796H123.504V24.9892H122.194V18.2796ZM126.548 24.9893H127.527L129.752 18.2797H128.385L127.038 22.6523L125.69 18.2797H124.333L126.548 24.9893ZM130.579 24.9893V18.2797H134.999V19.4482H131.889V21.0217H134.538V22.1902H131.889V23.8208H134.999V24.9893H130.579ZM137.608 19.4481H138.843C139.417 19.4481 139.794 19.8154 139.794 20.3337C139.794 20.8521 139.417 21.2198 138.843 21.2198H137.608V19.4481ZM138.55 22.3131L139.86 24.9892H141.378L139.879 22.0961C140.529 21.8607 141.104 21.2764 141.104 20.3337C141.104 19.2123 140.294 18.2796 138.928 18.2796H136.298V24.9892H137.608V22.3131H138.55ZM145.014 19.4481H143.789V21.2857H145.014C145.608 21.2857 145.984 20.918 145.984 20.3715C145.984 19.8246 145.608 19.4481 145.014 19.4481ZM145.08 22.4638H143.789V24.9892H142.479V18.2796H145.08C146.465 18.2796 147.294 19.2311 147.294 20.3715C147.294 21.5119 146.465 22.4638 145.08 22.4638ZM150.667 19.3915C151.025 19.3915 151.317 19.5329 151.505 19.7495C151.76 20.0324 151.835 20.3434 151.835 21.634C151.835 22.9255 151.76 23.2365 151.505 23.5194C151.317 23.7359 151.025 23.877 150.667 23.877C150.308 23.877 150.007 23.7359 149.819 23.5194C149.564 23.2365 149.498 22.9255 149.498 21.634C149.498 20.3434 149.564 20.0324 149.819 19.7495C150.007 19.5329 150.308 19.3915 150.667 19.3915ZM150.667 25.0459C151.43 25.0459 152.005 24.7819 152.476 24.311C153.145 23.6413 153.145 22.8156 153.145 21.6801V21.634V21.588C153.145 20.4533 153.145 19.6276 152.476 18.9579C152.005 18.4866 151.43 18.223 150.667 18.223C149.904 18.223 149.319 18.4866 148.848 18.9579C148.187 19.6186 148.188 20.4312 148.188 21.5425L148.188 21.634L148.188 21.7257C148.188 22.8377 148.187 23.6503 148.848 24.311C149.319 24.7819 149.904 25.0459 150.667 25.0459ZM157.591 19.7495C157.403 19.5329 157.111 19.3915 156.753 19.3915C156.394 19.3915 156.093 19.5329 155.905 19.7495C155.65 20.0324 155.584 20.3434 155.584 21.634C155.584 22.9255 155.65 23.2365 155.905 23.5194C156.093 23.7359 156.394 23.877 156.753 23.877C157.111 23.877 157.403 23.7359 157.591 23.5194C157.846 23.2365 157.921 22.9255 157.921 21.634C157.921 20.3434 157.846 20.0324 157.591 19.7495ZM158.562 24.311C158.091 24.7819 157.516 25.0459 156.753 25.0459C155.99 25.0459 155.406 24.7819 154.934 24.311C154.273 23.6503 154.274 22.8377 154.274 21.7257L154.274 21.634L154.274 21.5425C154.274 20.4312 154.273 19.6186 154.934 18.9579C155.406 18.4866 155.99 18.223 156.753 18.223C157.516 18.223 158.091 18.4866 158.562 18.9579C159.231 19.6276 159.231 20.4533 159.231 21.588V21.634V21.6801C159.231 22.8156 159.231 23.6413 158.562 24.311ZM160.587 18.2797V24.9893H164.941V23.8208H161.897V18.2797H160.587ZM170.593 25.0458C169.217 25.0458 168.124 24.1132 168.124 22.6899V18.2796H169.434V22.6429C169.434 23.4152 169.886 23.8773 170.593 23.8773C171.3 23.8773 171.761 23.4152 171.761 22.6429V18.2796H173.062V22.6899C173.062 24.1132 171.969 25.0458 170.593 25.0458ZM175.85 20.871L178.508 24.9893H179.676V18.2797H178.366V22.3883L175.708 18.2797H174.54V24.9893H175.85V20.871ZM181.258 18.2796H182.568V24.9892H181.258V18.2796ZM183.396 18.2797L185.611 24.9893H186.591L188.815 18.2797H187.449L186.101 22.6523L184.753 18.2797H183.396ZM189.643 24.9893V18.2797H194.063V19.4482H190.953V21.0217H193.601V22.1902H190.953V23.8208H194.063V24.9893H189.643ZM196.671 19.4481H197.906C198.481 19.4481 198.857 19.8154 198.857 20.3337C198.857 20.8521 198.481 21.2198 197.906 21.2198H196.671V19.4481ZM197.613 22.3131L198.923 24.9892H200.441L198.942 22.0961C199.592 21.8607 200.167 21.2764 200.167 20.3337C200.167 19.2123 199.357 18.2796 197.991 18.2796H195.361V24.9892H196.671V22.3131H197.613ZM203.389 25.0458C202.372 25.0458 201.599 24.8292 200.939 24.1602L201.787 23.312C202.211 23.7359 202.786 23.8773 203.408 23.8773C204.181 23.8773 204.595 23.5852 204.595 23.048C204.595 22.8121 204.529 22.6144 204.388 22.4826C204.256 22.36 204.105 22.2941 203.794 22.2467L202.984 22.1338C202.409 22.049 201.985 21.8702 201.684 21.5777C201.363 21.2575 201.203 20.8239 201.203 20.2585C201.203 19.0615 202.089 18.2233 203.54 18.2233C204.463 18.2233 205.133 18.4491 205.708 19.0052L204.878 19.825C204.454 19.4199 203.945 19.3633 203.502 19.3633C202.805 19.3633 202.466 19.7494 202.466 20.2115C202.466 20.3811 202.522 20.5603 202.663 20.6921C202.795 20.8146 203.013 20.9183 203.285 20.9557L204.077 21.069C204.69 21.1538 205.076 21.3233 205.359 21.5873C205.717 21.9265 205.877 22.4167 205.877 23.0106C205.877 24.3109 204.793 25.0458 203.389 25.0458ZM208.438 18.2796H207.128V24.9892H208.438V18.2796ZM212.585 19.4481V24.9892H211.274V19.4481H209.522V18.2796H214.337V19.4481H212.585ZM217.983 24.9894V22.2374L220 18.2795H218.577L217.342 20.9841L216.089 18.2795H214.666L216.683 22.2374V24.9894H217.983Z" fill="#010544"/>
</svg>
